{"glyphs":{"0":{"ha":688,"x_min":0,"x_max":0,"o":"m 721 764 b 724 721 723 750 724 736 b 722 679 724 707 723 693 b 710 598 720 652 716 625 b 664 444 699 546 683 494 b 634 371 655 419 645 395 b 598 299 623 346 611 322 b 504 168 571 252 540 208 b 380 60 467 127 426 91 b 308 21 357 45 333 32 b 228 0 282 11 255 3 b 145 6 200 -4 172 -2 b 134 9 141 6 137 8 b 123 14 130 10 127 12 b 104 28 116 18 110 22 b 78 64 93 38 84 50 b 63 104 71 77 67 91 b 55 145 60 118 57 131 b 51 186 53 159 52 172 b 50 226 51 199 50 213 b 68 387 51 280 57 334 b 120 540 79 440 97 491 b 129 559 123 547 126 553 b 139 576 133 565 136 571 b 159 611 145 588 152 600 b 181 645 166 622 174 634 b 204 678 189 656 196 667 b 256 740 220 700 237 720 b 314 797 274 761 294 780 b 455 882 356 833 403 863 b 535 900 481 891 508 897 b 555 901 542 901 548 901 b 575 900 562 901 569 901 b 610 894 587 899 599 897 b 399 798 562 892 484 874 b 165 450 261 674 198 528 b 103 172 132 371 105 199 b 103 172 103 172 103 172 b 102 148 102 164 102 156 b 103 112 101 136 102 124 b 111 79 105 101 107 90 b 128 52 115 69 121 60 b 140 43 131 49 135 46 b 146 40 142 42 144 41 b 154 37 149 39 151 38 b 223 34 176 31 200 30 b 244 39 230 36 237 37 l 244 39 b 565 419 244 39 407 70 b 655 832 722 767 666 818 b 563 837 643 846 598 856 b 481 757 528 816 498 781 b 521 824 491 781 505 803 b 549 854 529 835 539 845 b 566 868 555 859 560 864 b 587 879 573 872 580 876 b 611 886 595 882 603 885 b 667 874 631 889 651 885 b 689 854 675 868 683 862 b 712 809 699 841 707 825 b 721 764 717 795 720 780 "},"1":{"ha":411,"x_min":0,"x_max":0,"o":"m 502 899 b 522 905 509 901 516 903 b 502 865 522 905 502 866 b 243 333 501 864 355 562 b 119 78 179 200 126 91 b 47 6 74 -15 105 15 b -3 -20 10 0 -3 -20 b 37 110 -3 -20 0 23 b 378 762 152 386 372 749 l 167 553 b 159 553 165 551 161 551 b 159 561 157 555 157 559 l 483 899 b 502 899 489 905 494 898 "},"2":{"ha":643,"x_min":0,"x_max":0,"o":"m 596 836 b 630 719 625 795 631 733 b 630 713 630 717 630 715 b 598 592 628 671 617 630 b 551 511 585 564 569 537 b 381 363 513 460 441 393 b -2 48 187 262 -2 48 b 212 121 -2 48 125 124 b 242 119 212 121 228 120 b 288 106 258 118 274 114 b 288 106 288 106 288 106 l 295 102 b 302 98 298 100 300 99 b 316 91 306 95 311 93 b 343 79 325 87 334 83 b 371 71 352 76 362 74 b 400 67 381 69 390 68 b 457 74 419 66 438 68 b 508 104 476 80 493 91 b 528 129 516 112 522 120 b 535 144 530 134 533 139 b 539 160 537 149 538 155 l 539 161 b 544 166 539 163 541 165 b 550 160 547 166 549 163 b 546 120 551 147 550 133 b 530 83 543 107 537 94 b 474 28 516 60 497 42 b 402 3 452 15 428 7 b 328 6 378 0 353 1 b 292 15 316 8 304 11 b 275 21 286 16 281 18 b 266 24 272 22 269 23 l 262 26 l 259 27 b 204 40 241 34 222 38 b 53 34 153 45 103 43 b -67 0 8 25 -67 0 b 2 106 -67 0 -29 67 b 26 136 10 116 18 127 b 75 191 42 155 58 174 b 87 205 79 196 83 200 l 100 218 b 125 243 108 226 117 235 b 231 341 159 277 194 310 b 259 363 240 349 249 356 b 287 385 268 371 278 378 b 316 406 297 392 307 399 l 331 415 l 345 424 b 397 462 362 436 380 449 b 445 503 413 475 430 489 b 526 597 476 531 505 562 b 553 652 537 615 546 633 b 565 710 560 671 564 690 b 565 724 565 715 565 720 b 564 738 565 729 565 733 b 558 766 563 748 561 757 b 531 817 552 785 543 802 b 485 850 518 832 503 843 b 478 852 482 851 480 852 b 471 855 476 853 473 854 b 464 856 469 855 466 856 b 456 858 461 857 459 857 b 449 859 454 858 452 859 l 442 859 b 427 859 437 860 432 859 b 372 840 408 857 389 850 b 347 821 363 834 355 828 b 325 798 339 814 332 806 b 292 741 311 781 300 761 b 284 708 289 730 286 719 b 281 675 282 697 281 686 b 298 613 282 653 288 632 b 340 565 309 594 323 578 b 347 551 344 561 347 556 b 340 537 347 545 344 540 b 323 537 335 533 328 533 l 323 537 l 323 537 b 274 595 303 553 286 573 b 258 633 267 607 262 620 b 252 673 255 646 252 660 b 254 714 251 687 252 701 b 263 754 256 728 259 741 b 279 790 268 766 273 778 b 300 823 285 801 292 812 b 354 875 315 843 333 861 b 423 903 375 889 398 899 b 442 905 429 904 435 904 l 451 905 b 460 905 454 905 457 905 b 469 904 463 905 466 904 b 474 904 470 904 472 904 l 478 903 b 487 902 481 903 484 902 b 497 900 490 901 493 901 b 567 866 522 894 546 882 b 596 836 578 857 588 847 "},"3":{"ha":621,"x_min":0,"x_max":0,"o":"m 670 853 b 670 844 670 850 670 847 b 669 840 669 843 669 841 b 669 840 669 840 669 840 l 629 801 b 628 800 629 801 628 800 b 611 784 622 795 617 790 l 587 759 l 562 733 l 513 682 b 414 579 481 647 448 613 b 354 523 401 565 354 523 b 472 446 354 523 437 516 b 479 259 507 376 501 316 b 365 81 458 202 417 131 b 273 22 338 53 304 35 b 108 6 221 0 163 -6 b 96 8 104 6 100 7 b 59 27 83 13 70 19 b 27 56 47 34 36 44 b 7 92 18 67 11 79 b -4 169 -3 118 -5 144 b 9 242 -2 194 2 218 b 20 276 12 254 16 265 b 33 310 24 288 28 299 b 40 313 34 312 37 314 b 43 310 41 313 43 312 b 44 306 44 309 44 307 l 44 306 b 29 238 37 283 32 261 b 26 170 26 215 25 192 b 43 108 28 147 33 126 b 84 69 52 91 66 78 b 141 58 101 61 121 58 b 173 59 152 58 163 58 b 181 60 176 60 178 60 b 189 62 184 61 187 61 b 204 64 194 62 199 63 b 259 88 223 69 242 77 b 309 126 277 99 294 111 b 350 173 324 140 337 156 b 382 225 362 189 373 207 b 395 252 387 234 391 243 b 406 280 399 261 402 271 b 420 336 412 298 417 317 b 421 391 424 354 424 373 b 413 417 419 400 416 409 b 411 422 412 419 412 421 b 410 427 411 424 410 425 b 404 436 408 430 406 433 b 386 456 399 443 393 450 b 360 472 378 462 369 467 b 318 487 347 479 333 483 l 319 488 b 278 460 319 488 300 475 b 234 458 255 446 240 455 b 231 514 229 460 210 480 b 290 536 252 548 290 536 l 310 558 b 323 570 315 562 319 566 b 373 620 340 586 357 603 b 471 722 406 653 439 688 l 548 803 b 531 807 542 804 536 806 b 515 812 525 809 520 810 b 436 818 489 817 462 819 b 418 817 429 818 423 817 b 411 816 415 816 413 816 b 409 815 410 816 410 816 b 409 815 409 815 409 815 b 409 815 409 815 409 815 b 409 815 409 815 410 815 b 390 812 402 814 396 813 b 370 809 383 811 377 810 b 328 806 357 808 343 807 b 304 807 320 806 312 806 b 278 812 296 808 287 810 b 230 832 261 816 243 822 b 212 848 223 837 217 842 b 197 866 206 854 202 860 b 198 873 196 868 196 871 b 205 874 200 875 203 876 l 205 874 b 224 866 211 871 217 868 b 242 861 230 864 236 862 b 258 861 248 861 253 861 b 351 888 290 860 312 875 b 446 894 377 897 412 897 b 621 853 522 882 574 850 b 666 863 637 854 652 858 b 670 853 668 860 669 857 "},"4":{"ha":632,"x_min":0,"x_max":0,"o":"m 724 857 b 472 339 724 857 581 563 b 435 262 459 312 446 286 b 456 262 442 261 449 261 b 503 268 472 262 488 264 b 525 278 511 270 518 274 b 542 295 532 282 538 288 b 528 274 539 287 534 280 b 517 266 524 271 521 269 b 506 260 514 264 510 262 b 456 247 490 253 473 249 b 426 245 446 246 436 245 b 351 90 386 161 356 100 b 281 20 307 0 337 29 b 232 -5 244 15 232 -5 b 271 121 232 -5 235 36 b 328 248 288 162 307 205 b 309 249 322 248 315 249 b 262 255 293 251 277 253 l 250 257 l 239 259 l 215 263 b 192 266 208 264 200 265 b 169 269 184 267 177 268 b 145 270 161 269 153 270 b 121 268 137 269 129 269 b 78 262 107 267 92 264 b 56 241 71 255 63 248 b 38 225 50 236 44 231 b 28 217 34 222 31 220 l 26 216 b 25 215 26 216 25 215 b 24 215 25 215 24 215 b 20 213 23 214 21 214 b 18 213 17 213 19 213 l 18 213 l 17 213 l 16 213 b 10 214 14 213 12 213 b 5 214 8 214 7 214 b -2 217 3 214 0 215 b -6 222 -4 218 -5 220 b -7 227 -6 223 -7 225 b -6 233 -7 229 -7 231 b -3 240 -5 235 -4 238 b -1 243 -2 241 -2 242 l 1 246 b 12 256 4 250 8 254 b 24 263 16 259 20 261 b 56 274 34 267 45 271 l 74 292 l 143 359 b 414 632 233 450 324 541 l 656 878 b 716 892 672 893 695 899 b 725 891 719 891 722 891 b 744 896 731 892 738 894 b 724 857 744 896 725 859 m 13 227 b 13 227 13 227 13 227 m 339 270 b 604 757 453 506 599 747 l 605 764 l 579 739 l 441 605 b 162 339 348 516 255 428 b 101 282 142 320 121 301 b 120 285 107 283 113 284 b 168 287 136 286 152 287 b 264 280 200 286 232 284 l 339 270 "},"5":{"ha":647,"x_min":0,"x_max":0,"o":"m 790 874 b 790 866 792 872 792 869 b 776 848 786 860 781 854 b 756 830 770 841 763 835 b 705 810 742 820 723 814 b 678 804 696 808 686 806 b 652 803 669 803 661 803 b 608 807 636 804 622 805 b 587 810 601 807 594 809 b 567 813 580 810 574 811 b 567 813 566 813 567 813 b 567 813 567 813 567 813 b 567 813 567 813 567 813 b 565 813 566 813 565 813 b 558 814 563 814 560 814 b 539 816 552 815 545 816 b 466 815 516 817 491 816 b 466 815 466 815 466 815 l 461 806 b 448 782 457 798 453 790 l 423 736 b 372 644 406 706 390 675 l 344 595 l 330 573 b 504 536 330 573 432 605 b 567 291 562 480 589 373 b 392 43 530 150 432 75 b 308 4 369 26 338 13 b 262 -3 291 1 275 -1 b 168 7 232 -7 198 -2 b 162 9 166 7 164 8 b 134 20 152 12 143 16 b 85 58 116 30 99 42 b 55 110 72 73 61 91 b 46 167 49 129 46 148 b 51 222 45 186 47 204 b 64 274 54 240 59 257 b 74 300 67 283 70 291 b 85 324 77 308 81 316 b 91 327 86 326 88 328 b 90 127 62 256 61 182 b 92 125 91 127 91 126 b 117 92 98 112 106 101 b 213 46 140 69 172 52 b 424 185 305 32 375 101 b 447 224 432 197 440 210 b 465 265 454 237 460 251 b 479 306 471 279 475 292 b 483 322 481 312 482 317 b 360 549 516 436 478 539 b 219 488 321 552 262 518 b 209 483 216 486 213 484 b 209 486 209 484 209 485 l 253 565 b 404 835 256 570 400 828 l 410 847 b 418 858 412 851 415 854 l 419 864 b 420 864 419 864 419 864 l 421 865 l 423 864 b 571 896 423 864 503 902 b 740 858 638 890 677 864 b 790 874 752 857 771 865 "},"6":{"ha":596,"x_min":0,"x_max":0,"o":"m 669 736 b 670 734 670 736 670 735 b 648 708 668 723 660 713 b 615 714 637 704 625 706 b 604 745 606 721 602 733 b 604 745 604 745 604 745 l 604 746 b 605 748 605 747 605 747 b 607 752 606 749 606 750 b 609 759 608 754 608 757 b 612 775 611 764 612 770 b 612 807 614 786 614 796 b 602 834 611 817 607 826 b 527 872 599 839 569 877 b 313 714 494 867 446 863 b 189 507 231 622 189 507 b 268 569 189 507 232 549 b 342 602 291 582 314 595 b 385 609 356 606 370 608 b 407 609 392 610 400 610 b 452 600 423 608 438 605 l 458 598 b 464 596 460 598 462 597 b 476 590 468 594 472 593 b 518 555 492 582 507 570 b 541 509 528 541 536 525 b 551 462 546 494 549 478 b 546 376 553 434 551 405 b 526 298 542 350 535 323 b 494 226 517 273 507 249 b 452 160 482 203 468 181 b 338 49 420 117 382 80 b 268 10 316 33 293 20 b 189 -6 243 0 216 -5 b 148 0 175 -6 161 -4 b 128 6 141 1 135 4 b 118 10 125 7 122 9 b 108 16 115 12 111 14 b 77 49 96 25 85 36 b 59 87 70 61 64 74 b 43 166 51 113 46 139 b 41 245 41 192 40 218 b 63 399 43 297 50 348 b 68 418 65 405 67 411 b 74 436 70 424 72 430 b 80 455 76 442 78 449 b 87 473 83 461 85 467 b 95 492 90 479 92 486 l 99 501 l 103 509 b 119 543 108 521 113 532 b 199 673 142 588 169 632 b 302 790 228 716 263 755 b 365 838 321 808 342 824 b 399 858 376 845 388 852 b 417 867 405 861 411 864 b 427 871 420 868 424 870 b 436 875 430 872 433 873 l 445 878 b 455 881 449 879 452 880 b 464 884 458 882 461 883 b 474 887 468 885 471 886 b 513 894 487 890 500 893 b 554 896 527 896 540 897 b 597 885 569 895 583 891 b 632 857 610 879 623 869 b 653 818 641 845 648 832 b 664 778 658 805 661 791 b 667 757 665 771 666 764 b 669 746 668 753 668 750 l 669 741 l 669 738 l 669 736 m 190 495 b 128 338 182 490 158 462 b 149 35 65 83 124 42 b 180 30 159 32 169 30 b 189 29 183 29 186 29 b 202 30 194 29 198 29 b 233 34 213 30 223 32 b 449 323 289 45 385 137 b 413 544 499 470 446 525 b 343 563 399 554 378 561 b 201 503 282 565 221 520 b 190 495 197 501 194 498 "},"7":{"ha":508,"x_min":0,"x_max":0,"o":"m 716 856 b 716 848 716 854 716 851 b 714 844 715 847 715 845 b 713 841 714 843 714 842 b 712 840 713 841 712 840 l 712 839 l 710 836 l 706 831 b 699 820 704 827 701 824 b 355 471 689 805 524 683 b 90 56 252 342 123 122 b 40 39 71 49 51 45 b 5 1 4 18 6 1 l 5 1 b -4 23 -2 6 -5 14 b 33 120 5 68 33 120 b 55 166 40 135 48 151 b 79 212 63 181 71 196 b 187 387 112 272 148 331 b 250 470 207 415 228 443 b 267 490 256 477 261 483 b 284 510 272 497 278 503 b 321 549 296 523 308 536 b 396 620 345 574 371 597 b 473 688 422 643 447 666 b 551 750 499 709 526 729 b 570 765 558 755 564 760 l 662 834 b 443 810 662 834 575 797 b 413 812 431 811 422 812 b 372 816 399 814 386 816 b 330 813 358 816 343 815 b 308 808 322 812 315 810 b 298 805 305 807 301 806 b 287 802 294 804 291 803 b 204 755 257 790 229 775 l 204 754 b 197 754 202 753 199 753 b 196 756 197 755 196 755 b 300 875 216 792 254 851 b 509 886 358 905 460 894 l 522 883 b 567 874 537 880 552 877 b 614 870 583 872 599 870 b 662 873 631 869 647 871 b 675 875 667 874 671 875 l 682 877 b 687 877 683 877 685 877 b 690 877 688 877 689 877 l 692 877 b 693 877 692 877 693 877 b 696 877 694 877 695 877 b 699 876 697 877 698 877 b 704 874 701 876 703 875 b 716 856 711 870 715 864 "},"8":{"ha":592,"x_min":0,"x_max":0,"o":"m 434 506 b 427 505 431 506 429 505 b 418 504 424 505 421 504 b 464 402 434 471 450 437 b 477 363 469 389 473 376 b 483 343 479 356 482 349 b 489 322 485 336 487 329 b 496 278 492 307 494 293 b 496 230 497 262 498 246 b 492 205 495 222 494 214 b 485 183 490 198 488 190 b 466 142 480 169 473 155 b 441 105 459 129 450 116 b 410 73 431 94 421 83 b 375 48 399 64 388 55 b 357 37 369 44 363 40 b 338 28 351 34 344 30 b 257 5 312 16 285 9 b 173 8 229 1 201 2 b 132 21 159 11 145 15 b 94 45 119 28 106 36 b 39 116 71 64 52 88 b 15 202 26 143 18 172 b 20 288 12 231 14 260 b 24 309 21 296 22 302 b 27 320 25 313 26 316 b 30 330 28 323 29 327 b 48 372 35 345 41 359 b 103 443 62 399 81 423 b 173 493 124 463 147 479 b 250 522 197 506 223 515 b 279 528 260 525 269 527 b 303 534 279 529 303 534 b 270 699 303 534 258 633 b 399 880 292 823 355 861 l 401 881 b 442 892 414 886 428 889 b 484 898 456 895 470 897 b 507 898 492 898 499 898 b 518 897 510 898 514 897 b 528 895 521 896 525 896 b 534 894 530 895 532 894 b 638 770 586 871 630 834 b 434 506 663 582 468 516 m 399 140 b 402 325 435 201 410 294 b 316 514 394 354 316 514 b 265 489 316 514 273 495 b 263 488 264 489 264 488 b 172 406 228 465 198 438 b 160 391 168 401 164 396 b 127 334 147 373 136 354 b 125 330 126 333 126 331 b 98 228 111 298 102 263 b 253 28 77 30 193 22 b 399 140 313 33 374 97 m 398 546 b 408 525 402 539 405 532 b 495 561 441 527 471 540 b 575 715 534 597 569 657 b 528 853 580 766 572 828 b 454 852 495 872 465 857 b 425 832 444 847 434 840 b 384 780 408 817 395 798 b 370 753 379 771 374 762 b 359 725 365 744 362 735 b 398 546 353 706 330 660 "},"9":{"ha":594,"x_min":0,"x_max":0,"o":"m 620 721 b 619 641 621 694 621 668 b 592 487 615 589 606 537 b 586 468 590 480 588 474 b 580 449 584 462 582 455 b 573 431 578 443 576 437 b 566 412 571 424 568 418 b 558 394 563 406 561 400 l 554 385 l 550 377 b 533 343 544 365 539 354 b 451 214 509 298 482 255 b 348 100 421 173 386 134 b 285 54 328 83 307 68 b 251 35 274 47 263 41 b 233 27 245 32 239 30 b 224 23 231 26 227 24 b 215 20 221 22 218 21 l 206 17 b 197 14 203 16 200 15 b 188 11 194 13 191 12 b 178 9 185 10 182 10 b 141 3 166 6 153 4 b 101 2 127 1 114 1 b 61 15 87 4 73 8 b 27 45 47 22 36 32 b 9 84 19 57 13 70 b 0 126 5 98 2 112 b -3 147 -1 133 -2 140 b -4 158 -3 150 -3 154 l -4 163 l -4 166 l -4 168 b -4 170 -4 168 -4 169 b 9 191 -3 178 2 186 b 34 196 16 196 25 198 b 59 156 52 192 63 174 b 59 156 59 157 59 156 l 58 155 b 57 154 58 155 58 154 b 56 150 57 153 56 151 b 53 142 55 148 54 145 b 49 126 51 137 50 132 b 48 94 47 116 47 105 b 57 66 49 84 52 75 b 128 26 60 61 87 22 b 339 178 160 29 206 32 b 467 382 422 267 467 382 b 389 322 467 382 424 341 b 316 291 366 310 343 298 b 275 286 303 288 289 286 b 253 287 267 285 260 286 b 231 290 246 287 238 289 b 210 297 224 292 217 294 l 205 299 b 199 302 203 300 201 301 b 187 308 195 304 191 306 b 149 345 172 317 159 330 b 128 393 139 360 132 376 b 121 440 124 408 121 424 b 128 527 119 469 122 498 b 150 605 133 553 141 579 b 184 676 159 630 171 653 b 227 741 196 699 211 721 b 340 849 259 783 297 819 b 409 886 362 864 385 876 b 486 899 434 895 460 900 b 525 892 499 898 513 896 b 544 885 532 890 538 888 b 553 880 547 884 550 882 b 563 874 557 879 560 876 b 592 840 575 865 585 853 b 607 801 598 828 604 814 b 620 721 614 774 618 748 m 532 550 b 523 856 602 805 547 849 b 493 863 514 860 504 862 b 484 864 490 863 487 864 b 472 864 480 864 476 864 b 442 861 462 863 452 862 b 223 577 388 851 292 762 b 250 352 170 431 218 373 b 316 331 263 342 283 334 b 456 386 375 327 435 370 b 466 394 459 389 463 391 b 532 550 474 399 498 426 "},"\u0000":{"ha":0,"x_min":0,"x_max":0,"o":""},"\n":{"ha":0,"x_min":0,"x_max":0,"o":""},"\r":{"ha":0,"x_min":0,"x_max":0,"o":""}," ":{"ha":218,"x_min":0,"x_max":0,"o":""},"!":{"ha":461,"x_min":0,"x_max":0,"o":"m 576 1048 b 586 1021 585 1042 589 1031 b 549 909 576 983 564 946 b 502 802 535 873 519 837 b 446 698 485 767 466 732 l 430 673 l 422 661 l 415 649 b 383 600 404 632 394 616 b 255 410 341 536 298 472 b 194 315 234 378 213 347 b 139 215 175 283 157 249 l 139 215 b 117 206 135 207 125 203 b 105 227 108 209 103 218 b 137 342 112 266 123 305 l 139 349 l 142 356 b 147 370 144 360 146 365 b 159 397 151 379 155 388 l 172 424 b 185 451 176 433 180 442 b 299 653 220 521 259 587 b 329 702 309 670 319 686 l 337 715 l 341 721 l 344 727 l 359 751 b 417 848 378 783 397 816 b 477 946 437 881 456 913 b 540 1042 497 978 518 1011 l 541 1042 b 576 1048 549 1054 565 1056 m 93 93 b 97 78 95 88 96 83 b 97 63 97 73 97 68 b 93 41 96 56 95 48 b 89 31 92 37 91 34 b 87 26 89 29 88 28 b 84 18 86 23 85 20 b 59 0 79 8 70 2 b 35 11 50 -1 41 3 b 33 13 35 11 34 12 b 33 15 33 14 33 14 b 31 18 32 16 31 17 b 25 22 29 19 27 21 b 23 22 25 22 24 22 b 21 23 22 22 22 22 b 17 24 20 23 18 23 b 9 28 14 25 11 26 b -1 40 5 31 2 35 l -1 40 b -1 40 -1 40 -1 40 b -2 42 -1 41 -1 42 b -9 60 -5 48 -7 54 b -11 80 -11 66 -12 73 b -4 101 -10 87 -8 94 b 29 128 4 113 15 122 b 52 131 36 131 44 132 b 78 118 62 130 71 125 b 93 93 85 111 90 102 "},"\"":{"ha":322,"x_min":0,"x_max":0,"o":"m 281 1024 b 282 1006 282 1018 282 1012 b 274 955 281 983 278 975 b 273 952 274 954 273 952 b 273 950 273 951 273 951 l 273 950 l 263 912 b 181 757 232 806 189 764 b 181 758 181 757 181 758 b 219 925 214 809 219 925 b 206 953 213 933 208 943 b 205 991 203 966 202 978 l 205 993 b 217 1032 207 1006 211 1020 l 217 1032 b 227 1043 220 1036 223 1040 b 234 1048 229 1045 232 1046 b 249 1051 239 1050 244 1051 l 249 1051 b 270 1044 257 1051 264 1049 b 281 1024 276 1039 280 1032 m 130 1044 b 141 1024 136 1039 140 1032 b 142 1006 142 1018 142 1012 b 133 955 141 983 138 975 b 133 952 133 954 133 952 b 132 950 133 951 132 951 l 132 950 l 123 912 b 41 757 92 806 48 764 b 41 758 41 757 41 758 b 79 925 73 809 79 925 b 65 953 72 933 68 943 b 64 991 62 966 62 978 l 65 993 b 77 1032 67 1006 71 1020 l 77 1032 b 86 1043 79 1036 82 1040 b 94 1048 89 1045 91 1046 b 108 1051 98 1050 103 1051 l 108 1051 b 130 1044 116 1051 124 1049 "},"“":{"ha":322,"x_min":0,"x_max":0,"o":"m 281 1024 b 270 1044 280 1032 276 1039 b 249 1051 264 1049 257 1051 l 249 1051 b 234 1048 244 1051 239 1050 b 227 1043 232 1046 229 1045 b 217 1032 223 1040 220 1036 l 217 1032 b 205 993 211 1020 207 1006 l 205 991 b 206 953 202 978 203 966 b 219 925 208 943 213 933 b 181 758 219 925 214 809 b 181 757 181 758 181 757 b 263 912 189 764 232 806 l 273 950 l 273 950 b 273 952 273 951 273 951 b 274 955 273 952 274 954 b 282 1006 278 975 281 983 b 281 1024 282 1012 282 1018 m 130 1044 b 108 1051 124 1049 116 1051 l 108 1051 b 94 1048 103 1051 98 1050 b 86 1043 91 1046 89 1045 b 77 1032 82 1040 79 1036 l 77 1032 b 65 993 71 1020 67 1006 l 64 991 b 65 953 62 978 62 966 b 79 925 68 943 72 933 b 41 758 79 925 73 809 b 41 757 41 758 41 757 b 123 912 48 764 92 806 l 132 950 l 132 950 b 133 952 132 951 133 951 b 133 955 133 952 133 954 b 142 1006 138 975 141 983 b 141 1024 142 1012 142 1018 b 130 1044 140 1032 136 1039 "},"”":{"ha":322,"x_min":0,"x_max":0,"o":"m 281 1024 b 282 1006 282 1018 282 1012 b 274 955 281 983 278 975 b 273 952 274 954 273 952 b 273 950 273 951 273 951 l 273 950 l 263 912 b 181 757 232 806 189 764 b 181 758 181 757 181 758 b 219 925 214 809 219 925 b 206 953 213 933 208 943 b 205 991 203 966 202 978 l 205 993 b 217 1032 207 1006 211 1020 l 217 1032 b 227 1043 220 1036 223 1040 b 234 1048 229 1045 232 1046 b 249 1051 239 1050 244 1051 l 249 1051 b 270 1044 257 1051 264 1049 b 281 1024 276 1039 280 1032 m 130 1044 b 141 1024 136 1039 140 1032 b 142 1006 142 1018 142 1012 b 133 955 141 983 138 975 b 133 952 133 954 133 952 b 132 950 133 951 132 951 l 132 950 l 123 912 b 41 757 92 806 48 764 b 41 758 41 757 41 758 b 79 925 73 809 79 925 b 65 953 72 933 68 943 b 64 991 62 966 62 978 l 65 993 b 77 1032 67 1006 71 1020 l 77 1032 b 86 1043 79 1036 82 1040 b 94 1048 89 1045 91 1046 b 108 1051 98 1050 103 1051 l 108 1051 b 130 1044 116 1051 124 1049 "},"#":{"ha":910,"x_min":0,"x_max":0,"o":"m 718 659 l 850 659 b 748 573 841 609 798 573 l 672 573 l 579 397 l 711 397 b 609 312 702 348 659 312 l 533 312 l 428 104 b 299 13 403 54 355 19 l 455 312 l 285 312 l 165 86 b 46 11 141 42 96 13 b 41 11 44 11 42 11 l 196 312 l 68 312 b 170 397 77 361 119 397 l 242 397 l 331 573 l 203 573 b 305 659 212 623 255 659 l 377 659 l 482 864 b 613 954 508 914 557 948 b 462 658 573 874 462 658 l 633 658 l 747 881 b 861 955 769 925 813 953 b 867 955 863 955 865 955 l 869 955 m 588 573 l 418 573 l 325 397 l 498 397 "},"$":{"ha":735,"x_min":0,"x_max":0,"o":"m 590 385 b 563 252 595 351 596 318 b 491 166 545 215 513 187 l 469 149 b 441 128 460 141 451 134 l 441 128 b 357 87 414 111 386 98 b 270 66 329 77 300 70 b 210 64 250 64 230 63 l 186 20 l 109 -13 l 155 74 b 109 96 139 79 123 86 b 64 143 91 108 76 124 b 43 200 53 160 46 180 b 44 261 40 220 40 241 b 107 375 51 301 73 342 b 230 441 140 409 183 432 b 168 412 208 434 187 425 b 120 369 150 401 134 386 b 78 265 96 340 81 303 b 107 170 76 230 86 196 b 148 137 119 156 132 145 b 181 124 158 131 170 127 l 387 516 b 333 582 367 537 348 558 b 313 629 324 597 317 612 b 313 681 309 646 309 664 b 333 735 317 700 324 718 b 369 784 343 753 355 769 b 478 859 398 816 436 841 b 543 878 499 867 521 874 b 579 882 555 880 567 881 l 604 931 l 671 944 l 671 944 l 635 875 b 662 862 644 872 654 867 b 691 820 676 852 687 837 b 692 768 696 804 695 786 b 674 715 688 750 682 732 b 682 768 679 732 682 750 b 673 814 683 785 680 801 b 642 843 666 827 655 837 b 622 850 636 846 629 849 l 510 637 l 477 573 b 590 385 477 573 579 466 m 389 683 b 389 679 389 682 389 680 l 390 675 l 390 672 l 391 668 b 396 654 392 663 394 659 b 416 627 402 644 408 635 b 435 608 422 621 428 614 l 561 848 b 493 823 537 843 514 834 b 449 793 477 814 463 804 b 417 758 437 783 426 771 b 389 683 399 734 390 709 m 469 272 b 486 325 477 289 483 306 b 485 377 489 342 489 360 b 465 423 481 393 474 409 b 425 475 453 442 440 459 l 240 122 b 331 146 271 125 302 133 b 436 222 372 164 409 190 b 469 272 449 237 460 254 "},"%":{"ha":856,"x_min":0,"x_max":0,"o":"m 698 850 b 806 899 726 881 765 899 l 167 171 b 59 122 139 140 100 122 l 596 734 b 521 698 572 721 547 709 b 458 675 501 690 480 682 b 418 665 445 671 432 667 b 371 590 404 639 388 614 b 282 491 345 554 315 521 b 226 452 265 476 246 463 b 170 436 206 442 188 437 b 163 436 168 436 165 436 b 80 477 118 436 93 458 b 78 480 79 478 79 479 b 150 758 45 537 65 634 b 438 908 244 895 374 947 b 443 903 440 907 442 905 b 467 832 459 886 467 863 b 459 772 466 812 464 792 b 440 712 454 752 448 731 b 429 688 436 704 433 696 b 448 693 436 690 442 691 b 511 714 469 699 490 706 b 625 767 550 730 588 747 l 698 850 m 302 600 b 342 662 317 620 330 641 b 330 665 338 663 334 664 b 308 677 322 668 315 672 b 290 697 301 683 295 689 b 280 718 286 703 282 710 b 275 757 276 731 275 744 b 286 819 276 778 280 799 b 232 750 266 797 248 774 b 175 650 210 718 192 685 b 146 573 163 626 153 600 b 136 509 140 552 136 531 b 136 503 136 507 136 505 b 158 483 137 491 147 483 b 159 483 158 483 158 483 b 191 493 170 484 181 488 b 230 520 205 500 218 509 b 302 600 257 544 281 571 m 398 786 b 411 854 406 813 411 836 l 411 855 b 385 880 410 869 399 880 b 379 880 383 880 381 880 b 343 867 368 879 356 875 b 335 862 340 865 338 864 b 325 841 332 855 328 848 b 314 812 321 831 317 822 b 300 750 306 792 302 771 b 303 718 299 739 300 729 b 319 693 305 708 311 699 b 349 681 328 687 338 683 b 353 681 350 681 351 681 b 363 702 356 688 360 695 b 398 786 377 729 389 757 m 792 567 b 815 496 808 550 815 527 b 808 436 815 476 813 456 b 789 375 803 415 797 395 b 720 254 771 332 748 291 b 630 155 694 217 664 184 b 574 116 613 140 595 127 b 519 100 555 106 537 101 b 511 99 516 99 514 99 b 507 100 510 99 508 99 b 417 178 462 101 425 134 b 413 211 414 189 413 200 b 482 401 413 262 431 325 b 778 575 590 563 697 590 b 792 567 783 574 788 571 l 792 567 m 712 365 b 747 450 726 393 738 421 b 759 518 755 476 759 499 b 754 540 759 528 757 536 b 750 541 753 540 751 541 l 750 541 b 738 535 746 539 742 537 l 727 528 b 685 496 712 518 698 507 b 676 487 682 493 679 490 l 666 478 l 662 473 l 657 468 l 649 458 b 632 439 643 452 638 445 l 617 418 l 617 418 b 608 417 614 415 610 415 b 605 425 605 419 603 422 l 618 447 b 633 469 623 454 628 462 l 641 479 l 645 484 l 650 490 l 658 500 b 667 509 661 503 664 506 b 682 524 672 515 677 520 b 647 495 670 516 658 506 b 581 413 622 470 600 443 b 524 314 559 382 540 349 b 495 237 512 289 502 264 b 485 172 488 216 485 194 b 485 167 485 170 485 168 b 507 147 486 155 496 146 l 507 147 b 540 157 519 148 530 151 b 579 183 554 164 567 173 b 651 264 606 207 630 235 b 712 365 674 296 695 330 "},"&":{"ha":1317,"x_min":0,"x_max":0,"o":"m 1257 265 b 1276 238 1262 263 1273 256 b 980 15 1284 185 1212 76 b 860 -1 941 5 901 -1 b 661 61 786 -1 719 20 b 526 236 583 118 543 195 b 401 143 488 200 446 169 b 227 97 348 113 288 96 b 85 149 169 97 121 114 b 44 289 48 185 34 232 b 164 483 58 373 99 438 b 367 589 226 527 295 563 l 410 604 b 445 615 422 608 433 612 b 444 650 444 627 444 638 b 449 690 445 664 447 677 b 456 720 451 701 453 711 b 466 750 459 730 462 740 b 550 888 484 801 512 848 b 693 952 589 930 637 952 b 781 914 732 952 761 939 b 799 820 799 890 805 858 b 722 695 790 770 764 728 b 590 618 681 664 637 638 b 535 596 571 610 553 603 b 492 580 519 590 505 585 b 499 520 493 560 495 540 b 520 433 505 492 512 463 l 520 432 b 524 418 521 427 522 423 b 528 403 525 413 527 408 b 544 345 533 383 538 364 b 550 322 546 337 548 329 b 564 336 555 326 560 331 b 595 369 574 347 584 357 b 609 384 600 374 605 379 b 624 400 614 390 619 395 b 696 479 649 427 673 453 b 757 548 719 505 739 528 b 788 584 766 559 777 571 b 825 623 800 597 812 610 b 926 707 856 653 890 682 b 1036 754 963 734 1000 750 b 1046 756 1039 755 1043 756 l 1054 756 b 1102 738 1074 756 1090 750 l 1102 738 b 1116 687 1115 725 1120 708 b 1092 642 1113 668 1105 653 b 1044 626 1078 631 1061 625 b 1009 640 1026 626 1015 634 b 995 663 1003 647 998 654 b 992 669 994 665 993 667 l 992 669 l 991 671 b 987 679 990 674 989 677 b 987 679 987 679 987 679 b 947 661 984 679 975 678 b 880 609 923 646 900 628 b 846 579 868 599 857 589 b 816 546 835 569 825 558 l 814 545 l 805 534 b 794 522 801 530 798 526 b 755 478 780 507 767 492 b 715 435 742 464 728 450 b 636 349 689 406 663 378 b 564 274 611 322 586 297 b 757 45 575 239 638 97 b 948 45 815 19 880 19 b 1222 255 1034 76 1126 147 b 1257 265 1236 271 1249 269 m 145 255 b 157 169 139 221 143 192 b 222 139 165 156 180 139 b 380 182 276 139 329 154 b 513 284 428 210 473 244 b 505 308 511 292 508 300 b 497 336 502 317 499 326 b 483 391 493 354 488 373 b 482 397 482 393 482 395 b 479 403 481 399 480 401 l 479 403 l 479 404 b 469 451 475 420 472 436 b 461 492 467 465 464 479 b 448 564 456 516 451 540 b 261 454 381 537 318 499 b 145 255 198 404 159 337 m 700 908 b 589 860 659 908 622 891 b 513 752 557 829 531 792 b 503 723 510 742 506 732 b 496 694 500 713 498 704 l 492 672 b 490 651 491 665 490 658 l 490 650 b 488 629 489 643 488 636 b 511 637 496 632 503 634 b 557 653 526 642 542 647 b 684 721 602 670 645 693 b 755 834 722 747 746 786 b 745 889 759 856 755 875 b 700 908 742 893 732 908 "},"'":{"ha":199,"x_min":0,"x_max":0,"o":"m 158 692 b 159 674 159 686 159 680 b 150 623 158 651 155 643 b 150 619 150 622 150 620 b 149 618 150 619 149 618 l 149 618 l 140 580 b 58 425 109 474 65 432 b 58 426 58 425 58 425 b 96 592 90 477 96 592 b 82 621 89 601 85 611 b 81 659 79 633 79 646 l 82 661 b 94 700 84 674 88 687 l 94 700 b 103 711 96 704 99 708 b 111 716 106 713 108 714 b 125 719 115 718 120 719 l 125 719 b 147 712 133 719 141 717 b 158 692 153 706 157 699 "},"‘":{"ha":199,"x_min":0,"x_max":0,"o":"m 158 692 b 147 712 157 699 153 706 b 125 719 141 717 133 719 l 125 719 b 111 716 120 719 115 718 b 103 711 108 714 106 713 b 94 700 99 708 96 704 l 94 700 b 82 661 88 687 84 674 l 81 659 b 82 621 79 646 79 633 b 96 592 85 611 89 601 b 58 426 96 592 90 477 b 58 425 58 425 58 425 b 140 580 65 432 109 474 l 149 618 l 149 618 b 150 619 149 618 150 619 b 150 623 150 620 150 622 b 159 674 155 643 158 651 b 158 692 159 680 159 686 "},"’":{"ha":199,"x_min":0,"x_max":0,"o":"m 158 692 b 159 674 159 686 159 680 b 150 623 158 651 155 643 b 150 619 150 622 150 620 b 149 618 150 619 149 618 l 149 618 l 140 580 b 58 425 109 474 65 432 b 58 426 58 425 58 425 b 96 592 90 477 96 592 b 82 621 89 601 85 611 b 81 659 79 633 79 646 l 82 661 b 94 700 84 674 88 687 l 94 700 b 103 711 96 704 99 708 b 111 716 106 713 108 714 b 125 719 115 718 120 719 l 125 719 b 147 712 133 719 141 717 b 158 692 153 706 157 699 "},"(":{"ha":551,"x_min":0,"x_max":0,"o":"m 610 1099 b 618 1086 614 1096 617 1091 l 618 1085 b 616 1079 618 1082 618 1080 b 605 1071 613 1075 609 1073 b 573 1054 599 1068 588 1062 b 523 1021 556 1044 539 1033 b 472 981 506 1009 489 995 b 258 730 394 916 322 831 b 132 417 193 629 151 524 b 122 322 127 386 124 354 b 128 230 121 291 123 261 b 150 143 133 196 140 167 b 181 84 159 122 169 102 l 181 83 b 207 47 189 70 197 58 b 223 23 218 34 222 28 b 222 17 223 20 223 18 l 222 16 b 214 14 220 15 217 14 b 185 30 206 14 195 22 b 146 74 176 38 163 53 b 108 131 132 92 119 111 b 79 184 97 149 87 167 l 79 184 b 59 244 71 203 64 223 b 46 307 54 263 50 285 l 46 308 b 41 357 44 324 42 340 b 42 407 40 373 40 390 b 185 770 48 530 96 653 b 529 1074 274 887 390 989 l 531 1075 b 535 1077 532 1075 534 1076 b 539 1080 537 1078 538 1079 l 539 1081 l 540 1081 b 572 1098 552 1088 562 1094 b 594 1106 587 1106 591 1106 b 610 1099 600 1106 606 1104 l 610 1099 "},")":{"ha":658,"x_min":0,"x_max":0,"o":"m 513 1046 b 551 989 526 1028 539 1009 b 579 937 562 971 571 954 l 580 936 b 600 876 588 917 595 897 b 612 813 605 856 609 835 b 612 813 612 813 612 813 l 613 812 b 613 812 613 812 613 812 b 618 762 615 795 617 779 b 617 712 619 746 618 729 b 474 350 611 589 562 467 b 129 46 385 233 269 131 l 128 46 b 124 43 127 45 125 44 b 120 40 122 42 121 41 l 119 39 l 119 39 b 87 22 107 32 96 27 b 65 14 72 15 68 14 b 41 34 54 15 44 23 l 41 36 b 43 42 40 38 41 40 b 54 49 46 45 50 47 b 86 67 60 52 70 58 b 136 99 103 76 120 87 b 187 139 153 111 170 125 b 401 389 265 204 337 289 b 527 702 466 490 508 595 b 536 797 532 733 535 765 b 531 890 538 828 536 859 b 508 977 526 924 518 953 b 479 1037 500 998 490 1018 b 452 1073 471 1050 462 1062 b 436 1098 441 1086 437 1093 b 439 1105 435 1100 436 1103 b 445 1106 441 1106 443 1106 b 473 1090 453 1106 463 1098 b 513 1046 483 1082 496 1067 "},"*":{"ha":435,"x_min":0,"x_max":0,"o":"m 382 1011 b 391 998 386 1008 389 1003 b 393 992 392 996 392 994 b 393 984 393 989 394 987 b 382 963 392 976 388 969 b 355 951 377 958 368 954 b 308 941 344 948 328 945 b 248 927 293 938 273 933 b 313 881 272 911 294 896 b 346 840 338 861 348 850 b 335 817 345 831 341 823 b 309 807 328 810 319 807 b 275 836 295 807 283 823 b 227 898 266 848 250 869 b 197 782 213 833 203 795 b 168 758 189 766 180 758 b 145 770 159 758 150 762 b 141 792 141 776 139 784 b 150 822 143 802 146 812 b 167 861 155 834 161 847 l 167 862 b 169 865 168 863 169 864 b 170 868 170 866 170 867 l 170 869 l 171 869 b 182 896 175 879 178 887 b 150 879 172 891 161 885 l 150 879 b 145 877 148 878 146 878 b 144 877 144 877 144 877 l 143 876 l 143 876 b 98 855 127 868 112 861 b 68 845 79 846 72 845 l 52 845 l 53 850 b 46 859 50 853 48 856 b 41 878 42 865 41 871 l 41 879 l 41 882 b 48 895 42 887 44 891 b 63 904 52 899 58 902 b 112 921 74 909 90 915 b 181 939 130 925 153 932 b 118 987 151 962 130 978 b 91 1019 103 999 94 1009 b 90 1026 90 1021 90 1024 l 91 1030 b 101 1050 92 1038 96 1044 b 121 1058 106 1055 113 1058 b 129 1057 123 1058 126 1058 b 136 1055 131 1057 134 1056 b 166 1023 146 1050 155 1040 b 207 969 174 1012 188 993 l 230 1066 b 241 1092 233 1078 236 1086 b 264 1101 247 1098 255 1101 b 291 1089 279 1101 287 1094 b 297 1067 296 1083 298 1075 b 282 1033 296 1063 294 1055 b 249 967 275 1021 264 999 b 273 978 257 970 265 974 l 275 979 b 279 981 276 979 277 980 b 286 984 281 982 283 983 b 332 1007 302 992 318 1000 b 365 1018 352 1017 360 1018 b 382 1011 372 1018 377 1016 "},"+":{"ha":454,"x_min":0,"x_max":0,"o":"m 413 438 b 326 382 398 404 364 382 l 245 382 l 204 290 b 119 235 190 256 156 235 l 184 382 l 41 382 b 127 438 56 416 90 438 l 209 438 l 249 530 b 334 585 264 564 297 585 l 270 438 "},",":{"ha":332,"x_min":0,"x_max":0,"o":"m 280 99 b 290 67 289 91 292 80 l 290 67 l 290 66 l 290 65 b 284 46 289 59 287 52 b 275 27 281 40 278 34 l 274 27 b 221 -30 259 6 241 -13 b 151 -78 199 -48 176 -64 b 103 -99 136 -86 119 -93 b 61 -108 86 -105 73 -108 b 47 -104 56 -108 51 -107 b 41 -88 43 -100 40 -94 b 45 -81 41 -85 43 -83 b 51 -77 47 -79 48 -78 l 51 -77 b 63 -74 54 -76 58 -75 b 83 -67 67 -73 74 -71 b 155 -29 117 -55 141 -42 b 183 25 168 -16 178 2 b 209 89 191 55 199 76 b 251 109 219 102 235 109 b 280 99 262 109 272 105 "},"-":{"ha":375,"x_min":0,"x_max":0,"o":"m 41 442 b 139 503 59 479 97 503 l 335 503 b 236 442 317 466 278 442 l 41 442 "},".":{"ha":240,"x_min":0,"x_max":0,"o":"m 132 96 b 141 64 140 88 143 77 b 122 24 138 47 131 33 b 79 8 112 13 98 8 b 49 19 66 8 56 12 b 42 55 39 29 40 44 b 59 93 44 69 50 82 b 99 110 68 104 81 110 l 100 110 b 132 96 114 109 125 104 l 132 96 "},"/":{"ha":478,"x_min":0,"x_max":0,"o":"m 615 961 l 61 11 l -4 11 l 551 961 "},":":{"ha":279,"x_min":0,"x_max":0,"o":"m 118 212 b 138 180 128 205 135 193 b 133 140 141 163 139 149 b 95 124 127 130 114 124 b 61 135 83 124 71 128 b 42 171 48 146 44 160 b 46 209 39 186 41 199 b 80 226 51 220 62 226 l 80 226 b 118 212 94 225 107 221 l 118 212 m 238 415 b 233 374 241 398 239 384 b 196 358 227 364 215 358 b 161 370 183 358 171 362 b 142 406 151 379 145 390 b 146 444 140 421 141 434 b 174 460 151 453 160 458 l 173 462 l 181 461 b 218 447 194 460 207 456 b 238 415 229 440 236 428 "},";":{"ha":379,"x_min":0,"x_max":0,"o":"m 236 181 b 237 163 237 175 238 169 b 234 144 237 156 236 150 l 234 143 b 201 86 228 124 217 105 b 147 39 185 68 167 52 b 107 17 135 30 121 23 b 68 8 94 11 81 8 b 53 12 63 8 57 9 b 41 28 47 15 43 21 b 42 35 40 30 41 33 b 47 39 44 37 45 38 l 47 39 b 58 42 50 40 53 41 b 76 49 64 44 70 46 b 134 87 106 61 125 74 b 144 141 143 101 146 119 b 148 205 141 172 142 192 b 182 225 153 218 165 225 b 215 215 194 225 205 221 b 236 183 226 207 234 196 l 236 181 m 337 415 b 332 374 340 398 338 384 b 295 358 326 364 314 358 b 260 370 282 358 270 362 b 241 406 250 379 244 390 b 245 444 239 421 240 434 b 273 460 250 453 259 458 l 272 462 l 280 461 b 317 447 293 460 306 456 b 337 415 328 440 335 428 "},"<":{"ha":463,"x_min":0,"x_max":0,"o":"m 411 556 l 120 428 l 366 300 l 357 245 l 41 408 l 49 456 l 422 619 "},"=":{"ha":546,"x_min":0,"x_max":0,"o":"m 76 318 b 163 374 92 352 126 374 l 449 374 b 362 318 434 340 400 318 l 76 318 m 505 502 b 418 446 490 468 456 446 l 133 446 b 219 502 148 480 182 502 "},">":{"ha":463,"x_min":0,"x_max":0,"o":"m 422 452 l 414 404 l 41 241 l 52 304 l 343 432 l 96 560 l 106 614 "},"?":{"ha":550,"x_min":0,"x_max":0,"o":"m 703 880 b 704 864 704 874 704 869 b 703 848 704 859 704 853 b 702 833 703 843 703 838 b 663 722 697 792 682 755 b 633 676 654 706 644 691 b 600 635 622 662 611 648 b 530 558 578 608 555 583 b 493 523 518 546 505 534 b 454 489 480 511 467 500 b 375 426 428 467 401 446 l 335 396 b 297 366 322 386 310 376 b 233 302 273 346 250 325 b 201 221 215 278 204 250 l 201 221 b 182 205 199 212 191 205 b 164 221 173 205 165 212 b 163 249 163 230 163 240 b 166 277 163 258 164 268 b 185 330 170 296 176 314 b 198 355 189 339 193 347 b 214 377 203 363 209 370 b 249 418 225 391 236 405 b 322 489 273 443 297 466 b 393 556 346 511 370 534 b 522 698 439 601 483 648 b 551 736 532 711 542 723 b 576 773 560 748 568 760 b 606 848 590 798 601 823 b 609 885 609 860 610 873 b 607 903 609 891 609 897 b 603 921 606 909 605 915 b 558 985 594 946 578 968 b 523 1009 548 994 536 1002 b 483 1026 511 1016 497 1022 b 397 1036 455 1036 426 1039 b 376 1032 390 1035 383 1034 b 356 1025 369 1030 362 1028 l 351 1023 l 346 1021 b 336 1016 343 1019 340 1017 b 318 1003 330 1012 324 1008 b 259 937 293 986 273 963 b 232 851 244 910 235 881 b 234 806 231 836 231 820 b 247 765 236 791 240 778 l 248 765 b 241 740 253 756 250 745 b 216 746 233 735 222 737 b 204 772 211 754 207 763 b 196 799 201 781 198 790 b 193 853 193 817 192 835 b 219 957 194 889 203 925 b 287 1043 236 990 259 1019 b 309 1059 294 1048 302 1054 b 321 1066 313 1061 317 1064 l 327 1070 l 334 1073 b 360 1084 342 1077 351 1081 b 388 1091 370 1087 379 1089 b 416 1094 397 1092 407 1094 b 444 1095 425 1095 435 1095 b 472 1093 453 1095 463 1094 b 499 1088 481 1092 490 1090 b 553 1072 518 1084 536 1079 b 603 1045 571 1064 587 1056 b 627 1027 611 1039 619 1034 b 648 1006 634 1021 642 1014 b 683 956 662 991 674 974 b 702 895 692 936 698 916 l 703 887 b 703 880 703 885 703 882 m 207 93 b 210 78 209 88 210 83 b 211 63 211 73 211 68 b 206 41 210 56 209 48 b 203 31 205 37 204 34 b 201 26 202 29 202 28 b 197 18 200 23 199 20 b 172 0 193 8 183 2 b 149 11 163 -1 154 3 b 147 13 148 11 148 12 b 146 15 147 14 147 14 b 144 18 146 16 145 17 b 139 22 143 19 141 21 b 137 22 138 22 138 22 b 135 23 136 22 135 22 b 130 24 133 23 132 23 b 123 28 128 25 125 26 b 113 40 119 31 115 35 l 113 40 b 113 40 113 40 113 40 b 112 42 112 41 112 42 b 105 60 109 48 107 54 b 103 80 103 66 102 73 b 110 101 103 87 106 94 b 143 128 118 113 129 122 b 166 131 150 131 158 132 b 192 118 176 130 185 125 b 207 93 199 111 204 102 "},"@":{"ha":813,"x_min":0,"x_max":0,"o":"m 837 824 b 826 534 873 747 869 649 b 808 491 821 520 815 506 b 785 447 801 476 793 461 b 663 285 752 387 711 333 b 513 210 613 235 562 210 b 460 231 489 210 471 217 b 441 272 450 243 443 257 b 440 282 440 275 440 279 b 418 264 433 277 426 271 b 365 228 402 251 384 239 b 305 211 347 218 326 212 b 259 226 286 211 271 216 b 235 265 247 236 238 250 b 256 395 227 295 234 337 b 287 458 265 416 275 437 b 335 534 300 482 317 508 b 448 656 368 579 406 620 b 580 712 491 693 535 712 b 633 684 613 712 627 697 b 637 674 635 681 636 677 l 654 703 l 728 703 l 525 347 b 516 329 521 340 518 334 b 509 316 513 325 511 320 l 505 306 b 505 305 505 306 505 306 l 505 304 l 505 303 b 507 271 502 291 502 280 b 522 262 510 265 513 262 b 652 339 565 262 609 288 b 762 512 697 391 734 450 b 773 537 766 521 770 529 b 783 563 777 546 780 554 b 806 658 795 593 802 625 b 774 826 812 719 802 775 b 627 897 747 873 699 897 b 362 778 539 897 450 857 b 151 453 274 699 203 589 b 127 167 109 342 101 245 b 304 56 151 92 209 56 b 407 71 343 56 377 61 b 498 106 438 81 469 92 b 511 113 502 109 507 111 l 537 125 l 549 80 l 545 77 b 538 72 543 75 541 73 b 535 71 537 72 536 71 l 535 70 b 419 22 497 53 458 37 b 300 0 381 8 340 0 b 85 103 195 0 122 35 b 42 318 50 168 35 240 b 54 390 44 342 48 366 b 75 459 59 414 66 437 b 317 811 129 604 211 723 b 630 946 424 901 529 946 b 837 824 729 946 799 905 m 396 318 b 489 418 424 341 455 375 b 581 576 522 462 553 515 l 581 577 b 591 634 593 609 593 625 b 588 639 590 636 589 638 b 562 645 586 641 579 645 l 557 645 b 445 574 526 641 488 617 b 335 427 401 531 364 481 b 323 402 331 419 327 411 b 313 378 319 394 316 386 b 297 294 292 324 294 302 b 325 279 299 289 303 279 b 353 289 329 279 338 281 b 396 318 368 297 383 307 "},"A":{"ha":1653,"x_min":0,"x_max":0,"o":"m 1889 1352 b 1892 1345 1891 1351 1892 1348 l 1892 1345 l 1892 1345 b 1891 1318 1892 1336 1891 1327 b 1888 1292 1890 1310 1889 1301 b 1881 1240 1886 1275 1884 1257 b 1871 1188 1878 1222 1875 1205 b 1865 1162 1869 1179 1867 1171 b 1859 1137 1863 1154 1861 1145 b 1793 936 1841 1068 1819 1001 b 1706 744 1768 871 1738 807 b 1655 651 1690 713 1673 682 b 1629 606 1647 636 1638 621 b 1602 562 1620 591 1611 576 b 1548 474 1584 532 1566 503 l 1496 386 b 1442 297 1478 357 1460 327 b 1514 298 1466 297 1490 297 b 1620 311 1550 300 1585 304 b 1671 326 1637 314 1654 319 b 1694 338 1679 329 1687 333 b 1709 357 1701 343 1707 350 l 1709 358 b 1712 360 1709 359 1710 360 b 1714 356 1714 359 1715 358 b 1708 343 1713 351 1711 347 b 1698 333 1705 339 1701 336 b 1674 319 1690 328 1682 323 b 1622 302 1657 312 1640 307 b 1515 287 1587 295 1551 289 b 1434 284 1488 285 1461 284 b 1390 211 1419 260 1405 236 b 1293 32 1356 153 1322 93 b 1255 -62 1279 1 1266 -30 b 1242 -111 1250 -78 1245 -94 b 1235 -147 1239 -123 1237 -135 b 1264 -159 1245 -150 1255 -154 b 1288 -174 1272 -163 1280 -168 b 1299 -184 1292 -177 1296 -180 b 1308 -198 1303 -188 1306 -193 b 1308 -218 1310 -204 1310 -211 b 1303 -226 1307 -221 1305 -223 b 1296 -231 1301 -228 1299 -229 b 1290 -234 1294 -232 1292 -233 b 1286 -235 1288 -234 1287 -235 l 1283 -236 b 1270 -240 1279 -238 1274 -239 b 1256 -241 1265 -241 1261 -241 b 1242 -235 1251 -240 1246 -238 b 1224 -213 1234 -230 1228 -222 b 1214 -187 1219 -205 1216 -196 b 1211 -169 1213 -181 1212 -175 b 1205 -167 1209 -169 1207 -168 b 1156 -156 1189 -163 1173 -159 b 1055 -146 1123 -150 1089 -147 b 851 -161 987 -144 918 -149 b 750 -184 817 -167 784 -175 b 649 -208 717 -193 683 -201 b 443 -235 582 -223 513 -232 b 236 -223 374 -238 304 -236 b 136 -195 202 -217 168 -208 b 45 -143 103 -183 72 -166 b 11 -103 32 -132 20 -118 b -5 -53 2 -88 -4 -70 b 1 0 -7 -35 -5 -17 b 25 47 7 17 15 33 b 27 49 25 48 26 49 b 30 49 28 49 30 49 b 32 46 31 48 32 47 b 32 43 32 45 32 44 l 32 43 l 32 43 b 9 -2 22 29 14 14 b 2 -52 3 -18 1 -35 b 18 -99 4 -69 9 -85 b 50 -138 26 -114 37 -127 b 138 -189 76 -160 107 -176 b 237 -216 170 -201 204 -210 b 443 -227 305 -228 374 -230 b 647 -197 512 -222 580 -213 b 747 -171 681 -190 714 -181 b 848 -145 780 -161 814 -152 b 1056 -121 916 -131 985 -122 b 1161 -128 1091 -121 1126 -123 b 1209 -139 1177 -131 1193 -134 b 1211 -106 1209 -128 1210 -117 b 1213 -79 1211 -97 1212 -88 b 1217 -53 1215 -70 1216 -62 b 1241 51 1223 -18 1231 17 b 1309 252 1259 119 1282 186 b 1324 289 1314 264 1319 277 b 1299 291 1316 290 1308 291 b 1192 305 1263 295 1227 300 l 1165 309 b 1139 313 1157 311 1148 312 b 1113 317 1130 315 1121 316 l 1099 318 b 1086 319 1095 318 1091 319 b 1036 322 1069 320 1052 321 b 903 205 993 281 949 242 b 724 81 846 160 787 117 b 675 56 708 72 692 64 b 625 34 659 48 642 40 b 519 6 591 21 556 10 b 491 4 510 5 501 5 b 484 5 489 5 487 4 b 477 5 482 5 479 5 b 463 9 472 6 467 7 b 440 28 453 13 445 19 b 434 41 437 32 435 36 b 433 55 433 46 433 51 b 439 83 433 65 436 74 b 452 107 443 91 447 99 b 485 151 462 123 473 137 b 566 226 509 179 536 204 b 588 241 573 231 580 236 b 611 256 595 247 603 252 b 660 283 627 266 643 275 b 871 342 726 314 798 333 b 980 348 907 346 943 348 b 997 348 986 348 991 348 b 1032 382 1009 359 1021 370 l 1051 401 l 1070 420 b 1107 458 1083 432 1095 445 b 1182 535 1132 484 1157 509 b 1255 613 1206 561 1231 587 l 1328 692 b 1613 1013 1425 797 1520 904 b 1749 1179 1659 1068 1704 1123 l 1783 1221 b 1815 1264 1794 1235 1805 1249 b 1879 1350 1837 1292 1858 1321 b 1884 1353 1880 1352 1882 1353 b 1889 1352 1885 1354 1887 1353 m 876 236 b 970 322 908 264 939 293 b 875 312 938 320 906 317 b 674 252 805 302 738 281 b 628 227 659 244 643 236 b 606 214 621 223 614 218 l 584 199 b 540 170 569 190 554 180 b 498 138 525 160 511 150 b 460 101 484 127 472 115 b 446 79 455 94 450 87 b 438 55 442 72 440 64 b 440 43 438 51 438 47 b 445 32 441 39 443 35 b 466 21 451 26 458 22 b 478 20 470 21 474 20 b 484 20 480 20 482 20 b 491 20 486 20 489 20 b 517 23 499 21 508 22 b 616 55 551 29 584 41 b 663 79 632 63 648 71 b 708 107 678 88 693 97 b 794 169 738 126 766 147 b 876 236 822 190 850 213 m 1251 -185 b 1233 -177 1245 -182 1239 -179 b 1233 -184 1233 -179 1233 -182 b 1237 -208 1234 -192 1235 -200 b 1248 -228 1239 -215 1243 -222 b 1269 -235 1254 -233 1262 -236 b 1281 -232 1273 -235 1278 -234 b 1284 -230 1282 -231 1283 -231 b 1286 -228 1285 -229 1285 -229 b 1290 -224 1288 -227 1289 -225 b 1291 -215 1292 -221 1292 -218 b 1286 -209 1290 -213 1288 -211 b 1279 -203 1284 -208 1282 -205 b 1271 -196 1277 -201 1274 -199 b 1251 -185 1265 -192 1258 -188 m 1862 1298 b 1865 1308 1863 1301 1864 1305 l 1761 1170 b 1695 1085 1739 1142 1717 1113 l 1663 1042 l 1629 1000 b 1357 666 1541 887 1451 775 l 1286 585 b 1214 505 1262 558 1238 532 b 1195 485 1207 499 1202 492 l 1177 466 l 1140 427 b 1102 388 1127 414 1115 401 l 1083 369 l 1064 350 b 1059 344 1062 348 1060 346 b 1088 341 1069 343 1078 342 b 1102 340 1093 341 1097 340 l 1115 338 b 1142 334 1124 337 1133 335 b 1169 329 1151 332 1160 331 l 1195 324 b 1301 308 1230 318 1265 312 b 1331 304 1311 307 1321 306 b 1399 442 1352 351 1375 397 b 1452 532 1416 472 1434 502 b 1508 621 1470 562 1489 592 l 1536 664 b 1563 707 1545 678 1554 693 b 1577 729 1568 714 1572 721 l 1590 750 l 1616 794 b 1667 882 1634 823 1651 852 b 1716 971 1684 911 1700 941 b 1762 1063 1732 1001 1747 1032 b 1784 1109 1769 1078 1777 1093 b 1805 1155 1791 1124 1798 1140 b 1825 1202 1812 1171 1818 1187 b 1835 1226 1828 1210 1831 1218 b 1844 1250 1838 1234 1841 1242 b 1862 1298 1850 1266 1856 1282 "},"À":{"ha":1653,"x_min":0,"x_max":0,"o":"m 1889 1352 b 1884 1353 1887 1353 1885 1354 b 1879 1350 1882 1353 1880 1352 b 1815 1264 1858 1321 1837 1292 b 1783 1221 1805 1249 1794 1235 l 1749 1179 b 1613 1013 1704 1123 1659 1068 b 1328 692 1520 904 1425 797 l 1255 613 b 1182 535 1231 587 1206 561 b 1107 458 1157 509 1132 484 b 1070 420 1095 445 1083 432 l 1051 401 l 1032 382 b 997 348 1021 370 1009 359 b 980 348 991 348 986 348 b 871 342 943 348 907 346 b 660 283 798 333 726 314 b 611 256 643 275 627 266 b 588 241 603 252 595 247 b 566 226 580 236 573 231 b 485 151 536 204 509 179 b 452 107 473 137 462 123 b 439 83 447 99 443 91 b 433 55 436 74 433 65 b 434 41 433 51 433 46 b 440 28 435 36 437 32 b 463 9 445 19 453 13 b 477 5 467 7 472 6 b 484 5 479 5 482 5 b 491 4 487 4 489 5 b 519 6 501 5 510 5 b 625 34 556 10 591 21 b 675 56 642 40 659 48 b 724 81 692 64 708 72 b 903 205 787 117 846 160 b 1036 322 949 242 993 281 b 1086 319 1052 321 1069 320 b 1099 318 1091 319 1095 318 l 1113 317 b 1139 313 1121 316 1130 315 b 1165 309 1148 312 1157 311 l 1192 305 b 1299 291 1227 300 1263 295 b 1324 289 1308 291 1316 290 b 1309 252 1319 277 1314 264 b 1241 51 1282 186 1259 119 b 1217 -53 1231 17 1223 -18 b 1213 -79 1216 -62 1215 -70 b 1211 -106 1212 -88 1211 -97 b 1209 -139 1210 -117 1209 -128 b 1161 -128 1193 -134 1177 -131 b 1056 -121 1126 -123 1091 -121 b 848 -145 985 -122 916 -131 b 747 -171 814 -152 780 -161 b 647 -197 714 -181 681 -190 b 443 -227 580 -213 512 -222 b 237 -216 374 -230 305 -228 b 138 -189 204 -210 170 -201 b 50 -138 107 -176 76 -160 b 18 -99 37 -127 26 -114 b 2 -52 9 -85 4 -69 b 9 -2 1 -35 3 -18 b 32 43 14 14 22 29 l 32 43 l 32 43 b 32 46 32 44 32 45 b 30 49 32 47 31 48 b 27 49 30 49 28 49 b 25 47 26 49 25 48 b 1 0 15 33 7 17 b -5 -53 -5 -17 -7 -35 b 11 -103 -4 -70 2 -88 b 45 -143 20 -118 32 -132 b 136 -195 72 -166 103 -183 b 236 -223 168 -208 202 -217 b 443 -235 304 -236 374 -238 b 649 -208 513 -232 582 -223 b 750 -184 683 -201 717 -193 b 851 -161 784 -175 817 -167 b 1055 -146 918 -149 987 -144 b 1156 -156 1089 -147 1123 -150 b 1205 -167 1173 -159 1189 -163 b 1211 -169 1207 -168 1209 -169 b 1214 -187 1212 -175 1213 -181 b 1224 -213 1216 -196 1219 -205 b 1242 -235 1228 -222 1234 -230 b 1256 -241 1246 -238 1251 -240 b 1270 -240 1261 -241 1265 -241 b 1283 -236 1274 -239 1279 -238 l 1286 -235 b 1290 -234 1287 -235 1288 -234 b 1296 -231 1292 -233 1294 -232 b 1303 -226 1299 -229 1301 -228 b 1308 -218 1305 -223 1307 -221 b 1308 -198 1310 -211 1310 -204 b 1299 -184 1306 -193 1303 -188 b 1288 -174 1296 -180 1292 -177 b 1264 -159 1280 -168 1272 -163 b 1235 -147 1255 -154 1245 -150 b 1242 -111 1237 -135 1239 -123 b 1255 -62 1245 -94 1250 -78 b 1293 32 1266 -30 1279 1 b 1390 211 1322 93 1356 153 b 1434 284 1405 236 1419 260 b 1515 287 1461 284 1488 285 b 1622 302 1551 289 1587 295 b 1674 319 1640 307 1657 312 b 1698 333 1682 323 1690 328 b 1708 343 1701 336 1705 339 b 1714 356 1711 347 1713 351 b 1712 360 1715 358 1714 359 b 1709 358 1710 360 1709 359 l 1709 357 b 1694 338 1707 350 1701 343 b 1671 326 1687 333 1679 329 b 1620 311 1654 319 1637 314 b 1514 298 1585 304 1550 300 b 1442 297 1490 297 1466 297 b 1496 386 1460 327 1478 357 l 1548 474 b 1602 562 1566 503 1584 532 b 1629 606 1611 576 1620 591 b 1655 651 1638 621 1647 636 b 1706 744 1673 682 1690 713 b 1793 936 1738 807 1768 871 b 1859 1137 1819 1001 1841 1068 b 1865 1162 1861 1145 1863 1154 b 1871 1188 1867 1171 1869 1179 b 1881 1240 1875 1205 1878 1222 b 1888 1292 1884 1257 1886 1275 b 1891 1318 1889 1301 1890 1310 b 1892 1345 1891 1327 1892 1336 l 1892 1345 l 1892 1345 b 1889 1352 1892 1348 1891 1351 m 876 236 b 794 169 850 213 822 190 b 708 107 766 147 738 126 b 663 79 693 97 678 88 b 616 55 648 71 632 63 b 517 23 584 41 551 29 b 491 20 508 22 499 21 b 484 20 489 20 486 20 b 478 20 482 20 480 20 b 466 21 474 20 470 21 b 445 32 458 22 451 26 b 440 43 443 35 441 39 b 438 55 438 47 438 51 b 446 79 440 64 442 72 b 460 101 450 87 455 94 b 498 138 472 115 484 127 b 540 170 511 150 525 160 b 584 199 554 180 569 190 l 606 214 b 628 227 614 218 621 223 b 674 252 643 236 659 244 b 875 312 738 281 805 302 b 970 322 906 317 938 320 b 876 236 939 293 908 264 m 1251 -185 b 1271 -196 1258 -188 1265 -192 b 1279 -203 1274 -199 1277 -201 b 1286 -209 1282 -205 1284 -208 b 1291 -215 1288 -211 1290 -213 b 1290 -224 1292 -218 1292 -221 b 1286 -228 1289 -225 1288 -227 b 1284 -230 1285 -229 1285 -229 b 1281 -232 1283 -231 1282 -231 b 1269 -235 1278 -234 1273 -235 b 1248 -228 1262 -236 1254 -233 b 1237 -208 1243 -222 1239 -215 b 1233 -184 1235 -200 1234 -192 b 1233 -177 1233 -182 1233 -179 b 1251 -185 1239 -179 1245 -182 m 1862 1298 b 1844 1250 1856 1282 1850 1266 b 1835 1226 1841 1242 1838 1234 b 1825 1202 1831 1218 1828 1210 b 1805 1155 1818 1187 1812 1171 b 1784 1109 1798 1140 1791 1124 b 1762 1063 1777 1093 1769 1078 b 1716 971 1747 1032 1732 1001 b 1667 882 1700 941 1684 911 b 1616 794 1651 852 1634 823 l 1590 750 l 1577 729 b 1563 707 1572 721 1568 714 b 1536 664 1554 693 1545 678 l 1508 621 b 1452 532 1489 592 1470 562 b 1399 442 1434 502 1416 472 b 1331 304 1375 397 1352 351 b 1301 308 1321 306 1311 307 b 1195 324 1265 312 1230 318 l 1169 329 b 1142 334 1160 331 1151 332 b 1115 338 1133 335 1124 337 l 1102 340 b 1088 341 1097 340 1093 341 b 1059 344 1078 342 1069 343 b 1064 350 1060 346 1062 348 l 1083 369 l 1102 388 b 1140 427 1115 401 1127 414 l 1177 466 l 1195 485 b 1214 505 1202 492 1207 499 b 1286 585 1238 532 1262 558 l 1357 666 b 1629 1000 1451 775 1541 887 l 1663 1042 l 1695 1085 b 1761 1170 1717 1113 1739 1142 l 1865 1308 b 1862 1298 1864 1305 1863 1301 "},"Á":{"ha":1653,"x_min":0,"x_max":0,"o":"m 1889 1352 b 1892 1345 1891 1351 1892 1348 l 1892 1345 l 1892 1345 b 1891 1318 1892 1336 1891 1327 b 1888 1292 1890 1310 1889 1301 b 1881 1240 1886 1275 1884 1257 b 1871 1188 1878 1222 1875 1205 b 1865 1162 1869 1179 1867 1171 b 1859 1137 1863 1154 1861 1145 b 1793 936 1841 1068 1819 1001 b 1706 744 1768 871 1738 807 b 1655 651 1690 713 1673 682 b 1629 606 1647 636 1638 621 b 1602 562 1620 591 1611 576 b 1548 474 1584 532 1566 503 l 1496 386 b 1442 297 1478 357 1460 327 b 1514 298 1466 297 1490 297 b 1620 311 1550 300 1585 304 b 1671 326 1637 314 1654 319 b 1694 338 1679 329 1687 333 b 1709 357 1701 343 1707 350 l 1709 358 b 1712 360 1709 359 1710 360 b 1714 356 1714 359 1715 358 b 1708 343 1713 351 1711 347 b 1698 333 1705 339 1701 336 b 1674 319 1690 328 1682 323 b 1622 302 1657 312 1640 307 b 1515 287 1587 295 1551 289 b 1434 284 1488 285 1461 284 b 1390 211 1419 260 1405 236 b 1293 32 1356 153 1322 93 b 1255 -62 1279 1 1266 -30 b 1242 -111 1250 -78 1245 -94 b 1235 -147 1239 -123 1237 -135 b 1264 -159 1245 -150 1255 -154 b 1288 -174 1272 -163 1280 -168 b 1299 -184 1292 -177 1296 -180 b 1308 -198 1303 -188 1306 -193 b 1308 -218 1310 -204 1310 -211 b 1303 -226 1307 -221 1305 -223 b 1296 -231 1301 -228 1299 -229 b 1290 -234 1294 -232 1292 -233 b 1286 -235 1288 -234 1287 -235 l 1283 -236 b 1270 -240 1279 -238 1274 -239 b 1256 -241 1265 -241 1261 -241 b 1242 -235 1251 -240 1246 -238 b 1224 -213 1234 -230 1228 -222 b 1214 -187 1219 -205 1216 -196 b 1211 -169 1213 -181 1212 -175 b 1205 -167 1209 -169 1207 -168 b 1156 -156 1189 -163 1173 -159 b 1055 -146 1123 -150 1089 -147 b 851 -161 987 -144 918 -149 b 750 -184 817 -167 784 -175 b 649 -208 717 -193 683 -201 b 443 -235 582 -223 513 -232 b 236 -223 374 -238 304 -236 b 136 -195 202 -217 168 -208 b 45 -143 103 -183 72 -166 b 11 -103 32 -132 20 -118 b -5 -53 2 -88 -4 -70 b 1 0 -7 -35 -5 -17 b 25 47 7 17 15 33 b 27 49 25 48 26 49 b 30 49 28 49 30 49 b 32 46 31 48 32 47 b 32 43 32 45 32 44 l 32 43 l 32 43 b 9 -2 22 29 14 14 b 2 -52 3 -18 1 -35 b 18 -99 4 -69 9 -85 b 50 -138 26 -114 37 -127 b 138 -189 76 -160 107 -176 b 237 -216 170 -201 204 -210 b 443 -227 305 -228 374 -230 b 647 -197 512 -222 580 -213 b 747 -171 681 -190 714 -181 b 848 -145 780 -161 814 -152 b 1056 -121 916 -131 985 -122 b 1161 -128 1091 -121 1126 -123 b 1209 -139 1177 -131 1193 -134 b 1211 -106 1209 -128 1210 -117 b 1213 -79 1211 -97 1212 -88 b 1217 -53 1215 -70 1216 -62 b 1241 51 1223 -18 1231 17 b 1309 252 1259 119 1282 186 b 1324 289 1314 264 1319 277 b 1299 291 1316 290 1308 291 b 1192 305 1263 295 1227 300 l 1165 309 b 1139 313 1157 311 1148 312 b 1113 317 1130 315 1121 316 l 1099 318 b 1086 319 1095 318 1091 319 b 1036 322 1069 320 1052 321 b 903 205 993 281 949 242 b 724 81 846 160 787 117 b 675 56 708 72 692 64 b 625 34 659 48 642 40 b 519 6 591 21 556 10 b 491 4 510 5 501 5 b 484 5 489 5 487 4 b 477 5 482 5 479 5 b 463 9 472 6 467 7 b 440 28 453 13 445 19 b 434 41 437 32 435 36 b 433 55 433 46 433 51 b 439 83 433 65 436 74 b 452 107 443 91 447 99 b 485 151 462 123 473 137 b 566 226 509 179 536 204 b 588 241 573 231 580 236 b 611 256 595 247 603 252 b 660 283 627 266 643 275 b 871 342 726 314 798 333 b 980 348 907 346 943 348 b 997 348 986 348 991 348 b 1032 382 1009 359 1021 370 l 1051 401 l 1070 420 b 1107 458 1083 432 1095 445 b 1182 535 1132 484 1157 509 b 1255 613 1206 561 1231 587 l 1328 692 b 1613 1013 1425 797 1520 904 b 1749 1179 1659 1068 1704 1123 l 1783 1221 b 1815 1264 1794 1235 1805 1249 b 1879 1350 1837 1292 1858 1321 b 1884 1353 1880 1352 1882 1353 b 1889 1352 1885 1354 1887 1353 m 876 236 b 970 322 908 264 939 293 b 875 312 938 320 906 317 b 674 252 805 302 738 281 b 628 227 659 244 643 236 b 606 214 621 223 614 218 l 584 199 b 540 170 569 190 554 180 b 498 138 525 160 511 150 b 460 101 484 127 472 115 b 446 79 455 94 450 87 b 438 55 442 72 440 64 b 440 43 438 51 438 47 b 445 32 441 39 443 35 b 466 21 451 26 458 22 b 478 20 470 21 474 20 b 484 20 480 20 482 20 b 491 20 486 20 489 20 b 517 23 499 21 508 22 b 616 55 551 29 584 41 b 663 79 632 63 648 71 b 708 107 678 88 693 97 b 794 169 738 126 766 147 b 876 236 822 190 850 213 m 1251 -185 b 1233 -177 1245 -182 1239 -179 b 1233 -184 1233 -179 1233 -182 b 1237 -208 1234 -192 1235 -200 b 1248 -228 1239 -215 1243 -222 b 1269 -235 1254 -233 1262 -236 b 1281 -232 1273 -235 1278 -234 b 1284 -230 1282 -231 1283 -231 b 1286 -228 1285 -229 1285 -229 b 1290 -224 1288 -227 1289 -225 b 1291 -215 1292 -221 1292 -218 b 1286 -209 1290 -213 1288 -211 b 1279 -203 1284 -208 1282 -205 b 1271 -196 1277 -201 1274 -199 b 1251 -185 1265 -192 1258 -188 m 1862 1298 b 1865 1308 1863 1301 1864 1305 l 1761 1170 b 1695 1085 1739 1142 1717 1113 l 1663 1042 l 1629 1000 b 1357 666 1541 887 1451 775 l 1286 585 b 1214 505 1262 558 1238 532 b 1195 485 1207 499 1202 492 l 1177 466 l 1140 427 b 1102 388 1127 414 1115 401 l 1083 369 l 1064 350 b 1059 344 1062 348 1060 346 b 1088 341 1069 343 1078 342 b 1102 340 1093 341 1097 340 l 1115 338 b 1142 334 1124 337 1133 335 b 1169 329 1151 332 1160 331 l 1195 324 b 1301 308 1230 318 1265 312 b 1331 304 1311 307 1321 306 b 1399 442 1352 351 1375 397 b 1452 532 1416 472 1434 502 b 1508 621 1470 562 1489 592 l 1536 664 b 1563 707 1545 678 1554 693 b 1577 729 1568 714 1572 721 l 1590 750 l 1616 794 b 1667 882 1634 823 1651 852 b 1716 971 1684 911 1700 941 b 1762 1063 1732 1001 1747 1032 b 1784 1109 1769 1078 1777 1093 b 1805 1155 1791 1124 1798 1140 b 1825 1202 1812 1171 1818 1187 b 1835 1226 1828 1210 1831 1218 b 1844 1250 1838 1234 1841 1242 b 1862 1298 1850 1266 1856 1282 "},"Â":{"ha":1653,"x_min":0,"x_max":0,"o":"m 1889 1352 b 1884 1353 1887 1353 1885 1354 b 1879 1350 1882 1353 1880 1352 b 1815 1264 1858 1321 1837 1292 b 1783 1221 1805 1249 1794 1235 l 1749 1179 b 1613 1013 1704 1123 1659 1068 b 1328 692 1520 904 1425 797 l 1255 613 b 1182 535 1231 587 1206 561 b 1107 458 1157 509 1132 484 b 1070 420 1095 445 1083 432 l 1051 401 l 1032 382 b 997 348 1021 370 1009 359 b 980 348 991 348 986 348 b 871 342 943 348 907 346 b 660 283 798 333 726 314 b 611 256 643 275 627 266 b 588 241 603 252 595 247 b 566 226 580 236 573 231 b 485 151 536 204 509 179 b 452 107 473 137 462 123 b 439 83 447 99 443 91 b 433 55 436 74 433 65 b 434 41 433 51 433 46 b 440 28 435 36 437 32 b 463 9 445 19 453 13 b 477 5 467 7 472 6 b 484 5 479 5 482 5 b 491 4 487 4 489 5 b 519 6 501 5 510 5 b 625 34 556 10 591 21 b 675 56 642 40 659 48 b 724 81 692 64 708 72 b 903 205 787 117 846 160 b 1036 322 949 242 993 281 b 1086 319 1052 321 1069 320 b 1099 318 1091 319 1095 318 l 1113 317 b 1139 313 1121 316 1130 315 b 1165 309 1148 312 1157 311 l 1192 305 b 1299 291 1227 300 1263 295 b 1324 289 1308 291 1316 290 b 1309 252 1319 277 1314 264 b 1241 51 1282 186 1259 119 b 1217 -53 1231 17 1223 -18 b 1213 -79 1216 -62 1215 -70 b 1211 -106 1212 -88 1211 -97 b 1209 -139 1210 -117 1209 -128 b 1161 -128 1193 -134 1177 -131 b 1056 -121 1126 -123 1091 -121 b 848 -145 985 -122 916 -131 b 747 -171 814 -152 780 -161 b 647 -197 714 -181 681 -190 b 443 -227 580 -213 512 -222 b 237 -216 374 -230 305 -228 b 138 -189 204 -210 170 -201 b 50 -138 107 -176 76 -160 b 18 -99 37 -127 26 -114 b 2 -52 9 -85 4 -69 b 9 -2 1 -35 3 -18 b 32 43 14 14 22 29 l 32 43 l 32 43 b 32 46 32 44 32 45 b 30 49 32 47 31 48 b 27 49 30 49 28 49 b 25 47 26 49 25 48 b 1 0 15 33 7 17 b -5 -53 -5 -17 -7 -35 b 11 -103 -4 -70 2 -88 b 45 -143 20 -118 32 -132 b 136 -195 72 -166 103 -183 b 236 -223 168 -208 202 -217 b 443 -235 304 -236 374 -238 b 649 -208 513 -232 582 -223 b 750 -184 683 -201 717 -193 b 851 -161 784 -175 817 -167 b 1055 -146 918 -149 987 -144 b 1156 -156 1089 -147 1123 -150 b 1205 -167 1173 -159 1189 -163 b 1211 -169 1207 -168 1209 -169 b 1214 -187 1212 -175 1213 -181 b 1224 -213 1216 -196 1219 -205 b 1242 -235 1228 -222 1234 -230 b 1256 -241 1246 -238 1251 -240 b 1270 -240 1261 -241 1265 -241 b 1283 -236 1274 -239 1279 -238 l 1286 -235 b 1290 -234 1287 -235 1288 -234 b 1296 -231 1292 -233 1294 -232 b 1303 -226 1299 -229 1301 -228 b 1308 -218 1305 -223 1307 -221 b 1308 -198 1310 -211 1310 -204 b 1299 -184 1306 -193 1303 -188 b 1288 -174 1296 -180 1292 -177 b 1264 -159 1280 -168 1272 -163 b 1235 -147 1255 -154 1245 -150 b 1242 -111 1237 -135 1239 -123 b 1255 -62 1245 -94 1250 -78 b 1293 32 1266 -30 1279 1 b 1390 211 1322 93 1356 153 b 1434 284 1405 236 1419 260 b 1515 287 1461 284 1488 285 b 1622 302 1551 289 1587 295 b 1674 319 1640 307 1657 312 b 1698 333 1682 323 1690 328 b 1708 343 1701 336 1705 339 b 1714 356 1711 347 1713 351 b 1712 360 1715 358 1714 359 b 1709 358 1710 360 1709 359 l 1709 357 b 1694 338 1707 350 1701 343 b 1671 326 1687 333 1679 329 b 1620 311 1654 319 1637 314 b 1514 298 1585 304 1550 300 b 1442 297 1490 297 1466 297 b 1496 386 1460 327 1478 357 l 1548 474 b 1602 562 1566 503 1584 532 b 1629 606 1611 576 1620 591 b 1655 651 1638 621 1647 636 b 1706 744 1673 682 1690 713 b 1793 936 1738 807 1768 871 b 1859 1137 1819 1001 1841 1068 b 1865 1162 1861 1145 1863 1154 b 1871 1188 1867 1171 1869 1179 b 1881 1240 1875 1205 1878 1222 b 1888 1292 1884 1257 1886 1275 b 1891 1318 1889 1301 1890 1310 b 1892 1345 1891 1327 1892 1336 l 1892 1345 l 1892 1345 b 1889 1352 1892 1348 1891 1351 m 876 236 b 794 169 850 213 822 190 b 708 107 766 147 738 126 b 663 79 693 97 678 88 b 616 55 648 71 632 63 b 517 23 584 41 551 29 b 491 20 508 22 499 21 b 484 20 489 20 486 20 b 478 20 482 20 480 20 b 466 21 474 20 470 21 b 445 32 458 22 451 26 b 440 43 443 35 441 39 b 438 55 438 47 438 51 b 446 79 440 64 442 72 b 460 101 450 87 455 94 b 498 138 472 115 484 127 b 540 170 511 150 525 160 b 584 199 554 180 569 190 l 606 214 b 628 227 614 218 621 223 b 674 252 643 236 659 244 b 875 312 738 281 805 302 b 970 322 906 317 938 320 b 876 236 939 293 908 264 m 1251 -185 b 1271 -196 1258 -188 1265 -192 b 1279 -203 1274 -199 1277 -201 b 1286 -209 1282 -205 1284 -208 b 1291 -215 1288 -211 1290 -213 b 1290 -224 1292 -218 1292 -221 b 1286 -228 1289 -225 1288 -227 b 1284 -230 1285 -229 1285 -229 b 1281 -232 1283 -231 1282 -231 b 1269 -235 1278 -234 1273 -235 b 1248 -228 1262 -236 1254 -233 b 1237 -208 1243 -222 1239 -215 b 1233 -184 1235 -200 1234 -192 b 1233 -177 1233 -182 1233 -179 b 1251 -185 1239 -179 1245 -182 m 1862 1298 b 1844 1250 1856 1282 1850 1266 b 1835 1226 1841 1242 1838 1234 b 1825 1202 1831 1218 1828 1210 b 1805 1155 1818 1187 1812 1171 b 1784 1109 1798 1140 1791 1124 b 1762 1063 1777 1093 1769 1078 b 1716 971 1747 1032 1732 1001 b 1667 882 1700 941 1684 911 b 1616 794 1651 852 1634 823 l 1590 750 l 1577 729 b 1563 707 1572 721 1568 714 b 1536 664 1554 693 1545 678 l 1508 621 b 1452 532 1489 592 1470 562 b 1399 442 1434 502 1416 472 b 1331 304 1375 397 1352 351 b 1301 308 1321 306 1311 307 b 1195 324 1265 312 1230 318 l 1169 329 b 1142 334 1160 331 1151 332 b 1115 338 1133 335 1124 337 l 1102 340 b 1088 341 1097 340 1093 341 b 1059 344 1078 342 1069 343 b 1064 350 1060 346 1062 348 l 1083 369 l 1102 388 b 1140 427 1115 401 1127 414 l 1177 466 l 1195 485 b 1214 505 1202 492 1207 499 b 1286 585 1238 532 1262 558 l 1357 666 b 1629 1000 1451 775 1541 887 l 1663 1042 l 1695 1085 b 1761 1170 1717 1113 1739 1142 l 1865 1308 b 1862 1298 1864 1305 1863 1301 "},"Ã":{"ha":1653,"x_min":0,"x_max":0,"o":"m 1889 1352 b 1892 1345 1891 1351 1892 1348 l 1892 1345 l 1892 1345 b 1891 1318 1892 1336 1891 1327 b 1888 1292 1890 1310 1889 1301 b 1881 1240 1886 1275 1884 1257 b 1871 1188 1878 1222 1875 1205 b 1865 1162 1869 1179 1867 1171 b 1859 1137 1863 1154 1861 1145 b 1793 936 1841 1068 1819 1001 b 1706 744 1768 871 1738 807 b 1655 651 1690 713 1673 682 b 1629 606 1647 636 1638 621 b 1602 562 1620 591 1611 576 b 1548 474 1584 532 1566 503 l 1496 386 b 1442 297 1478 357 1460 327 b 1514 298 1466 297 1490 297 b 1620 311 1550 300 1585 304 b 1671 326 1637 314 1654 319 b 1694 338 1679 329 1687 333 b 1709 357 1701 343 1707 350 l 1709 358 b 1712 360 1709 359 1710 360 b 1714 356 1714 359 1715 358 b 1708 343 1713 351 1711 347 b 1698 333 1705 339 1701 336 b 1674 319 1690 328 1682 323 b 1622 302 1657 312 1640 307 b 1515 287 1587 295 1551 289 b 1434 284 1488 285 1461 284 b 1390 211 1419 260 1405 236 b 1293 32 1356 153 1322 93 b 1255 -62 1279 1 1266 -30 b 1242 -111 1250 -78 1245 -94 b 1235 -147 1239 -123 1237 -135 b 1264 -159 1245 -150 1255 -154 b 1288 -174 1272 -163 1280 -168 b 1299 -184 1292 -177 1296 -180 b 1308 -198 1303 -188 1306 -193 b 1308 -218 1310 -204 1310 -211 b 1303 -226 1307 -221 1305 -223 b 1296 -231 1301 -228 1299 -229 b 1290 -234 1294 -232 1292 -233 b 1286 -235 1288 -234 1287 -235 l 1283 -236 b 1270 -240 1279 -238 1274 -239 b 1256 -241 1265 -241 1261 -241 b 1242 -235 1251 -240 1246 -238 b 1224 -213 1234 -230 1228 -222 b 1214 -187 1219 -205 1216 -196 b 1211 -169 1213 -181 1212 -175 b 1205 -167 1209 -169 1207 -168 b 1156 -156 1189 -163 1173 -159 b 1055 -146 1123 -150 1089 -147 b 851 -161 987 -144 918 -149 b 750 -184 817 -167 784 -175 b 649 -208 717 -193 683 -201 b 443 -235 582 -223 513 -232 b 236 -223 374 -238 304 -236 b 136 -195 202 -217 168 -208 b 45 -143 103 -183 72 -166 b 11 -103 32 -132 20 -118 b -5 -53 2 -88 -4 -70 b 1 0 -7 -35 -5 -17 b 25 47 7 17 15 33 b 27 49 25 48 26 49 b 30 49 28 49 30 49 b 32 46 31 48 32 47 b 32 43 32 45 32 44 l 32 43 l 32 43 b 9 -2 22 29 14 14 b 2 -52 3 -18 1 -35 b 18 -99 4 -69 9 -85 b 50 -138 26 -114 37 -127 b 138 -189 76 -160 107 -176 b 237 -216 170 -201 204 -210 b 443 -227 305 -228 374 -230 b 647 -197 512 -222 580 -213 b 747 -171 681 -190 714 -181 b 848 -145 780 -161 814 -152 b 1056 -121 916 -131 985 -122 b 1161 -128 1091 -121 1126 -123 b 1209 -139 1177 -131 1193 -134 b 1211 -106 1209 -128 1210 -117 b 1213 -79 1211 -97 1212 -88 b 1217 -53 1215 -70 1216 -62 b 1241 51 1223 -18 1231 17 b 1309 252 1259 119 1282 186 b 1324 289 1314 264 1319 277 b 1299 291 1316 290 1308 291 b 1192 305 1263 295 1227 300 l 1165 309 b 1139 313 1157 311 1148 312 b 1113 317 1130 315 1121 316 l 1099 318 b 1086 319 1095 318 1091 319 b 1036 322 1069 320 1052 321 b 903 205 993 281 949 242 b 724 81 846 160 787 117 b 675 56 708 72 692 64 b 625 34 659 48 642 40 b 519 6 591 21 556 10 b 491 4 510 5 501 5 b 484 5 489 5 487 4 b 477 5 482 5 479 5 b 463 9 472 6 467 7 b 440 28 453 13 445 19 b 434 41 437 32 435 36 b 433 55 433 46 433 51 b 439 83 433 65 436 74 b 452 107 443 91 447 99 b 485 151 462 123 473 137 b 566 226 509 179 536 204 b 588 241 573 231 580 236 b 611 256 595 247 603 252 b 660 283 627 266 643 275 b 871 342 726 314 798 333 b 980 348 907 346 943 348 b 997 348 986 348 991 348 b 1032 382 1009 359 1021 370 l 1051 401 l 1070 420 b 1107 458 1083 432 1095 445 b 1182 535 1132 484 1157 509 b 1255 613 1206 561 1231 587 l 1328 692 b 1613 1013 1425 797 1520 904 b 1749 1179 1659 1068 1704 1123 l 1783 1221 b 1815 1264 1794 1235 1805 1249 b 1879 1350 1837 1292 1858 1321 b 1884 1353 1880 1352 1882 1353 b 1889 1352 1885 1354 1887 1353 m 876 236 b 970 322 908 264 939 293 b 875 312 938 320 906 317 b 674 252 805 302 738 281 b 628 227 659 244 643 236 b 606 214 621 223 614 218 l 584 199 b 540 170 569 190 554 180 b 498 138 525 160 511 150 b 460 101 484 127 472 115 b 446 79 455 94 450 87 b 438 55 442 72 440 64 b 440 43 438 51 438 47 b 445 32 441 39 443 35 b 466 21 451 26 458 22 b 478 20 470 21 474 20 b 484 20 480 20 482 20 b 491 20 486 20 489 20 b 517 23 499 21 508 22 b 616 55 551 29 584 41 b 663 79 632 63 648 71 b 708 107 678 88 693 97 b 794 169 738 126 766 147 b 876 236 822 190 850 213 m 1251 -185 b 1233 -177 1245 -182 1239 -179 b 1233 -184 1233 -179 1233 -182 b 1237 -208 1234 -192 1235 -200 b 1248 -228 1239 -215 1243 -222 b 1269 -235 1254 -233 1262 -236 b 1281 -232 1273 -235 1278 -234 b 1284 -230 1282 -231 1283 -231 b 1286 -228 1285 -229 1285 -229 b 1290 -224 1288 -227 1289 -225 b 1291 -215 1292 -221 1292 -218 b 1286 -209 1290 -213 1288 -211 b 1279 -203 1284 -208 1282 -205 b 1271 -196 1277 -201 1274 -199 b 1251 -185 1265 -192 1258 -188 m 1862 1298 b 1865 1308 1863 1301 1864 1305 l 1761 1170 b 1695 1085 1739 1142 1717 1113 l 1663 1042 l 1629 1000 b 1357 666 1541 887 1451 775 l 1286 585 b 1214 505 1262 558 1238 532 b 1195 485 1207 499 1202 492 l 1177 466 l 1140 427 b 1102 388 1127 414 1115 401 l 1083 369 l 1064 350 b 1059 344 1062 348 1060 346 b 1088 341 1069 343 1078 342 b 1102 340 1093 341 1097 340 l 1115 338 b 1142 334 1124 337 1133 335 b 1169 329 1151 332 1160 331 l 1195 324 b 1301 308 1230 318 1265 312 b 1331 304 1311 307 1321 306 b 1399 442 1352 351 1375 397 b 1452 532 1416 472 1434 502 b 1508 621 1470 562 1489 592 l 1536 664 b 1563 707 1545 678 1554 693 b 1577 729 1568 714 1572 721 l 1590 750 l 1616 794 b 1667 882 1634 823 1651 852 b 1716 971 1684 911 1700 941 b 1762 1063 1732 1001 1747 1032 b 1784 1109 1769 1078 1777 1093 b 1805 1155 1791 1124 1798 1140 b 1825 1202 1812 1171 1818 1187 b 1835 1226 1828 1210 1831 1218 b 1844 1250 1838 1234 1841 1242 b 1862 1298 1850 1266 1856 1282 "},"Ä":{"ha":1653,"x_min":0,"x_max":0,"o":"m 1889 1352 b 1884 1353 1887 1353 1885 1354 b 1879 1350 1882 1353 1880 1352 b 1815 1264 1858 1321 1837 1292 b 1783 1221 1805 1249 1794 1235 l 1749 1179 b 1613 1013 1704 1123 1659 1068 b 1328 692 1520 904 1425 797 l 1255 613 b 1182 535 1231 587 1206 561 b 1107 458 1157 509 1132 484 b 1070 420 1095 445 1083 432 l 1051 401 l 1032 382 b 997 348 1021 370 1009 359 b 980 348 991 348 986 348 b 871 342 943 348 907 346 b 660 283 798 333 726 314 b 611 256 643 275 627 266 b 588 241 603 252 595 247 b 566 226 580 236 573 231 b 485 151 536 204 509 179 b 452 107 473 137 462 123 b 439 83 447 99 443 91 b 433 55 436 74 433 65 b 434 41 433 51 433 46 b 440 28 435 36 437 32 b 463 9 445 19 453 13 b 477 5 467 7 472 6 b 484 5 479 5 482 5 b 491 4 487 4 489 5 b 519 6 501 5 510 5 b 625 34 556 10 591 21 b 675 56 642 40 659 48 b 724 81 692 64 708 72 b 903 205 787 117 846 160 b 1036 322 949 242 993 281 b 1086 319 1052 321 1069 320 b 1099 318 1091 319 1095 318 l 1113 317 b 1139 313 1121 316 1130 315 b 1165 309 1148 312 1157 311 l 1192 305 b 1299 291 1227 300 1263 295 b 1324 289 1308 291 1316 290 b 1309 252 1319 277 1314 264 b 1241 51 1282 186 1259 119 b 1217 -53 1231 17 1223 -18 b 1213 -79 1216 -62 1215 -70 b 1211 -106 1212 -88 1211 -97 b 1209 -139 1210 -117 1209 -128 b 1161 -128 1193 -134 1177 -131 b 1056 -121 1126 -123 1091 -121 b 848 -145 985 -122 916 -131 b 747 -171 814 -152 780 -161 b 647 -197 714 -181 681 -190 b 443 -227 580 -213 512 -222 b 237 -216 374 -230 305 -228 b 138 -189 204 -210 170 -201 b 50 -138 107 -176 76 -160 b 18 -99 37 -127 26 -114 b 2 -52 9 -85 4 -69 b 9 -2 1 -35 3 -18 b 32 43 14 14 22 29 l 32 43 l 32 43 b 32 46 32 44 32 45 b 30 49 32 47 31 48 b 27 49 30 49 28 49 b 25 47 26 49 25 48 b 1 0 15 33 7 17 b -5 -53 -5 -17 -7 -35 b 11 -103 -4 -70 2 -88 b 45 -143 20 -118 32 -132 b 136 -195 72 -166 103 -183 b 236 -223 168 -208 202 -217 b 443 -235 304 -236 374 -238 b 649 -208 513 -232 582 -223 b 750 -184 683 -201 717 -193 b 851 -161 784 -175 817 -167 b 1055 -146 918 -149 987 -144 b 1156 -156 1089 -147 1123 -150 b 1205 -167 1173 -159 1189 -163 b 1211 -169 1207 -168 1209 -169 b 1214 -187 1212 -175 1213 -181 b 1224 -213 1216 -196 1219 -205 b 1242 -235 1228 -222 1234 -230 b 1256 -241 1246 -238 1251 -240 b 1270 -240 1261 -241 1265 -241 b 1283 -236 1274 -239 1279 -238 l 1286 -235 b 1290 -234 1287 -235 1288 -234 b 1296 -231 1292 -233 1294 -232 b 1303 -226 1299 -229 1301 -228 b 1308 -218 1305 -223 1307 -221 b 1308 -198 1310 -211 1310 -204 b 1299 -184 1306 -193 1303 -188 b 1288 -174 1296 -180 1292 -177 b 1264 -159 1280 -168 1272 -163 b 1235 -147 1255 -154 1245 -150 b 1242 -111 1237 -135 1239 -123 b 1255 -62 1245 -94 1250 -78 b 1293 32 1266 -30 1279 1 b 1390 211 1322 93 1356 153 b 1434 284 1405 236 1419 260 b 1515 287 1461 284 1488 285 b 1622 302 1551 289 1587 295 b 1674 319 1640 307 1657 312 b 1698 333 1682 323 1690 328 b 1708 343 1701 336 1705 339 b 1714 356 1711 347 1713 351 b 1712 360 1715 358 1714 359 b 1709 358 1710 360 1709 359 l 1709 357 b 1694 338 1707 350 1701 343 b 1671 326 1687 333 1679 329 b 1620 311 1654 319 1637 314 b 1514 298 1585 304 1550 300 b 1442 297 1490 297 1466 297 b 1496 386 1460 327 1478 357 l 1548 474 b 1602 562 1566 503 1584 532 b 1629 606 1611 576 1620 591 b 1655 651 1638 621 1647 636 b 1706 744 1673 682 1690 713 b 1793 936 1738 807 1768 871 b 1859 1137 1819 1001 1841 1068 b 1865 1162 1861 1145 1863 1154 b 1871 1188 1867 1171 1869 1179 b 1881 1240 1875 1205 1878 1222 b 1888 1292 1884 1257 1886 1275 b 1891 1318 1889 1301 1890 1310 b 1892 1345 1891 1327 1892 1336 l 1892 1345 l 1892 1345 b 1889 1352 1892 1348 1891 1351 m 876 236 b 794 169 850 213 822 190 b 708 107 766 147 738 126 b 663 79 693 97 678 88 b 616 55 648 71 632 63 b 517 23 584 41 551 29 b 491 20 508 22 499 21 b 484 20 489 20 486 20 b 478 20 482 20 480 20 b 466 21 474 20 470 21 b 445 32 458 22 451 26 b 440 43 443 35 441 39 b 438 55 438 47 438 51 b 446 79 440 64 442 72 b 460 101 450 87 455 94 b 498 138 472 115 484 127 b 540 170 511 150 525 160 b 584 199 554 180 569 190 l 606 214 b 628 227 614 218 621 223 b 674 252 643 236 659 244 b 875 312 738 281 805 302 b 970 322 906 317 938 320 b 876 236 939 293 908 264 m 1251 -185 b 1271 -196 1258 -188 1265 -192 b 1279 -203 1274 -199 1277 -201 b 1286 -209 1282 -205 1284 -208 b 1291 -215 1288 -211 1290 -213 b 1290 -224 1292 -218 1292 -221 b 1286 -228 1289 -225 1288 -227 b 1284 -230 1285 -229 1285 -229 b 1281 -232 1283 -231 1282 -231 b 1269 -235 1278 -234 1273 -235 b 1248 -228 1262 -236 1254 -233 b 1237 -208 1243 -222 1239 -215 b 1233 -184 1235 -200 1234 -192 b 1233 -177 1233 -182 1233 -179 b 1251 -185 1239 -179 1245 -182 m 1862 1298 b 1844 1250 1856 1282 1850 1266 b 1835 1226 1841 1242 1838 1234 b 1825 1202 1831 1218 1828 1210 b 1805 1155 1818 1187 1812 1171 b 1784 1109 1798 1140 1791 1124 b 1762 1063 1777 1093 1769 1078 b 1716 971 1747 1032 1732 1001 b 1667 882 1700 941 1684 911 b 1616 794 1651 852 1634 823 l 1590 750 l 1577 729 b 1563 707 1572 721 1568 714 b 1536 664 1554 693 1545 678 l 1508 621 b 1452 532 1489 592 1470 562 b 1399 442 1434 502 1416 472 b 1331 304 1375 397 1352 351 b 1301 308 1321 306 1311 307 b 1195 324 1265 312 1230 318 l 1169 329 b 1142 334 1160 331 1151 332 b 1115 338 1133 335 1124 337 l 1102 340 b 1088 341 1097 340 1093 341 b 1059 344 1078 342 1069 343 b 1064 350 1060 346 1062 348 l 1083 369 l 1102 388 b 1140 427 1115 401 1127 414 l 1177 466 l 1195 485 b 1214 505 1202 492 1207 499 b 1286 585 1238 532 1262 558 l 1357 666 b 1629 1000 1451 775 1541 887 l 1663 1042 l 1695 1085 b 1761 1170 1717 1113 1739 1142 l 1865 1308 b 1862 1298 1864 1305 1863 1301 "},"Å":{"ha":1653,"x_min":0,"x_max":0,"o":"m 1889 1352 b 1892 1345 1891 1351 1892 1348 l 1892 1345 l 1892 1345 b 1891 1318 1892 1336 1891 1327 b 1888 1292 1890 1310 1889 1301 b 1881 1240 1886 1275 1884 1257 b 1871 1188 1878 1222 1875 1205 b 1865 1162 1869 1179 1867 1171 b 1859 1137 1863 1154 1861 1145 b 1793 936 1841 1068 1819 1001 b 1706 744 1768 871 1738 807 b 1655 651 1690 713 1673 682 b 1629 606 1647 636 1638 621 b 1602 562 1620 591 1611 576 b 1548 474 1584 532 1566 503 l 1496 386 b 1442 297 1478 357 1460 327 b 1514 298 1466 297 1490 297 b 1620 311 1550 300 1585 304 b 1671 326 1637 314 1654 319 b 1694 338 1679 329 1687 333 b 1709 357 1701 343 1707 350 l 1709 358 b 1712 360 1709 359 1710 360 b 1714 356 1714 359 1715 358 b 1708 343 1713 351 1711 347 b 1698 333 1705 339 1701 336 b 1674 319 1690 328 1682 323 b 1622 302 1657 312 1640 307 b 1515 287 1587 295 1551 289 b 1434 284 1488 285 1461 284 b 1390 211 1419 260 1405 236 b 1293 32 1356 153 1322 93 b 1255 -62 1279 1 1266 -30 b 1242 -111 1250 -78 1245 -94 b 1235 -147 1239 -123 1237 -135 b 1264 -159 1245 -150 1255 -154 b 1288 -174 1272 -163 1280 -168 b 1299 -184 1292 -177 1296 -180 b 1308 -198 1303 -188 1306 -193 b 1308 -218 1310 -204 1310 -211 b 1303 -226 1307 -221 1305 -223 b 1296 -231 1301 -228 1299 -229 b 1290 -234 1294 -232 1292 -233 b 1286 -235 1288 -234 1287 -235 l 1283 -236 b 1270 -240 1279 -238 1274 -239 b 1256 -241 1265 -241 1261 -241 b 1242 -235 1251 -240 1246 -238 b 1224 -213 1234 -230 1228 -222 b 1214 -187 1219 -205 1216 -196 b 1211 -169 1213 -181 1212 -175 b 1205 -167 1209 -169 1207 -168 b 1156 -156 1189 -163 1173 -159 b 1055 -146 1123 -150 1089 -147 b 851 -161 987 -144 918 -149 b 750 -184 817 -167 784 -175 b 649 -208 717 -193 683 -201 b 443 -235 582 -223 513 -232 b 236 -223 374 -238 304 -236 b 136 -195 202 -217 168 -208 b 45 -143 103 -183 72 -166 b 11 -103 32 -132 20 -118 b -5 -53 2 -88 -4 -70 b 1 0 -7 -35 -5 -17 b 25 47 7 17 15 33 b 27 49 25 48 26 49 b 30 49 28 49 30 49 b 32 46 31 48 32 47 b 32 43 32 45 32 44 l 32 43 l 32 43 b 9 -2 22 29 14 14 b 2 -52 3 -18 1 -35 b 18 -99 4 -69 9 -85 b 50 -138 26 -114 37 -127 b 138 -189 76 -160 107 -176 b 237 -216 170 -201 204 -210 b 443 -227 305 -228 374 -230 b 647 -197 512 -222 580 -213 b 747 -171 681 -190 714 -181 b 848 -145 780 -161 814 -152 b 1056 -121 916 -131 985 -122 b 1161 -128 1091 -121 1126 -123 b 1209 -139 1177 -131 1193 -134 b 1211 -106 1209 -128 1210 -117 b 1213 -79 1211 -97 1212 -88 b 1217 -53 1215 -70 1216 -62 b 1241 51 1223 -18 1231 17 b 1309 252 1259 119 1282 186 b 1324 289 1314 264 1319 277 b 1299 291 1316 290 1308 291 b 1192 305 1263 295 1227 300 l 1165 309 b 1139 313 1157 311 1148 312 b 1113 317 1130 315 1121 316 l 1099 318 b 1086 319 1095 318 1091 319 b 1036 322 1069 320 1052 321 b 903 205 993 281 949 242 b 724 81 846 160 787 117 b 675 56 708 72 692 64 b 625 34 659 48 642 40 b 519 6 591 21 556 10 b 491 4 510 5 501 5 b 484 5 489 5 487 4 b 477 5 482 5 479 5 b 463 9 472 6 467 7 b 440 28 453 13 445 19 b 434 41 437 32 435 36 b 433 55 433 46 433 51 b 439 83 433 65 436 74 b 452 107 443 91 447 99 b 485 151 462 123 473 137 b 566 226 509 179 536 204 b 588 241 573 231 580 236 b 611 256 595 247 603 252 b 660 283 627 266 643 275 b 871 342 726 314 798 333 b 980 348 907 346 943 348 b 997 348 986 348 991 348 b 1032 382 1009 359 1021 370 l 1051 401 l 1070 420 b 1107 458 1083 432 1095 445 b 1182 535 1132 484 1157 509 b 1255 613 1206 561 1231 587 l 1328 692 b 1613 1013 1425 797 1520 904 b 1749 1179 1659 1068 1704 1123 l 1783 1221 b 1815 1264 1794 1235 1805 1249 b 1879 1350 1837 1292 1858 1321 b 1884 1353 1880 1352 1882 1353 b 1889 1352 1885 1354 1887 1353 m 876 236 b 970 322 908 264 939 293 b 875 312 938 320 906 317 b 674 252 805 302 738 281 b 628 227 659 244 643 236 b 606 214 621 223 614 218 l 584 199 b 540 170 569 190 554 180 b 498 138 525 160 511 150 b 460 101 484 127 472 115 b 446 79 455 94 450 87 b 438 55 442 72 440 64 b 440 43 438 51 438 47 b 445 32 441 39 443 35 b 466 21 451 26 458 22 b 478 20 470 21 474 20 b 484 20 480 20 482 20 b 491 20 486 20 489 20 b 517 23 499 21 508 22 b 616 55 551 29 584 41 b 663 79 632 63 648 71 b 708 107 678 88 693 97 b 794 169 738 126 766 147 b 876 236 822 190 850 213 m 1251 -185 b 1233 -177 1245 -182 1239 -179 b 1233 -184 1233 -179 1233 -182 b 1237 -208 1234 -192 1235 -200 b 1248 -228 1239 -215 1243 -222 b 1269 -235 1254 -233 1262 -236 b 1281 -232 1273 -235 1278 -234 b 1284 -230 1282 -231 1283 -231 b 1286 -228 1285 -229 1285 -229 b 1290 -224 1288 -227 1289 -225 b 1291 -215 1292 -221 1292 -218 b 1286 -209 1290 -213 1288 -211 b 1279 -203 1284 -208 1282 -205 b 1271 -196 1277 -201 1274 -199 b 1251 -185 1265 -192 1258 -188 m 1862 1298 b 1865 1308 1863 1301 1864 1305 l 1761 1170 b 1695 1085 1739 1142 1717 1113 l 1663 1042 l 1629 1000 b 1357 666 1541 887 1451 775 l 1286 585 b 1214 505 1262 558 1238 532 b 1195 485 1207 499 1202 492 l 1177 466 l 1140 427 b 1102 388 1127 414 1115 401 l 1083 369 l 1064 350 b 1059 344 1062 348 1060 346 b 1088 341 1069 343 1078 342 b 1102 340 1093 341 1097 340 l 1115 338 b 1142 334 1124 337 1133 335 b 1169 329 1151 332 1160 331 l 1195 324 b 1301 308 1230 318 1265 312 b 1331 304 1311 307 1321 306 b 1399 442 1352 351 1375 397 b 1452 532 1416 472 1434 502 b 1508 621 1470 562 1489 592 l 1536 664 b 1563 707 1545 678 1554 693 b 1577 729 1568 714 1572 721 l 1590 750 l 1616 794 b 1667 882 1634 823 1651 852 b 1716 971 1684 911 1700 941 b 1762 1063 1732 1001 1747 1032 b 1784 1109 1769 1078 1777 1093 b 1805 1155 1791 1124 1798 1140 b 1825 1202 1812 1171 1818 1187 b 1835 1226 1828 1210 1831 1218 b 1844 1250 1838 1234 1841 1242 b 1862 1298 1850 1266 1856 1282 "},"B":{"ha":1899,"x_min":0,"x_max":0,"o":"m 1910 1027 b 1908 990 1911 1015 1910 1002 b 1904 971 1907 983 1905 977 b 1898 954 1902 965 1900 959 b 1870 890 1891 932 1882 910 b 1776 786 1847 849 1815 813 b 1747 768 1767 779 1757 773 b 1716 753 1737 762 1726 757 b 1653 731 1696 744 1674 737 b 1589 719 1632 726 1611 722 b 1581 718 1586 719 1583 718 b 1600 714 1587 717 1594 715 b 1666 690 1623 708 1645 700 b 1727 651 1688 680 1709 666 b 1754 624 1737 642 1746 633 b 1795 560 1771 605 1785 583 b 1809 524 1800 548 1805 536 b 1822 450 1816 500 1820 475 b 1820 377 1823 426 1823 402 b 1807 305 1818 353 1813 329 b 1744 173 1794 258 1772 213 b 1639 74 1715 134 1680 100 b 1576 40 1619 61 1598 49 b 1510 17 1555 31 1533 23 b 1476 10 1499 15 1488 12 b 1443 5 1465 8 1454 6 b 1375 2 1420 3 1397 1 b 1307 7 1352 2 1330 4 b 1242 23 1285 11 1264 16 b 1179 45 1221 29 1200 36 b 1118 71 1158 53 1138 62 b 1072 93 1103 78 1087 86 b 1015 53 1054 79 1035 65 b 885 2 975 28 931 11 b 832 -4 868 -1 850 -4 b 745 -88 805 -35 776 -63 b 644 -153 713 -113 680 -135 b 531 -197 608 -172 570 -187 b 412 -209 492 -207 452 -211 b 352 -202 391 -209 371 -206 b 294 -185 332 -198 312 -192 b 102 -42 218 -156 152 -106 b 69 8 90 -26 79 -9 b 41 62 58 25 49 43 b 6 177 25 98 13 137 b 10 416 -8 256 -6 337 b 230 835 40 573 118 720 b 420 978 285 892 349 942 b 533 1020 456 997 494 1011 b 593 1026 553 1024 573 1026 b 653 1019 613 1027 634 1024 b 656 1015 655 1018 656 1017 b 655 1011 657 1014 656 1012 b 651 1010 654 1010 652 1010 l 651 1010 b 593 1018 632 1016 613 1018 b 535 1011 574 1018 554 1015 b 424 970 497 1002 459 989 b 245 820 354 934 299 877 b 48 414 146 714 78 569 b 43 179 34 336 28 256 b 71 66 50 140 56 102 b 298 -174 79 48 129 -90 b 357 -193 317 -182 336 -189 b 412 -200 375 -197 394 -199 b 528 -185 451 -202 490 -194 b 638 -142 567 -175 603 -161 b 737 -78 673 -124 706 -102 b 814 -5 764 -56 790 -31 b 783 -5 803 -5 793 -5 b 749 -4 772 -5 760 -5 b 681 6 726 -2 704 1 b 616 23 659 10 637 16 b 553 48 594 30 573 38 b 495 87 531 58 512 71 b 472 116 486 95 478 105 b 463 154 466 128 463 141 b 464 164 463 157 464 160 b 465 168 465 165 465 167 b 467 173 466 170 466 171 b 474 189 469 178 471 184 b 497 218 480 200 488 210 b 559 248 515 234 537 242 b 625 256 581 253 603 255 b 822 221 692 256 759 244 b 883 196 843 214 863 205 b 930 173 899 188 915 181 b 976 318 951 219 967 268 b 988 435 984 357 988 396 b 985 491 988 454 987 473 b 965 496 978 493 972 494 b 934 508 954 499 944 503 b 905 526 923 513 914 519 b 860 578 887 540 871 558 b 835 642 848 598 840 620 b 828 711 830 665 828 688 b 828 719 828 713 828 716 b 775 718 811 722 792 722 b 723 695 756 713 738 706 b 642 549 675 661 645 608 b 700 443 654 510 674 474 b 800 361 728 409 762 382 b 860 334 819 350 839 341 b 875 329 865 332 870 331 b 883 327 878 328 881 328 b 891 325 885 326 888 326 b 923 321 901 324 912 322 l 923 321 b 929 314 927 321 930 318 b 922 307 929 310 926 307 b 892 309 912 307 902 308 b 862 313 882 310 872 311 b 803 327 842 316 822 321 b 697 385 764 339 727 357 b 658 432 681 399 668 415 b 634 489 647 450 639 469 b 628 547 629 508 627 527 b 626 552 627 549 626 550 b 612 686 614 596 609 641 b 622 752 614 708 617 731 b 636 818 626 774 631 796 b 681 944 648 861 663 903 b 747 1060 699 985 721 1024 b 838 1159 774 1096 804 1130 b 891 1200 854 1174 872 1187 b 949 1233 910 1212 929 1224 b 1077 1275 989 1254 1032 1268 b 1144 1281 1099 1279 1121 1281 b 1211 1271 1167 1281 1189 1278 b 1273 1241 1233 1264 1254 1254 b 1303 1214 1284 1233 1294 1224 b 1504 1254 1369 1232 1436 1246 b 1623 1268 1544 1260 1583 1264 b 1696 1344 1645 1295 1670 1321 b 1752 1385 1713 1360 1732 1374 b 1786 1399 1763 1391 1774 1396 b 1806 1401 1793 1400 1799 1401 b 1816 1399 1809 1400 1813 1400 b 1826 1394 1820 1398 1823 1396 b 1839 1376 1832 1389 1837 1383 b 1840 1356 1841 1369 1841 1362 b 1825 1322 1838 1343 1833 1332 b 1800 1297 1818 1312 1809 1304 b 1770 1279 1790 1290 1780 1284 b 1754 1273 1765 1277 1759 1275 b 1737 1268 1748 1271 1743 1269 b 1704 1262 1726 1265 1715 1264 b 1680 1260 1696 1262 1688 1261 b 1652 1211 1670 1244 1661 1228 b 1596 1094 1631 1173 1613 1134 b 1548 973 1579 1054 1563 1014 b 1503 851 1532 932 1517 892 l 1481 789 l 1470 758 l 1460 730 b 1533 726 1484 730 1508 728 b 1539 725 1535 725 1537 725 b 1586 735 1555 727 1570 730 b 1615 745 1596 737 1605 741 b 1643 757 1624 748 1634 753 b 1732 833 1678 776 1708 802 b 1763 881 1744 848 1754 864 b 1786 931 1771 897 1779 914 b 1805 984 1793 948 1799 966 b 1809 997 1806 989 1808 993 b 1812 1009 1810 1001 1811 1005 b 1818 1033 1814 1017 1816 1025 b 1824 1083 1822 1050 1824 1067 b 1822 1110 1824 1092 1824 1101 b 1814 1136 1820 1119 1818 1128 b 1779 1182 1806 1154 1794 1170 b 1724 1205 1763 1195 1744 1203 b 1695 1204 1714 1206 1705 1206 b 1669 1194 1686 1203 1677 1199 b 1651 1173 1661 1189 1655 1182 b 1645 1144 1647 1164 1645 1154 l 1645 1144 b 1642 1141 1645 1142 1644 1141 b 1639 1144 1641 1141 1639 1142 b 1642 1176 1638 1155 1639 1166 b 1661 1205 1645 1188 1652 1197 b 1692 1219 1670 1212 1681 1217 b 1726 1219 1704 1221 1715 1221 b 1742 1216 1731 1218 1737 1217 b 1758 1211 1748 1215 1753 1213 b 1789 1199 1769 1208 1779 1204 b 1846 1161 1810 1189 1829 1177 b 1871 1134 1856 1153 1864 1144 b 1892 1102 1879 1124 1886 1113 b 1905 1066 1897 1091 1902 1078 b 1907 1056 1906 1063 1906 1059 b 1908 1047 1908 1053 1908 1050 b 1910 1027 1909 1040 1910 1034 m 1498 721 b 1466 725 1487 723 1477 724 b 1458 725 1463 725 1461 725 b 1456 721 1457 724 1457 722 b 1462 721 1458 721 1460 721 b 1498 721 1474 720 1486 720 m 1766 1363 b 1722 1319 1750 1350 1735 1336 b 1689 1274 1710 1305 1699 1290 b 1702 1276 1693 1275 1698 1275 b 1734 1282 1712 1278 1723 1280 b 1748 1287 1739 1283 1744 1285 b 1763 1293 1753 1289 1758 1291 b 1811 1332 1782 1303 1799 1315 b 1823 1358 1817 1339 1821 1349 b 1822 1371 1824 1362 1824 1367 b 1817 1379 1822 1374 1820 1377 b 1805 1381 1813 1381 1809 1382 b 1792 1378 1801 1381 1796 1380 b 1766 1363 1783 1375 1774 1370 m 987 555 b 998 495 992 535 996 515 b 999 495 998 495 999 495 b 1096 505 1032 490 1065 494 b 1154 535 1116 513 1136 523 b 1203 578 1172 548 1188 562 b 1280 685 1234 610 1259 646 b 1330 806 1301 724 1317 764 b 1347 870 1337 827 1342 849 b 1357 935 1352 891 1355 913 b 1356 1065 1363 978 1362 1022 b 1340 1128 1353 1087 1347 1108 b 1310 1185 1333 1148 1323 1167 b 1298 1200 1306 1190 1302 1195 b 1250 1181 1282 1194 1266 1188 b 1031 1042 1169 1147 1096 1098 b 945 946 998 1014 969 982 b 884 833 920 911 900 873 b 865 772 876 814 870 793 b 856 725 861 757 858 741 b 890 706 868 720 879 714 b 934 664 907 694 922 680 b 987 555 960 632 977 594 m 794 348 b 689 434 754 370 719 399 b 645 503 672 455 657 478 b 647 492 646 499 646 496 b 670 439 652 474 660 456 b 706 395 679 423 692 408 b 807 340 735 369 770 352 b 815 338 810 339 812 338 b 794 348 807 341 801 345 m 772 731 b 829 732 790 735 810 736 b 830 745 829 736 830 741 b 835 779 831 756 833 768 b 843 812 837 790 840 801 b 848 829 845 818 846 823 b 853 845 850 834 851 840 b 917 966 869 888 891 928 b 1009 1067 944 1003 974 1037 b 1022 1078 1013 1070 1018 1074 b 1035 1088 1026 1081 1031 1085 b 1049 1098 1040 1091 1044 1095 b 1063 1108 1054 1101 1058 1105 b 1121 1143 1082 1120 1101 1132 b 1244 1196 1161 1164 1202 1182 b 1288 1210 1259 1201 1274 1206 b 1265 1230 1281 1217 1273 1224 b 1207 1258 1247 1242 1228 1251 b 1144 1267 1187 1264 1165 1267 b 1079 1262 1122 1267 1100 1265 b 955 1221 1036 1254 994 1240 b 899 1188 936 1211 917 1200 b 847 1148 881 1176 863 1163 b 759 1052 814 1120 784 1087 b 694 938 733 1016 711 978 b 650 814 676 898 661 856 b 635 750 644 793 639 771 b 626 685 631 728 628 707 b 633 584 624 651 626 617 b 640 610 635 593 637 602 b 715 706 655 649 681 683 b 772 731 732 718 751 726 m 967 503 b 984 498 973 501 979 499 b 974 551 982 516 979 534 b 924 656 964 589 948 625 b 882 695 912 671 898 684 b 854 711 874 701 864 707 b 854 709 854 710 854 710 b 856 646 852 688 853 667 b 873 585 858 625 864 604 b 890 558 878 575 883 566 b 911 534 896 549 903 541 b 938 516 919 527 928 521 b 967 503 947 510 957 506 m 989 315 b 942 167 979 264 963 214 b 1002 136 962 157 982 146 b 1024 124 1009 132 1017 128 b 1076 183 1043 142 1060 162 b 1147 289 1102 216 1126 252 b 1178 346 1157 308 1168 326 b 1206 403 1187 365 1197 384 b 1259 522 1225 442 1242 482 b 1307 643 1275 562 1292 602 b 1353 765 1323 683 1338 724 l 1364 796 b 1376 828 1368 807 1372 817 b 1401 890 1384 849 1393 870 b 1459 1013 1419 932 1438 973 b 1491 1072 1469 1033 1480 1053 b 1526 1131 1502 1092 1514 1112 b 1603 1243 1550 1170 1576 1207 b 1614 1256 1607 1247 1610 1252 b 1505 1246 1577 1253 1541 1251 b 1375 1223 1461 1241 1418 1234 b 1343 1215 1364 1221 1354 1218 b 1312 1205 1333 1212 1322 1209 b 1321 1193 1315 1201 1318 1197 b 1353 1133 1334 1175 1345 1154 b 1369 1067 1361 1112 1366 1090 b 1371 933 1376 1023 1376 978 b 1360 867 1369 911 1365 889 b 1342 803 1355 845 1349 824 b 1288 681 1328 760 1310 719 b 1208 574 1266 642 1240 605 b 1157 531 1192 558 1175 544 b 1097 500 1138 518 1118 508 b 1032 488 1076 493 1054 488 b 999 489 1021 487 1010 488 b 1001 435 1001 471 1002 453 b 989 315 1001 395 997 355 m 815 24 b 841 28 824 25 833 26 b 891 99 860 50 876 74 b 927 167 905 121 917 143 b 880 189 912 174 896 182 b 756 232 840 207 799 222 b 691 245 735 238 713 242 b 658 248 680 246 669 247 b 626 249 647 249 637 249 b 561 239 604 248 582 245 b 532 226 551 236 541 232 b 507 207 523 221 514 215 b 492 181 501 199 495 191 b 488 167 490 177 489 172 b 487 160 488 165 487 162 b 486 153 487 157 486 155 b 493 127 486 144 488 135 b 511 104 498 119 504 111 b 563 70 527 90 544 79 b 623 46 583 61 603 53 b 686 31 644 40 665 35 b 750 22 707 26 729 24 b 782 22 761 21 772 21 b 815 24 793 22 804 23 m 963 75 b 988 93 971 80 980 86 b 1019 120 999 101 1009 110 b 999 130 1013 123 1006 127 b 939 161 979 140 959 151 b 902 92 928 137 916 114 b 861 31 890 71 876 51 b 877 36 866 33 872 34 b 907 46 887 38 897 42 b 936 59 917 49 926 54 b 963 75 945 64 954 69 m 1645 657 b 1531 714 1614 684 1573 703 b 1530 714 1531 714 1530 714 b 1525 714 1529 714 1527 714 b 1455 716 1502 714 1478 714 b 1410 601 1441 678 1426 639 b 1289 359 1375 518 1336 437 b 1272 330 1284 349 1277 339 b 1253 301 1265 320 1259 311 b 1214 245 1240 282 1227 263 b 1171 191 1200 227 1186 209 b 1124 140 1156 174 1140 157 b 1077 97 1109 125 1093 111 b 1120 76 1091 90 1106 83 b 1182 51 1141 67 1161 59 b 1245 32 1202 44 1223 37 b 1374 19 1287 21 1331 16 b 1499 50 1417 22 1459 33 b 1602 120 1537 67 1572 91 b 1642 166 1617 134 1630 150 b 1659 191 1648 174 1653 183 b 1673 217 1664 200 1669 209 b 1713 329 1691 253 1705 290 b 1722 387 1717 348 1720 368 b 1726 447 1724 407 1725 427 b 1711 560 1726 486 1722 524 l 1708 567 b 1706 574 1707 569 1707 572 b 1703 580 1705 576 1704 578 b 1700 587 1702 583 1701 585 b 1686 612 1696 596 1691 604 b 1645 657 1674 629 1661 644 "},"C":{"ha":1346,"x_min":0,"x_max":0,"o":"m 1542 1268 b 1547 1233 1546 1257 1548 1245 b 1539 1198 1546 1221 1544 1209 b 1523 1167 1535 1187 1529 1177 b 1476 1117 1510 1148 1494 1131 b 1417 1083 1457 1104 1438 1092 b 1354 1061 1396 1074 1375 1067 b 1288 1045 1332 1054 1310 1049 b 1157 1026 1245 1036 1201 1031 b 1024 1016 1113 1022 1069 1018 b 958 1012 1002 1015 980 1013 b 925 1011 947 1012 936 1011 b 892 1009 914 1010 903 1009 b 761 993 848 1005 804 1000 b 708 983 743 990 726 987 b 568 794 657 923 610 860 b 505 684 545 758 524 722 b 479 628 496 666 487 647 b 455 570 470 609 462 590 b 420 453 441 532 429 493 b 410 392 416 433 412 413 b 408 332 408 372 407 352 b 434 214 409 292 418 252 b 505 113 450 176 474 142 b 555 74 520 99 537 86 b 613 45 573 63 593 53 b 739 18 653 29 696 20 b 837 23 772 16 804 18 b 806 60 825 34 815 46 b 780 124 794 79 785 101 b 775 193 775 147 773 170 b 784 261 776 216 779 239 b 793 295 787 272 790 284 b 806 327 797 306 801 317 b 880 442 824 369 849 408 b 983 529 910 476 945 506 b 1044 559 1003 541 1023 551 b 1110 573 1066 567 1088 571 b 1144 570 1122 573 1133 572 b 1176 561 1155 568 1166 565 b 1205 542 1187 556 1197 550 b 1216 529 1209 538 1213 534 b 1225 514 1220 524 1223 519 b 1236 482 1230 504 1234 493 b 1240 448 1239 471 1240 459 b 1235 380 1241 425 1240 402 b 1218 314 1231 357 1226 335 b 1191 251 1211 292 1202 271 b 1109 142 1170 211 1144 173 l 1096 131 l 1090 125 l 1083 120 l 1077 115 l 1070 110 l 1063 104 l 1056 100 b 998 65 1038 87 1018 75 b 863 17 955 43 910 27 b 915 -15 879 4 897 -7 b 977 -37 935 -25 956 -32 b 1042 -49 998 -43 1020 -47 b 1174 -59 1086 -54 1130 -56 b 1306 -68 1218 -62 1262 -64 b 1372 -76 1328 -70 1350 -72 b 1437 -88 1394 -79 1416 -83 b 1469 -99 1448 -91 1459 -95 b 1499 -115 1480 -103 1489 -109 b 1509 -124 1502 -118 1506 -121 b 1514 -129 1511 -126 1513 -127 l 1514 -130 b 1520 -141 1516 -133 1519 -137 b 1524 -175 1525 -152 1526 -164 l 1518 -174 b 1515 -143 1520 -164 1519 -153 b 1506 -129 1513 -138 1510 -134 b 1483 -116 1499 -124 1492 -120 b 1452 -108 1473 -112 1463 -109 b 1386 -105 1430 -104 1408 -104 b 1321 -112 1365 -106 1343 -108 b 1256 -122 1299 -115 1277 -118 b 996 -177 1169 -139 1083 -160 b 734 -218 910 -195 822 -210 b 468 -212 646 -226 556 -226 b 339 -179 424 -205 381 -194 b 218 -121 296 -164 256 -145 b 113 -35 179 -97 144 -68 b 37 78 82 -1 57 37 b -1 210 18 120 5 164 b -1 346 -7 255 -7 301 b 31 478 5 391 15 435 b 89 600 46 521 66 562 b 172 708 113 639 141 675 b 184 720 176 712 180 716 l 196 731 b 209 742 200 735 204 738 b 221 753 213 746 217 749 b 274 794 238 767 256 781 b 329 833 292 808 310 820 b 386 868 347 845 366 856 b 504 927 424 890 464 910 l 520 934 l 535 940 b 542 942 538 940 540 941 b 655 1063 577 985 615 1025 b 706 1108 671 1078 688 1093 b 719 1119 710 1112 714 1116 l 732 1130 l 746 1141 l 753 1146 l 760 1151 l 774 1161 l 788 1171 l 795 1176 l 802 1181 l 816 1190 b 875 1225 836 1202 855 1214 b 1128 1324 955 1269 1040 1302 b 1261 1347 1172 1335 1216 1343 b 1328 1351 1283 1349 1306 1351 b 1362 1350 1339 1351 1350 1351 b 1395 1348 1373 1350 1384 1349 b 1462 1334 1418 1346 1440 1341 b 1494 1320 1473 1330 1484 1325 b 1522 1299 1504 1314 1514 1307 b 1542 1268 1530 1290 1537 1280 m 821 68 b 838 42 826 59 832 50 b 853 26 843 36 848 31 b 869 30 858 28 864 29 b 989 80 912 41 952 58 b 1043 118 1008 92 1026 104 l 1049 123 l 1055 128 l 1061 133 l 1067 139 l 1073 144 l 1079 150 l 1085 155 l 1090 161 b 1128 212 1104 177 1117 194 b 1162 267 1140 230 1152 248 b 1213 385 1183 304 1201 344 b 1226 448 1220 405 1224 426 b 1225 480 1227 459 1226 469 b 1222 496 1225 485 1224 490 b 1217 511 1221 501 1219 506 b 1200 537 1213 521 1208 530 b 1188 548 1197 541 1192 545 b 1181 552 1186 549 1184 550 b 1174 555 1179 553 1177 554 b 1111 566 1154 564 1132 568 b 1048 549 1089 564 1068 558 b 994 515 1029 540 1010 528 b 905 421 959 488 930 456 b 839 312 879 387 857 351 b 826 283 834 302 830 293 b 816 253 822 273 819 263 b 808 222 813 243 810 232 b 803 191 806 212 804 201 b 800 159 801 180 801 170 b 802 128 800 149 801 138 b 821 68 805 107 811 87 m 476 855 b 532 930 494 881 513 906 l 523 926 l 508 920 b 492 913 502 918 497 916 l 477 907 b 448 892 468 902 458 897 b 390 860 428 882 409 871 l 376 851 b 363 842 372 848 367 845 b 336 823 354 836 345 829 b 285 781 318 809 301 795 b 237 736 268 766 252 751 b 226 724 233 732 229 728 b 214 712 222 720 218 716 l 192 688 b 115 585 163 657 137 622 b 32 342 72 510 42 427 b 66 91 22 257 32 169 b 133 -18 83 52 105 15 b 229 -104 161 -51 193 -80 b 344 -165 265 -129 303 -149 b 470 -200 385 -181 427 -192 b 601 -213 514 -207 557 -212 b 733 -209 645 -214 689 -213 b 995 -171 821 -202 908 -188 b 1125 -144 1038 -163 1082 -153 b 1255 -118 1168 -135 1211 -126 b 1386 -100 1298 -110 1342 -102 b 1453 -103 1408 -99 1431 -99 b 1477 -108 1461 -104 1469 -106 b 1467 -104 1474 -107 1470 -105 b 1436 -93 1457 -100 1447 -96 b 1371 -81 1415 -88 1393 -84 b 1306 -73 1350 -78 1328 -75 b 1041 -55 1218 -66 1129 -63 b 911 -24 997 -51 953 -42 b 853 9 891 -16 871 -4 b 847 14 851 11 849 12 b 739 6 811 8 775 5 b 672 12 717 6 694 8 b 606 27 650 15 628 20 b 543 52 584 34 563 42 b 483 87 522 62 502 74 b 431 133 464 101 447 116 b 386 189 414 150 399 169 b 332 322 360 230 342 275 b 324 394 328 346 325 370 b 324 466 322 418 323 442 b 352 606 328 513 337 560 b 405 735 366 650 384 694 b 476 855 426 776 450 816 m 1531 1234 b 1527 1263 1532 1243 1530 1253 b 1511 1287 1523 1272 1518 1280 b 1457 1318 1496 1302 1477 1312 b 1394 1330 1436 1325 1415 1329 b 1361 1331 1383 1331 1372 1331 b 1329 1330 1350 1331 1340 1331 b 1264 1322 1307 1328 1285 1326 b 1138 1291 1221 1315 1179 1305 b 909 1172 1056 1262 979 1222 b 858 1133 891 1160 874 1146 l 846 1123 l 840 1117 l 834 1112 l 822 1102 l 810 1091 l 804 1085 l 798 1080 l 787 1069 b 765 1046 780 1061 772 1054 b 721 998 750 1030 736 1014 b 716 992 719 996 718 994 b 760 1000 730 995 745 997 b 891 1016 803 1007 847 1013 b 925 1019 902 1017 914 1018 l 958 1021 b 1024 1025 980 1022 1002 1024 b 1155 1038 1068 1029 1112 1033 b 1286 1059 1199 1043 1243 1050 b 1410 1098 1328 1068 1371 1080 b 1465 1131 1430 1107 1448 1118 b 1509 1176 1482 1144 1497 1159 b 1531 1234 1521 1194 1530 1214 "},"Ç":{"ha":1346,"x_min":0,"x_max":0,"o":"m 1542 1268 b 1522 1299 1537 1280 1530 1290 b 1494 1320 1514 1307 1504 1314 b 1462 1334 1484 1325 1473 1330 b 1395 1348 1440 1341 1418 1346 b 1362 1350 1384 1349 1373 1350 b 1328 1351 1350 1351 1339 1351 b 1261 1347 1306 1351 1283 1349 b 1128 1324 1216 1343 1172 1335 b 875 1225 1040 1302 955 1269 b 816 1190 855 1214 836 1202 l 802 1181 l 795 1176 l 788 1171 l 774 1161 l 760 1151 l 753 1146 l 746 1141 l 732 1130 l 719 1119 b 706 1108 714 1116 710 1112 b 655 1063 688 1093 671 1078 b 542 942 615 1025 577 985 b 535 940 540 941 538 940 l 520 934 l 504 927 b 386 868 464 910 424 890 b 329 833 366 856 347 845 b 274 794 310 820 292 808 b 221 753 256 781 238 767 b 209 742 217 749 213 746 b 196 731 204 738 200 735 l 184 720 b 172 708 180 716 176 712 b 89 600 141 675 113 639 b 31 478 66 562 46 521 b -1 346 15 435 5 391 b -1 210 -7 301 -7 255 b 37 78 5 164 18 120 b 113 -35 57 37 82 -1 b 218 -121 144 -68 179 -97 b 339 -179 256 -145 296 -164 b 468 -212 381 -194 424 -205 b 734 -218 556 -226 646 -226 b 996 -177 822 -210 910 -195 b 1256 -122 1083 -160 1169 -139 b 1321 -112 1277 -118 1299 -115 b 1386 -105 1343 -108 1365 -106 b 1452 -108 1408 -104 1430 -104 b 1483 -116 1463 -109 1473 -112 b 1506 -129 1492 -120 1499 -124 b 1515 -143 1510 -134 1513 -138 b 1518 -174 1519 -153 1520 -164 l 1524 -175 b 1520 -141 1526 -164 1525 -152 b 1514 -130 1519 -137 1516 -133 l 1514 -129 b 1509 -124 1513 -127 1511 -126 b 1499 -115 1506 -121 1502 -118 b 1469 -99 1489 -109 1480 -103 b 1437 -88 1459 -95 1448 -91 b 1372 -76 1416 -83 1394 -79 b 1306 -68 1350 -72 1328 -70 b 1174 -59 1262 -64 1218 -62 b 1042 -49 1130 -56 1086 -54 b 977 -37 1020 -47 998 -43 b 915 -15 956 -32 935 -25 b 863 17 897 -7 879 4 b 998 65 910 27 955 43 b 1056 100 1018 75 1038 87 l 1063 104 l 1070 110 l 1077 115 l 1083 120 l 1090 125 l 1096 131 l 1109 142 b 1191 251 1144 173 1170 211 b 1218 314 1202 271 1211 292 b 1235 380 1226 335 1231 357 b 1240 448 1240 402 1241 425 b 1236 482 1240 459 1239 471 b 1225 514 1234 493 1230 504 b 1216 529 1223 519 1220 524 b 1205 542 1213 534 1209 538 b 1176 561 1197 550 1187 556 b 1144 570 1166 565 1155 568 b 1110 573 1133 572 1122 573 b 1044 559 1088 571 1066 567 b 983 529 1023 551 1003 541 b 880 442 945 506 910 476 b 806 327 849 408 824 369 b 793 295 801 317 797 306 b 784 261 790 284 787 272 b 775 193 779 239 776 216 b 780 124 773 170 775 147 b 806 60 785 101 794 79 b 837 23 815 46 825 34 b 739 18 804 18 772 16 b 613 45 696 20 653 29 b 555 74 593 53 573 63 b 505 113 537 86 520 99 b 434 214 474 142 450 176 b 408 332 418 252 409 292 b 410 392 407 352 408 372 b 420 453 412 413 416 433 b 455 570 429 493 441 532 b 479 628 462 590 470 609 b 505 684 487 647 496 666 b 568 794 524 722 545 758 b 708 983 610 860 657 923 b 761 993 726 987 743 990 b 892 1009 804 1000 848 1005 b 925 1011 903 1009 914 1010 b 958 1012 936 1011 947 1012 b 1024 1016 980 1013 1002 1015 b 1157 1026 1069 1018 1113 1022 b 1288 1045 1201 1031 1245 1036 b 1354 1061 1310 1049 1332 1054 b 1417 1083 1375 1067 1396 1074 b 1476 1117 1438 1092 1457 1104 b 1523 1167 1494 1131 1510 1148 b 1539 1198 1529 1177 1535 1187 b 1547 1233 1544 1209 1546 1221 b 1542 1268 1548 1245 1546 1257 m 821 68 b 802 128 811 87 805 107 b 800 159 801 138 800 149 b 803 191 801 170 801 180 b 808 222 804 201 806 212 b 816 253 810 232 813 243 b 826 283 819 263 822 273 b 839 312 830 293 834 302 b 905 421 857 351 879 387 b 994 515 930 456 959 488 b 1048 549 1010 528 1029 540 b 1111 566 1068 558 1089 564 b 1174 555 1132 568 1154 564 b 1181 552 1177 554 1179 553 b 1188 548 1184 550 1186 549 b 1200 537 1192 545 1197 541 b 1217 511 1208 530 1213 521 b 1222 496 1219 506 1221 501 b 1225 480 1224 490 1225 485 b 1226 448 1226 469 1227 459 b 1213 385 1224 426 1220 405 b 1162 267 1201 344 1183 304 b 1128 212 1152 248 1140 230 b 1090 161 1117 194 1104 177 l 1085 155 l 1079 150 l 1073 144 l 1067 139 l 1061 133 l 1055 128 l 1049 123 l 1043 118 b 989 80 1026 104 1008 92 b 869 30 952 58 912 41 b 853 26 864 29 858 28 b 838 42 848 31 843 36 b 821 68 832 50 826 59 m 476 855 b 405 735 450 816 426 776 b 352 606 384 694 366 650 b 324 466 337 560 328 513 b 324 394 323 442 322 418 b 332 322 325 370 328 346 b 386 189 342 275 360 230 b 431 133 399 169 414 150 b 483 87 447 116 464 101 b 543 52 502 74 522 62 b 606 27 563 42 584 34 b 672 12 628 20 650 15 b 739 6 694 8 717 6 b 847 14 775 5 811 8 b 853 9 849 12 851 11 b 911 -24 871 -4 891 -16 b 1041 -55 953 -42 997 -51 b 1306 -73 1129 -63 1218 -66 b 1371 -81 1328 -75 1350 -78 b 1436 -93 1393 -84 1415 -88 b 1467 -104 1447 -96 1457 -100 b 1477 -108 1470 -105 1474 -107 b 1453 -103 1469 -106 1461 -104 b 1386 -100 1431 -99 1408 -99 b 1255 -118 1342 -102 1298 -110 b 1125 -144 1211 -126 1168 -135 b 995 -171 1082 -153 1038 -163 b 733 -209 908 -188 821 -202 b 601 -213 689 -213 645 -214 b 470 -200 557 -212 514 -207 b 344 -165 427 -192 385 -181 b 229 -104 303 -149 265 -129 b 133 -18 193 -80 161 -51 b 66 91 105 15 83 52 b 32 342 32 169 22 257 b 115 585 42 427 72 510 b 192 688 137 622 163 657 l 214 712 b 226 724 218 716 222 720 b 237 736 229 728 233 732 b 285 781 252 751 268 766 b 336 823 301 795 318 809 b 363 842 345 829 354 836 b 376 851 367 845 372 848 l 390 860 b 448 892 409 871 428 882 b 477 907 458 897 468 902 l 492 913 b 508 920 497 916 502 918 l 523 926 l 532 930 b 476 855 513 906 494 881 m 1531 1234 b 1509 1176 1530 1214 1521 1194 b 1465 1131 1497 1159 1482 1144 b 1410 1098 1448 1118 1430 1107 b 1286 1059 1371 1080 1328 1068 b 1155 1038 1243 1050 1199 1043 b 1024 1025 1112 1033 1068 1029 b 958 1021 1002 1024 980 1022 l 925 1019 b 891 1016 914 1018 902 1017 b 760 1000 847 1013 803 1007 b 716 992 745 997 730 995 b 721 998 718 994 719 996 b 765 1046 736 1014 750 1030 b 787 1069 772 1054 780 1061 l 798 1080 l 804 1085 l 810 1091 l 822 1102 l 834 1112 l 840 1117 l 846 1123 l 858 1133 b 909 1172 874 1146 891 1160 b 1138 1291 979 1222 1056 1262 b 1264 1322 1179 1305 1221 1315 b 1329 1330 1285 1326 1307 1328 b 1361 1331 1340 1331 1350 1331 b 1394 1330 1372 1331 1383 1331 b 1457 1318 1415 1329 1436 1325 b 1511 1287 1477 1312 1496 1302 b 1527 1263 1518 1280 1523 1272 b 1531 1234 1530 1253 1532 1243 "},"D":{"ha":1719,"x_min":0,"x_max":0,"o":"m 2173 -134 b 2141 -154 2163 -142 2152 -149 b 2107 -169 2130 -160 2119 -165 b 2036 -190 2084 -178 2060 -185 b 1890 -214 1988 -201 1939 -209 b 1595 -221 1792 -223 1693 -225 b 1301 -190 1496 -216 1398 -206 b 1013 -121 1203 -174 1107 -151 b 741 -4 919 -91 827 -53 b 724 5 736 -1 730 2 b 720 1 723 4 721 2 b 612 -105 687 -37 651 -73 b 551 -151 593 -122 572 -137 b 519 -171 541 -158 530 -165 b 486 -189 508 -177 497 -183 b 342 -229 441 -211 392 -226 b 304 -229 329 -230 317 -230 b 267 -227 292 -229 280 -228 b 194 -214 242 -224 218 -220 b 123 -185 169 -207 145 -198 b 91 -163 112 -179 101 -171 b 65 -133 81 -154 73 -144 b 43 -55 50 -110 42 -83 b 64 21 44 -28 52 -2 b 69 29 65 24 67 27 b 74 38 70 32 72 35 b 86 54 78 44 82 49 b 114 81 95 64 104 73 b 181 118 135 96 157 109 b 217 129 193 122 205 126 b 254 137 230 132 242 135 b 329 143 279 141 304 143 b 476 123 378 142 428 136 b 617 76 524 111 571 96 b 680 47 638 67 659 57 b 715 106 692 66 704 86 b 696 117 709 110 703 114 b 602 164 666 135 634 151 b 501 199 569 178 535 189 b 397 221 467 208 432 216 b 291 232 362 227 326 230 b 184 228 255 233 220 232 b 81 204 149 224 114 217 b 35 179 65 198 49 189 b 0 141 20 169 8 156 l -5 143 b 31 183 4 159 16 173 b 79 209 46 194 62 203 b 184 234 113 222 148 229 b 291 239 219 238 255 240 b 398 230 327 238 363 235 b 607 178 470 220 540 203 b 706 133 641 166 674 151 b 724 123 712 130 718 126 b 745 161 731 136 738 148 b 776 226 756 183 766 204 b 791 259 781 237 786 248 b 806 292 796 270 801 281 b 862 425 826 336 844 380 b 915 560 880 470 898 515 b 928 594 919 571 923 583 b 941 628 932 605 936 617 b 967 698 949 651 958 675 b 1092 970 1003 790 1044 882 b 1170 1100 1116 1014 1142 1058 b 1264 1219 1199 1142 1230 1182 b 1360 1303 1293 1250 1325 1279 b 1306 1324 1343 1311 1324 1318 b 831 1261 1146 1374 973 1351 b 836 1258 833 1260 835 1259 b 873 1218 851 1247 864 1234 b 895 1168 883 1202 890 1186 b 910 1062 906 1134 910 1097 b 901 955 910 1026 907 990 b 875 850 895 919 886 884 b 836 750 865 816 851 782 b 780 658 820 718 802 687 b 704 582 759 629 734 603 b 656 556 689 571 673 563 b 603 543 639 549 621 544 b 548 555 584 542 565 546 b 509 596 532 565 518 579 b 488 648 499 612 492 629 b 482 703 484 666 482 684 b 485 758 481 721 482 740 b 494 812 487 776 490 794 b 528 916 503 848 514 882 b 576 1014 542 950 558 982 b 636 1104 594 1045 614 1075 b 670 1147 647 1119 658 1133 b 707 1187 681 1161 694 1174 b 792 1254 733 1212 762 1235 b 808 1265 798 1258 803 1261 b 784 1271 801 1268 793 1270 b 732 1271 767 1274 750 1274 b 633 1237 697 1265 664 1254 b 547 1176 602 1220 573 1200 b 477 1097 521 1152 498 1125 b 422 1007 456 1068 438 1038 b 381 910 406 976 392 943 b 342 706 357 844 344 775 b 348 602 341 671 343 636 b 359 551 351 584 355 567 b 367 526 361 542 364 534 l 371 513 b 375 501 372 509 374 505 b 401 458 382 486 391 471 b 438 422 412 444 424 432 b 532 382 465 401 498 387 b 636 390 567 377 603 380 b 727 442 670 401 701 419 b 792 526 754 466 776 494 b 826 626 808 557 820 591 l 832 625 b 796 523 825 589 813 555 b 768 478 788 507 779 492 b 751 457 762 470 757 463 b 731 438 744 450 738 444 b 639 383 705 413 673 394 b 531 371 604 371 567 367 b 428 408 494 375 459 388 b 406 426 420 414 413 419 b 386 446 399 432 393 439 b 356 492 374 460 364 475 b 350 505 353 496 352 501 b 345 518 348 509 346 514 b 335 544 341 526 338 535 b 322 597 330 561 325 579 b 312 706 314 633 311 669 b 353 920 313 779 327 852 b 463 1108 379 988 416 1052 b 539 1185 486 1136 511 1162 b 628 1246 566 1209 596 1229 b 678 1267 645 1254 661 1261 b 691 1271 683 1268 687 1270 l 698 1273 l 704 1274 b 731 1280 713 1277 722 1278 b 786 1279 749 1282 768 1282 b 812 1271 795 1277 804 1275 b 816 1269 814 1271 815 1270 b 887 1306 839 1283 863 1295 b 938 1326 904 1313 921 1320 b 989 1341 955 1332 972 1337 b 1204 1359 1059 1360 1132 1365 b 1310 1339 1240 1355 1275 1348 b 1323 1336 1315 1338 1319 1337 b 1337 1332 1328 1334 1332 1333 b 1350 1328 1341 1330 1345 1329 b 1362 1323 1354 1326 1358 1325 b 1382 1316 1369 1321 1376 1319 b 1383 1317 1383 1317 1383 1317 b 1418 1334 1394 1323 1406 1329 b 1455 1345 1430 1339 1442 1342 b 1493 1349 1468 1348 1481 1349 b 1530 1340 1506 1349 1519 1346 b 1512 1342 1524 1342 1518 1342 b 1494 1339 1506 1341 1500 1341 b 1461 1328 1483 1337 1471 1333 b 1430 1311 1450 1323 1440 1318 b 1417 1302 1425 1308 1421 1305 b 1463 1279 1433 1295 1448 1287 b 1509 1248 1479 1269 1494 1259 b 1589 1169 1538 1225 1565 1198 b 1649 1073 1613 1140 1633 1107 b 1689 966 1666 1039 1679 1003 b 1707 853 1698 929 1704 891 b 1707 740 1710 816 1710 778 b 1663 520 1701 665 1686 591 b 1567 315 1640 448 1608 379 b 1416 146 1526 251 1475 194 b 1218 39 1357 99 1290 63 b 999 8 1148 15 1074 5 b 891 24 963 10 927 15 b 788 61 856 32 821 45 b 776 68 784 63 780 65 b 735 18 763 51 749 34 b 749 10 740 16 745 13 b 1018 -105 834 -37 925 -75 b 1303 -176 1112 -135 1207 -159 b 1449 -198 1351 -185 1400 -192 b 1595 -210 1497 -203 1546 -207 b 1889 -205 1693 -215 1791 -214 b 2035 -183 1938 -201 1987 -194 b 2105 -163 2058 -178 2082 -172 b 2139 -149 2116 -159 2128 -155 b 2169 -130 2149 -144 2160 -137 m 868 1214 b 832 1252 858 1229 846 1242 b 825 1257 830 1254 827 1255 b 802 1241 817 1252 809 1246 b 723 1171 774 1220 747 1196 b 690 1131 711 1158 700 1144 b 658 1088 679 1117 668 1103 b 601 999 638 1060 619 1030 b 555 905 584 969 569 937 b 521 806 541 873 530 839 b 506 703 512 772 507 738 b 506 677 505 694 505 686 b 508 651 506 668 506 660 b 521 603 510 634 514 618 b 535 581 525 595 530 588 b 554 565 541 575 547 570 b 602 553 569 557 585 553 b 653 564 620 554 637 558 b 677 575 661 567 669 571 b 699 588 685 579 692 583 b 775 662 728 608 753 634 b 830 753 796 691 815 721 b 870 852 846 785 859 818 b 895 955 881 886 889 920 b 904 1062 901 990 904 1026 b 889 1166 904 1097 900 1133 b 868 1214 884 1183 877 1199 m 814 120 b 788 84 805 108 797 96 b 797 79 791 82 794 81 b 896 45 829 64 862 52 b 1000 35 930 37 965 34 b 1103 49 1035 36 1069 40 b 1199 84 1136 57 1168 69 b 1362 205 1261 115 1315 157 b 1479 368 1408 254 1447 309 b 1523 459 1495 397 1510 428 b 1559 553 1536 489 1548 521 b 1606 751 1580 618 1596 684 b 1616 851 1612 784 1615 818 b 1612 951 1617 885 1616 918 b 1591 1050 1609 985 1602 1018 b 1550 1141 1581 1082 1567 1112 b 1486 1221 1532 1171 1511 1197 b 1446 1254 1473 1233 1460 1244 b 1403 1282 1432 1264 1418 1274 b 1396 1285 1401 1283 1398 1284 b 1376 1266 1389 1279 1382 1273 b 1352 1240 1368 1257 1360 1249 b 1309 1183 1337 1222 1322 1203 b 1236 1060 1282 1144 1258 1103 b 1174 930 1214 1018 1193 974 b 1119 796 1154 886 1136 841 b 1069 660 1101 751 1085 706 l 1057 626 l 1045 591 b 1033 556 1041 579 1037 567 b 1020 520 1029 544 1024 532 b 963 382 1003 473 984 427 b 894 247 942 336 919 291 b 814 120 870 204 843 161 m 586 -78 b 671 33 617 -43 646 -6 b 611 62 651 44 631 53 b 473 112 566 83 520 99 b 329 132 426 124 377 132 b 292 130 316 132 304 131 b 256 125 280 129 268 127 b 221 116 244 123 233 120 b 188 103 210 112 199 108 b 129 63 167 92 147 79 b 106 38 121 55 113 47 b 96 24 103 33 99 28 b 92 16 95 21 94 19 b 88 9 91 14 90 11 b 71 -56 78 -12 71 -34 b 87 -119 70 -78 76 -100 b 108 -145 93 -128 100 -137 b 134 -168 116 -154 125 -161 b 198 -201 154 -182 175 -193 b 268 -217 221 -209 244 -214 b 341 -219 292 -220 317 -221 b 411 -202 365 -216 389 -211 b 476 -171 434 -194 456 -183 b 534 -128 496 -158 516 -144 b 586 -78 552 -113 570 -96 "},"E":{"ha":1385,"x_min":0,"x_max":0,"o":"m 1760 -211 b 1838 -242 1787 -218 1814 -227 l 1835 -247 b 1758 -218 1812 -233 1785 -224 b 1676 -206 1731 -212 1703 -208 b 1592 -203 1648 -204 1620 -203 b 1509 -204 1564 -202 1536 -203 b 1174 -226 1397 -207 1286 -217 b 1007 -238 1118 -230 1063 -235 b 923 -241 979 -239 951 -240 b 838 -241 895 -242 867 -242 b 796 -239 824 -241 810 -240 b 754 -236 782 -239 768 -237 b 712 -232 740 -235 726 -233 b 671 -226 698 -230 684 -228 b 629 -219 657 -224 643 -222 l 608 -216 l 587 -211 b 546 -202 574 -209 560 -205 b 526 -197 539 -200 533 -199 b 506 -191 519 -195 512 -193 l 485 -185 b 465 -179 479 -183 472 -181 l 455 -176 b 445 -172 452 -175 448 -173 l 425 -165 b 347 -133 399 -155 373 -145 b 272 -93 322 -121 297 -108 b 201 -47 248 -79 224 -64 b 77 68 156 -14 114 25 b 27 137 59 90 42 113 l 24 141 l 24 142 b 23 143 22 142 21 142 l 23 143 b 38 152 41 156 39 154 l 38 151 l 38 151 l 44 142 b 50 134 46 140 48 137 b 56 126 52 131 54 129 b 83 94 65 115 73 105 b 215 -3 120 54 165 21 b 372 -51 264 -26 317 -43 b 537 -59 427 -60 482 -62 b 620 -50 565 -57 592 -54 b 701 -33 647 -46 674 -40 b 720 -27 707 -31 714 -29 l 740 -20 b 779 -6 753 -16 766 -11 b 799 2 786 -4 792 -1 l 805 4 b 711 19 773 6 741 11 b 627 50 682 26 654 37 b 549 99 599 63 573 79 b 515 131 537 109 525 119 b 494 155 507 139 500 147 b 474 159 487 156 480 158 b 314 212 418 170 365 188 b 173 306 262 236 215 268 b 115 369 152 326 133 347 b 67 440 97 391 81 415 b 7 600 39 490 19 544 b -5 686 0 628 -3 657 b -5 729 -6 700 -6 714 b -2 772 -4 743 -3 757 b 13 856 1 800 6 828 b 39 938 20 884 29 911 b 183 1148 71 1017 120 1089 b 215 1176 193 1157 204 1167 b 231 1189 220 1180 226 1185 b 249 1201 237 1193 243 1197 b 398 1280 295 1234 345 1260 b 479 1303 424 1289 451 1297 b 562 1315 506 1309 534 1313 b 583 1316 569 1316 576 1316 b 604 1317 590 1317 597 1317 b 646 1315 618 1317 632 1316 b 688 1311 660 1314 674 1313 b 730 1304 702 1309 716 1307 b 894 1269 785 1295 840 1283 b 916 1263 901 1267 909 1265 b 954 1302 928 1277 940 1290 b 1034 1354 978 1323 1005 1340 b 1218 1371 1092 1380 1157 1386 l 1224 1369 b 1229 1368 1225 1369 1227 1368 l 1239 1364 b 1260 1356 1246 1361 1253 1359 b 1300 1335 1274 1350 1287 1343 b 1333 1306 1313 1328 1324 1317 b 1345 1286 1338 1300 1342 1293 b 1349 1263 1348 1279 1349 1271 b 1334 1222 1349 1248 1343 1234 b 1301 1194 1325 1210 1314 1201 b 1280 1187 1294 1191 1287 1189 b 1259 1184 1273 1186 1266 1185 b 1217 1181 1245 1182 1231 1181 b 1134 1194 1189 1182 1161 1186 b 1053 1218 1107 1201 1080 1209 b 1017 1230 1041 1222 1029 1226 b 982 1175 1004 1212 992 1194 b 954 1108 971 1153 961 1131 b 937 1039 946 1086 941 1063 b 930 972 932 1017 930 995 b 933 940 930 961 931 950 b 935 932 934 937 935 935 b 937 928 936 931 936 929 b 938 924 937 927 937 926 b 942 911 939 920 941 916 b 965 909 950 911 958 910 b 1008 901 980 907 994 904 b 1028 893 1015 899 1022 896 b 1047 879 1036 890 1042 885 b 1053 868 1050 876 1052 872 b 1053 856 1055 864 1054 860 b 1046 846 1051 852 1049 848 b 1036 840 1043 843 1040 841 b 992 836 1022 834 1007 834 b 948 849 977 838 962 842 b 906 872 934 855 920 863 b 892 882 902 875 897 878 b 883 880 889 881 886 880 b 738 814 831 868 782 844 b 626 705 696 783 658 747 b 520 430 563 623 523 527 b 519 411 519 424 519 418 b 519 402 519 408 519 405 l 520 393 b 521 375 520 387 520 381 l 522 366 b 523 357 522 363 522 360 b 538 285 526 333 531 309 l 541 277 l 543 272 l 544 268 l 550 250 b 565 217 555 239 559 228 b 604 154 576 194 589 173 b 609 148 605 152 607 150 b 641 146 619 147 630 147 b 725 147 669 146 697 146 b 808 155 752 149 780 151 l 809 149 b 725 142 781 146 753 144 b 641 141 697 141 669 141 b 613 142 632 141 623 142 b 724 57 644 106 682 77 b 848 22 763 39 805 27 l 856 26 b 1002 105 907 48 956 75 b 1125 215 1048 136 1091 172 b 1142 240 1131 223 1137 231 b 1138 236 1141 239 1140 237 b 1100 213 1127 227 1114 219 b 1058 200 1087 206 1072 202 b 1014 198 1043 197 1028 197 b 970 205 999 199 984 201 b 960 208 967 206 963 207 b 949 212 956 209 952 211 b 929 222 942 215 936 219 b 863 279 904 237 882 257 b 822 356 844 302 831 328 b 816 443 814 385 812 414 b 842 526 820 472 829 500 b 865 563 848 539 856 551 b 894 594 873 574 883 585 b 966 639 915 613 940 629 b 1133 651 1019 659 1078 662 b 1213 622 1161 645 1188 635 b 1280 569 1238 608 1261 591 b 1307 535 1290 559 1299 547 b 1326 496 1314 523 1321 510 b 1342 411 1336 469 1342 440 b 1333 326 1343 382 1340 354 b 1321 285 1330 312 1326 298 b 1305 245 1317 271 1311 258 b 1197 114 1280 193 1242 148 b 1126 68 1175 96 1151 81 b 1048 34 1101 55 1075 44 b 882 3 995 16 939 5 b 845 2 870 2 857 2 l 844 2 l 825 -6 l 805 -14 b 785 -22 798 -17 792 -19 b 746 -36 772 -27 759 -32 l 726 -43 b 705 -49 719 -45 712 -47 b 622 -67 678 -57 650 -63 b 538 -76 594 -71 566 -74 b 369 -68 482 -79 425 -77 b 207 -18 313 -59 258 -42 b 157 10 190 -9 173 0 b 211 -33 174 -5 193 -20 b 281 -79 234 -50 257 -65 b 354 -118 305 -93 329 -106 b 431 -149 379 -129 405 -140 l 451 -156 b 460 -160 454 -157 457 -159 l 470 -163 b 490 -169 477 -165 484 -167 l 510 -175 b 530 -181 517 -177 524 -179 b 550 -186 537 -182 544 -184 b 591 -195 564 -189 577 -192 l 611 -199 l 632 -203 b 673 -210 646 -206 659 -207 b 714 -215 687 -212 701 -213 b 756 -219 728 -217 742 -218 b 797 -223 770 -220 784 -222 b 839 -224 811 -223 825 -224 b 1006 -221 894 -226 950 -224 b 1173 -211 1062 -219 1117 -215 b 1340 -199 1229 -207 1285 -203 b 1508 -192 1396 -196 1452 -193 b 1676 -198 1564 -190 1620 -192 b 1760 -211 1704 -200 1732 -205 m 1012 91 b 883 19 971 64 928 40 b 1045 43 938 18 993 26 b 1190 123 1098 61 1147 88 b 1289 252 1232 158 1266 202 b 1303 291 1294 265 1299 278 b 1314 330 1307 304 1311 317 b 1323 411 1320 357 1323 384 b 1309 490 1323 438 1318 465 b 1293 527 1305 503 1299 515 b 1270 560 1286 539 1279 550 b 1208 614 1253 582 1232 600 b 1132 645 1184 628 1159 638 b 1049 651 1105 651 1077 653 b 969 632 1022 649 995 643 b 933 612 957 626 945 620 b 902 586 922 604 911 596 b 876 554 892 576 884 566 b 857 519 869 543 862 531 b 835 441 846 494 838 468 b 841 362 832 415 834 388 b 879 293 849 337 862 313 b 940 241 897 272 917 255 b 958 232 946 238 952 235 b 967 228 961 231 964 229 b 976 226 969 227 973 227 b 1015 219 989 222 1002 220 b 1092 231 1041 217 1068 221 b 1125 251 1104 236 1115 243 b 1152 280 1136 260 1145 269 b 1178 349 1166 301 1175 325 l 1178 351 b 1178 354 1178 352 1178 353 b 1179 357 1178 355 1178 356 b 1179 357 1179 357 1179 357 b 1179 357 1179 358 1179 359 b 1196 360 1184 358 1164 362 b 1196 355 1196 358 1196 357 l 1196 355 l 1196 355 l 1196 355 l 1196 352 b 1195 346 1196 350 1195 348 l 1195 343 b 1195 332 1195 339 1195 335 b 1193 321 1194 328 1194 324 b 1181 279 1191 306 1187 292 b 1162 240 1176 265 1170 252 b 1138 204 1155 227 1147 216 b 1012 91 1103 159 1059 122 m 1004 884 b 964 888 991 887 977 888 b 953 888 960 888 956 888 b 964 872 956 882 960 877 b 995 848 973 861 983 853 b 1014 843 1001 845 1008 844 b 1034 846 1021 842 1027 843 b 1042 851 1036 847 1039 848 b 1046 858 1044 853 1045 855 b 1040 872 1048 863 1045 869 b 1024 881 1035 876 1030 879 b 1004 884 1017 882 1011 884 m 1022 1236 b 1019 1233 1021 1235 1020 1234 b 1054 1221 1031 1229 1043 1225 b 1135 1198 1081 1213 1108 1205 b 1217 1187 1162 1191 1189 1188 b 1259 1190 1231 1187 1245 1188 b 1279 1194 1265 1191 1272 1192 b 1298 1200 1285 1195 1292 1197 b 1328 1226 1310 1206 1320 1215 b 1339 1263 1336 1237 1340 1250 b 1323 1296 1338 1276 1332 1288 b 1290 1317 1313 1305 1302 1312 b 1252 1327 1278 1322 1265 1325 b 1232 1329 1245 1328 1238 1329 b 1222 1330 1228 1329 1225 1329 b 1212 1330 1218 1330 1215 1330 b 1137 1321 1186 1332 1161 1328 b 1073 1287 1114 1313 1092 1302 b 1022 1236 1054 1272 1036 1255 m 502 694 b 562 763 520 719 540 742 b 709 864 606 804 655 838 b 865 910 759 888 811 903 b 854 928 861 915 858 921 b 843 951 850 935 846 943 b 828 1051 831 983 826 1017 b 848 1145 830 1083 837 1115 b 891 1230 859 1175 873 1203 b 915 1261 898 1241 906 1251 b 893 1267 907 1263 900 1265 b 729 1301 839 1281 784 1293 b 646 1311 702 1306 674 1310 b 604 1312 632 1312 618 1313 b 583 1312 597 1312 590 1312 b 563 1310 577 1311 570 1311 b 142 1072 395 1295 241 1208 b 65 928 110 1028 84 979 b 41 849 55 902 47 876 b 29 769 35 823 31 796 b 26 728 27 755 26 741 b 26 687 25 714 25 701 b 36 606 27 660 31 633 b 90 453 47 553 65 501 b 133 383 103 428 117 405 b 186 320 149 361 167 340 b 249 267 206 301 227 283 b 319 223 271 250 295 236 b 475 166 369 197 421 178 b 487 164 479 166 483 165 b 484 167 486 165 485 166 b 459 207 475 180 467 193 b 449 228 455 214 452 221 b 439 250 445 235 442 242 b 413 340 427 279 418 309 b 407 435 408 371 406 403 b 422 528 409 466 414 498 b 454 616 430 558 441 588 b 477 656 461 630 469 643 b 502 694 485 669 493 682 m 1196 355 b 1196 355 1197 355 1197 355 "},"È":{"ha":1385,"x_min":0,"x_max":0,"o":"m 1760 -211 b 1676 -198 1732 -205 1704 -200 b 1508 -192 1620 -192 1564 -190 b 1340 -199 1452 -193 1396 -196 b 1173 -211 1285 -203 1229 -207 b 1006 -221 1117 -215 1062 -219 b 839 -224 950 -224 894 -226 b 797 -223 825 -224 811 -223 b 756 -219 784 -222 770 -220 b 714 -215 742 -218 728 -217 b 673 -210 701 -213 687 -212 b 632 -203 659 -207 646 -206 l 611 -199 l 591 -195 b 550 -186 577 -192 564 -189 b 530 -181 544 -184 537 -182 b 510 -175 524 -179 517 -177 l 490 -169 b 470 -163 484 -167 477 -165 l 460 -160 b 451 -156 457 -159 454 -157 l 431 -149 b 354 -118 405 -140 379 -129 b 281 -79 329 -106 305 -93 b 211 -33 257 -65 234 -50 b 157 10 193 -20 174 -5 b 207 -18 173 0 190 -9 b 369 -68 258 -42 313 -59 b 538 -76 425 -77 482 -79 b 622 -67 566 -74 594 -71 b 705 -49 650 -63 678 -57 b 726 -43 712 -47 719 -45 l 746 -36 b 785 -22 759 -32 772 -27 b 805 -14 792 -19 798 -17 l 825 -6 l 844 2 l 845 2 b 882 3 857 2 870 2 b 1048 34 939 5 995 16 b 1126 68 1075 44 1101 55 b 1197 114 1151 81 1175 96 b 1305 245 1242 148 1280 193 b 1321 285 1311 258 1317 271 b 1333 326 1326 298 1330 312 b 1342 411 1340 354 1343 382 b 1326 496 1342 440 1336 469 b 1307 535 1321 510 1314 523 b 1280 569 1299 547 1290 559 b 1213 622 1261 591 1238 608 b 1133 651 1188 635 1161 645 b 966 639 1078 662 1019 659 b 894 594 940 629 915 613 b 865 563 883 585 873 574 b 842 526 856 551 848 539 b 816 443 829 500 820 472 b 822 356 812 414 814 385 b 863 279 831 328 844 302 b 929 222 882 257 904 237 b 949 212 936 219 942 215 b 960 208 952 211 956 209 b 970 205 963 207 967 206 b 1014 198 984 201 999 199 b 1058 200 1028 197 1043 197 b 1100 213 1072 202 1087 206 b 1138 236 1114 219 1127 227 b 1142 240 1140 237 1141 239 b 1125 215 1137 231 1131 223 b 1002 105 1091 172 1048 136 b 856 26 956 75 907 48 l 848 22 b 724 57 805 27 763 39 b 613 142 682 77 644 106 b 641 141 623 142 632 141 b 725 142 669 141 697 141 b 809 149 753 144 781 146 l 808 155 b 725 147 780 151 752 149 b 641 146 697 146 669 146 b 609 148 630 147 619 147 b 604 154 607 150 605 152 b 565 217 589 173 576 194 b 550 250 559 228 555 239 l 544 268 l 543 272 l 541 277 l 538 285 b 523 357 531 309 526 333 b 522 366 522 360 522 363 l 521 375 b 520 393 520 381 520 387 l 519 402 b 519 411 519 405 519 408 b 520 430 519 418 519 424 b 626 705 523 527 563 623 b 738 814 658 747 696 783 b 883 880 782 844 831 868 b 892 882 886 880 889 881 b 906 872 897 878 902 875 b 948 849 920 863 934 855 b 992 836 962 842 977 838 b 1036 840 1007 834 1022 834 b 1046 846 1040 841 1043 843 b 1053 856 1049 848 1051 852 b 1053 868 1054 860 1055 864 b 1047 879 1052 872 1050 876 b 1028 893 1042 885 1036 890 b 1008 901 1022 896 1015 899 b 965 909 994 904 980 907 b 942 911 958 910 950 911 b 938 924 941 916 939 920 b 937 928 937 926 937 927 b 935 932 936 929 936 931 b 933 940 935 935 934 937 b 930 972 931 950 930 961 b 937 1039 930 995 932 1017 b 954 1108 941 1063 946 1086 b 982 1175 961 1131 971 1153 b 1017 1230 992 1194 1004 1212 b 1053 1218 1029 1226 1041 1222 b 1134 1194 1080 1209 1107 1201 b 1217 1181 1161 1186 1189 1182 b 1259 1184 1231 1181 1245 1182 b 1280 1187 1266 1185 1273 1186 b 1301 1194 1287 1189 1294 1191 b 1334 1222 1314 1201 1325 1210 b 1349 1263 1343 1234 1349 1248 b 1345 1286 1349 1271 1348 1279 b 1333 1306 1342 1293 1338 1300 b 1300 1335 1324 1317 1313 1328 b 1260 1356 1287 1343 1274 1350 b 1239 1364 1253 1359 1246 1361 l 1229 1368 b 1224 1369 1227 1368 1225 1369 l 1218 1371 b 1034 1354 1157 1386 1092 1380 b 954 1302 1005 1340 978 1323 b 916 1263 940 1290 928 1277 b 894 1269 909 1265 901 1267 b 730 1304 840 1283 785 1295 b 688 1311 716 1307 702 1309 b 646 1315 674 1313 660 1314 b 604 1317 632 1316 618 1317 b 583 1316 597 1317 590 1317 b 562 1315 576 1316 569 1316 b 479 1303 534 1313 506 1309 b 398 1280 451 1297 424 1289 b 249 1201 345 1260 295 1234 b 231 1189 243 1197 237 1193 b 215 1176 226 1185 220 1180 b 183 1148 204 1167 193 1157 b 39 938 120 1089 71 1017 b 13 856 29 911 20 884 b -2 772 6 828 1 800 b -5 729 -3 757 -4 743 b -5 686 -6 714 -6 700 b 7 600 -3 657 0 628 b 67 440 19 544 39 490 b 115 369 81 415 97 391 b 173 306 133 347 152 326 b 314 212 215 268 262 236 b 474 159 365 188 418 170 b 494 155 480 158 487 156 b 515 131 500 147 507 139 b 549 99 525 119 537 109 b 627 50 573 79 599 63 b 711 19 654 37 682 26 b 805 4 741 11 773 6 l 799 2 b 779 -6 792 -1 786 -4 b 740 -20 766 -11 753 -16 l 720 -27 b 701 -33 714 -29 707 -31 b 620 -50 674 -40 647 -46 b 537 -59 592 -54 565 -57 b 372 -51 482 -62 427 -60 b 215 -3 317 -43 264 -26 b 83 94 165 21 120 54 b 56 126 73 105 65 115 b 50 134 54 129 52 131 b 44 142 48 137 46 140 l 38 151 l 38 151 l 38 152 b 23 143 39 154 41 156 l 23 143 b 24 142 21 142 22 142 l 24 141 l 27 137 b 77 68 42 113 59 90 b 201 -47 114 25 156 -14 b 272 -93 224 -64 248 -79 b 347 -133 297 -108 322 -121 b 425 -165 373 -145 399 -155 l 445 -172 b 455 -176 448 -173 452 -175 l 465 -179 b 485 -185 472 -181 479 -183 l 506 -191 b 526 -197 512 -193 519 -195 b 546 -202 533 -199 539 -200 b 587 -211 560 -205 574 -209 l 608 -216 l 629 -219 b 671 -226 643 -222 657 -224 b 712 -232 684 -228 698 -230 b 754 -236 726 -233 740 -235 b 796 -239 768 -237 782 -239 b 838 -241 810 -240 824 -241 b 923 -241 867 -242 895 -242 b 1007 -238 951 -240 979 -239 b 1174 -226 1063 -235 1118 -230 b 1509 -204 1286 -217 1397 -207 b 1592 -203 1536 -203 1564 -202 b 1676 -206 1620 -203 1648 -204 b 1758 -218 1703 -208 1731 -212 b 1835 -247 1785 -224 1812 -233 l 1838 -242 b 1760 -211 1814 -227 1787 -218 m 1012 91 b 1138 204 1059 122 1103 159 b 1162 240 1147 216 1155 227 b 1181 279 1170 252 1176 265 b 1193 321 1187 292 1191 306 b 1195 332 1194 324 1194 328 b 1195 343 1195 335 1195 339 l 1195 346 b 1196 352 1195 348 1196 350 l 1196 355 l 1196 355 l 1196 355 l 1196 355 b 1196 360 1196 357 1196 358 b 1179 357 1164 362 1184 358 b 1179 357 1179 359 1179 358 b 1179 357 1179 357 1179 357 b 1178 354 1178 356 1178 355 b 1178 351 1178 353 1178 352 l 1178 349 b 1152 280 1175 325 1166 301 b 1125 251 1145 269 1136 260 b 1092 231 1115 243 1104 236 b 1015 219 1068 221 1041 217 b 976 226 1002 220 989 222 b 967 228 973 227 969 227 b 958 232 964 229 961 231 b 940 241 952 235 946 238 b 879 293 917 255 897 272 b 841 362 862 313 849 337 b 835 441 834 388 832 415 b 857 519 838 468 846 494 b 876 554 862 531 869 543 b 902 586 884 566 892 576 b 933 612 911 596 922 604 b 969 632 945 620 957 626 b 1049 651 995 643 1022 649 b 1132 645 1077 653 1105 651 b 1208 614 1159 638 1184 628 b 1270 560 1232 600 1253 582 b 1293 527 1279 550 1286 539 b 1309 490 1299 515 1305 503 b 1323 411 1318 465 1323 438 b 1314 330 1323 384 1320 357 b 1303 291 1311 317 1307 304 b 1289 252 1299 278 1294 265 b 1190 123 1266 202 1232 158 b 1045 43 1147 88 1098 61 b 883 19 993 26 938 18 b 1012 91 928 40 971 64 m 1004 884 b 1024 881 1011 884 1017 882 b 1040 872 1030 879 1035 876 b 1046 858 1045 869 1048 863 b 1042 851 1045 855 1044 853 b 1034 846 1039 848 1036 847 b 1014 843 1027 843 1021 842 b 995 848 1008 844 1001 845 b 964 872 983 853 973 861 b 953 888 960 877 956 882 b 964 888 956 888 960 888 b 1004 884 977 888 991 887 m 1022 1236 b 1073 1287 1036 1255 1054 1272 b 1137 1321 1092 1302 1114 1313 b 1212 1330 1161 1328 1186 1332 b 1222 1330 1215 1330 1218 1330 b 1232 1329 1225 1329 1228 1329 b 1252 1327 1238 1329 1245 1328 b 1290 1317 1265 1325 1278 1322 b 1323 1296 1302 1312 1313 1305 b 1339 1263 1332 1288 1338 1276 b 1328 1226 1340 1250 1336 1237 b 1298 1200 1320 1215 1310 1206 b 1279 1194 1292 1197 1285 1195 b 1259 1190 1272 1192 1265 1191 b 1217 1187 1245 1188 1231 1187 b 1135 1198 1189 1188 1162 1191 b 1054 1221 1108 1205 1081 1213 b 1019 1233 1043 1225 1031 1229 b 1022 1236 1020 1234 1021 1235 m 502 694 b 477 656 493 682 485 669 b 454 616 469 643 461 630 b 422 528 441 588 430 558 b 407 435 414 498 409 466 b 413 340 406 403 408 371 b 439 250 418 309 427 279 b 449 228 442 242 445 235 b 459 207 452 221 455 214 b 484 167 467 193 475 180 b 487 164 485 166 486 165 b 475 166 483 165 479 166 b 319 223 421 178 369 197 b 249 267 295 236 271 250 b 186 320 227 283 206 301 b 133 383 167 340 149 361 b 90 453 117 405 103 428 b 36 606 65 501 47 553 b 26 687 31 633 27 660 b 26 728 25 701 25 714 b 29 769 26 741 27 755 b 41 849 31 796 35 823 b 65 928 47 876 55 902 b 142 1072 84 979 110 1028 b 563 1310 241 1208 395 1295 b 583 1312 570 1311 577 1311 b 604 1312 590 1312 597 1312 b 646 1311 618 1313 632 1312 b 729 1301 674 1310 702 1306 b 893 1267 784 1293 839 1281 b 915 1261 900 1265 907 1263 b 891 1230 906 1251 898 1241 b 848 1145 873 1203 859 1175 b 828 1051 837 1115 830 1083 b 843 951 826 1017 831 983 b 854 928 846 943 850 935 b 865 910 858 921 861 915 b 709 864 811 903 759 888 b 562 763 655 838 606 804 b 502 694 540 742 520 719 m 1196 355 b 1196 355 1197 355 1197 355 "},"É":{"ha":1385,"x_min":0,"x_max":0,"o":"m 1760 -211 b 1838 -242 1787 -218 1814 -227 l 1835 -247 b 1758 -218 1812 -233 1785 -224 b 1676 -206 1731 -212 1703 -208 b 1592 -203 1648 -204 1620 -203 b 1509 -204 1564 -202 1536 -203 b 1174 -226 1397 -207 1286 -217 b 1007 -238 1118 -230 1063 -235 b 923 -241 979 -239 951 -240 b 838 -241 895 -242 867 -242 b 796 -239 824 -241 810 -240 b 754 -236 782 -239 768 -237 b 712 -232 740 -235 726 -233 b 671 -226 698 -230 684 -228 b 629 -219 657 -224 643 -222 l 608 -216 l 587 -211 b 546 -202 574 -209 560 -205 b 526 -197 539 -200 533 -199 b 506 -191 519 -195 512 -193 l 485 -185 b 465 -179 479 -183 472 -181 l 455 -176 b 445 -172 452 -175 448 -173 l 425 -165 b 347 -133 399 -155 373 -145 b 272 -93 322 -121 297 -108 b 201 -47 248 -79 224 -64 b 77 68 156 -14 114 25 b 27 137 59 90 42 113 l 24 141 l 24 142 b 23 143 22 142 21 142 l 23 143 b 38 152 41 156 39 154 l 38 151 l 38 151 l 44 142 b 50 134 46 140 48 137 b 56 126 52 131 54 129 b 83 94 65 115 73 105 b 215 -3 120 54 165 21 b 372 -51 264 -26 317 -43 b 537 -59 427 -60 482 -62 b 620 -50 565 -57 592 -54 b 701 -33 647 -46 674 -40 b 720 -27 707 -31 714 -29 l 740 -20 b 779 -6 753 -16 766 -11 b 799 2 786 -4 792 -1 l 805 4 b 711 19 773 6 741 11 b 627 50 682 26 654 37 b 549 99 599 63 573 79 b 515 131 537 109 525 119 b 494 155 507 139 500 147 b 474 159 487 156 480 158 b 314 212 418 170 365 188 b 173 306 262 236 215 268 b 115 369 152 326 133 347 b 67 440 97 391 81 415 b 7 600 39 490 19 544 b -5 686 0 628 -3 657 b -5 729 -6 700 -6 714 b -2 772 -4 743 -3 757 b 13 856 1 800 6 828 b 39 938 20 884 29 911 b 183 1148 71 1017 120 1089 b 215 1176 193 1157 204 1167 b 231 1189 220 1180 226 1185 b 249 1201 237 1193 243 1197 b 398 1280 295 1234 345 1260 b 479 1303 424 1289 451 1297 b 562 1315 506 1309 534 1313 b 583 1316 569 1316 576 1316 b 604 1317 590 1317 597 1317 b 646 1315 618 1317 632 1316 b 688 1311 660 1314 674 1313 b 730 1304 702 1309 716 1307 b 894 1269 785 1295 840 1283 b 916 1263 901 1267 909 1265 b 954 1302 928 1277 940 1290 b 1034 1354 978 1323 1005 1340 b 1218 1371 1092 1380 1157 1386 l 1224 1369 b 1229 1368 1225 1369 1227 1368 l 1239 1364 b 1260 1356 1246 1361 1253 1359 b 1300 1335 1274 1350 1287 1343 b 1333 1306 1313 1328 1324 1317 b 1345 1286 1338 1300 1342 1293 b 1349 1263 1348 1279 1349 1271 b 1334 1222 1349 1248 1343 1234 b 1301 1194 1325 1210 1314 1201 b 1280 1187 1294 1191 1287 1189 b 1259 1184 1273 1186 1266 1185 b 1217 1181 1245 1182 1231 1181 b 1134 1194 1189 1182 1161 1186 b 1053 1218 1107 1201 1080 1209 b 1017 1230 1041 1222 1029 1226 b 982 1175 1004 1212 992 1194 b 954 1108 971 1153 961 1131 b 937 1039 946 1086 941 1063 b 930 972 932 1017 930 995 b 933 940 930 961 931 950 b 935 932 934 937 935 935 b 937 928 936 931 936 929 b 938 924 937 927 937 926 b 942 911 939 920 941 916 b 965 909 950 911 958 910 b 1008 901 980 907 994 904 b 1028 893 1015 899 1022 896 b 1047 879 1036 890 1042 885 b 1053 868 1050 876 1052 872 b 1053 856 1055 864 1054 860 b 1046 846 1051 852 1049 848 b 1036 840 1043 843 1040 841 b 992 836 1022 834 1007 834 b 948 849 977 838 962 842 b 906 872 934 855 920 863 b 892 882 902 875 897 878 b 883 880 889 881 886 880 b 738 814 831 868 782 844 b 626 705 696 783 658 747 b 520 430 563 623 523 527 b 519 411 519 424 519 418 b 519 402 519 408 519 405 l 520 393 b 521 375 520 387 520 381 l 522 366 b 523 357 522 363 522 360 b 538 285 526 333 531 309 l 541 277 l 543 272 l 544 268 l 550 250 b 565 217 555 239 559 228 b 604 154 576 194 589 173 b 609 148 605 152 607 150 b 641 146 619 147 630 147 b 725 147 669 146 697 146 b 808 155 752 149 780 151 l 809 149 b 725 142 781 146 753 144 b 641 141 697 141 669 141 b 613 142 632 141 623 142 b 724 57 644 106 682 77 b 848 22 763 39 805 27 l 856 26 b 1002 105 907 48 956 75 b 1125 215 1048 136 1091 172 b 1142 240 1131 223 1137 231 b 1138 236 1141 239 1140 237 b 1100 213 1127 227 1114 219 b 1058 200 1087 206 1072 202 b 1014 198 1043 197 1028 197 b 970 205 999 199 984 201 b 960 208 967 206 963 207 b 949 212 956 209 952 211 b 929 222 942 215 936 219 b 863 279 904 237 882 257 b 822 356 844 302 831 328 b 816 443 814 385 812 414 b 842 526 820 472 829 500 b 865 563 848 539 856 551 b 894 594 873 574 883 585 b 966 639 915 613 940 629 b 1133 651 1019 659 1078 662 b 1213 622 1161 645 1188 635 b 1280 569 1238 608 1261 591 b 1307 535 1290 559 1299 547 b 1326 496 1314 523 1321 510 b 1342 411 1336 469 1342 440 b 1333 326 1343 382 1340 354 b 1321 285 1330 312 1326 298 b 1305 245 1317 271 1311 258 b 1197 114 1280 193 1242 148 b 1126 68 1175 96 1151 81 b 1048 34 1101 55 1075 44 b 882 3 995 16 939 5 b 845 2 870 2 857 2 l 844 2 l 825 -6 l 805 -14 b 785 -22 798 -17 792 -19 b 746 -36 772 -27 759 -32 l 726 -43 b 705 -49 719 -45 712 -47 b 622 -67 678 -57 650 -63 b 538 -76 594 -71 566 -74 b 369 -68 482 -79 425 -77 b 207 -18 313 -59 258 -42 b 157 10 190 -9 173 0 b 211 -33 174 -5 193 -20 b 281 -79 234 -50 257 -65 b 354 -118 305 -93 329 -106 b 431 -149 379 -129 405 -140 l 451 -156 b 460 -160 454 -157 457 -159 l 470 -163 b 490 -169 477 -165 484 -167 l 510 -175 b 530 -181 517 -177 524 -179 b 550 -186 537 -182 544 -184 b 591 -195 564 -189 577 -192 l 611 -199 l 632 -203 b 673 -210 646 -206 659 -207 b 714 -215 687 -212 701 -213 b 756 -219 728 -217 742 -218 b 797 -223 770 -220 784 -222 b 839 -224 811 -223 825 -224 b 1006 -221 894 -226 950 -224 b 1173 -211 1062 -219 1117 -215 b 1340 -199 1229 -207 1285 -203 b 1508 -192 1396 -196 1452 -193 b 1676 -198 1564 -190 1620 -192 b 1760 -211 1704 -200 1732 -205 m 1012 91 b 883 19 971 64 928 40 b 1045 43 938 18 993 26 b 1190 123 1098 61 1147 88 b 1289 252 1232 158 1266 202 b 1303 291 1294 265 1299 278 b 1314 330 1307 304 1311 317 b 1323 411 1320 357 1323 384 b 1309 490 1323 438 1318 465 b 1293 527 1305 503 1299 515 b 1270 560 1286 539 1279 550 b 1208 614 1253 582 1232 600 b 1132 645 1184 628 1159 638 b 1049 651 1105 651 1077 653 b 969 632 1022 649 995 643 b 933 612 957 626 945 620 b 902 586 922 604 911 596 b 876 554 892 576 884 566 b 857 519 869 543 862 531 b 835 441 846 494 838 468 b 841 362 832 415 834 388 b 879 293 849 337 862 313 b 940 241 897 272 917 255 b 958 232 946 238 952 235 b 967 228 961 231 964 229 b 976 226 969 227 973 227 b 1015 219 989 222 1002 220 b 1092 231 1041 217 1068 221 b 1125 251 1104 236 1115 243 b 1152 280 1136 260 1145 269 b 1178 349 1166 301 1175 325 l 1178 351 b 1178 354 1178 352 1178 353 b 1179 357 1178 355 1178 356 b 1179 357 1179 357 1179 357 b 1179 357 1179 358 1179 359 b 1196 360 1184 358 1164 362 b 1196 355 1196 358 1196 357 l 1196 355 l 1196 355 l 1196 355 l 1196 352 b 1195 346 1196 350 1195 348 l 1195 343 b 1195 332 1195 339 1195 335 b 1193 321 1194 328 1194 324 b 1181 279 1191 306 1187 292 b 1162 240 1176 265 1170 252 b 1138 204 1155 227 1147 216 b 1012 91 1103 159 1059 122 m 1004 884 b 964 888 991 887 977 888 b 953 888 960 888 956 888 b 964 872 956 882 960 877 b 995 848 973 861 983 853 b 1014 843 1001 845 1008 844 b 1034 846 1021 842 1027 843 b 1042 851 1036 847 1039 848 b 1046 858 1044 853 1045 855 b 1040 872 1048 863 1045 869 b 1024 881 1035 876 1030 879 b 1004 884 1017 882 1011 884 m 1022 1236 b 1019 1233 1021 1235 1020 1234 b 1054 1221 1031 1229 1043 1225 b 1135 1198 1081 1213 1108 1205 b 1217 1187 1162 1191 1189 1188 b 1259 1190 1231 1187 1245 1188 b 1279 1194 1265 1191 1272 1192 b 1298 1200 1285 1195 1292 1197 b 1328 1226 1310 1206 1320 1215 b 1339 1263 1336 1237 1340 1250 b 1323 1296 1338 1276 1332 1288 b 1290 1317 1313 1305 1302 1312 b 1252 1327 1278 1322 1265 1325 b 1232 1329 1245 1328 1238 1329 b 1222 1330 1228 1329 1225 1329 b 1212 1330 1218 1330 1215 1330 b 1137 1321 1186 1332 1161 1328 b 1073 1287 1114 1313 1092 1302 b 1022 1236 1054 1272 1036 1255 m 502 694 b 562 763 520 719 540 742 b 709 864 606 804 655 838 b 865 910 759 888 811 903 b 854 928 861 915 858 921 b 843 951 850 935 846 943 b 828 1051 831 983 826 1017 b 848 1145 830 1083 837 1115 b 891 1230 859 1175 873 1203 b 915 1261 898 1241 906 1251 b 893 1267 907 1263 900 1265 b 729 1301 839 1281 784 1293 b 646 1311 702 1306 674 1310 b 604 1312 632 1312 618 1313 b 583 1312 597 1312 590 1312 b 563 1310 577 1311 570 1311 b 142 1072 395 1295 241 1208 b 65 928 110 1028 84 979 b 41 849 55 902 47 876 b 29 769 35 823 31 796 b 26 728 27 755 26 741 b 26 687 25 714 25 701 b 36 606 27 660 31 633 b 90 453 47 553 65 501 b 133 383 103 428 117 405 b 186 320 149 361 167 340 b 249 267 206 301 227 283 b 319 223 271 250 295 236 b 475 166 369 197 421 178 b 487 164 479 166 483 165 b 484 167 486 165 485 166 b 459 207 475 180 467 193 b 449 228 455 214 452 221 b 439 250 445 235 442 242 b 413 340 427 279 418 309 b 407 435 408 371 406 403 b 422 528 409 466 414 498 b 454 616 430 558 441 588 b 477 656 461 630 469 643 b 502 694 485 669 493 682 m 1196 355 b 1196 355 1197 355 1197 355 "},"Ê":{"ha":1385,"x_min":0,"x_max":0,"o":"m 1760 -211 b 1676 -198 1732 -205 1704 -200 b 1508 -192 1620 -192 1564 -190 b 1340 -199 1452 -193 1396 -196 b 1173 -211 1285 -203 1229 -207 b 1006 -221 1117 -215 1062 -219 b 839 -224 950 -224 894 -226 b 797 -223 825 -224 811 -223 b 756 -219 784 -222 770 -220 b 714 -215 742 -218 728 -217 b 673 -210 701 -213 687 -212 b 632 -203 659 -207 646 -206 l 611 -199 l 591 -195 b 550 -186 577 -192 564 -189 b 530 -181 544 -184 537 -182 b 510 -175 524 -179 517 -177 l 490 -169 b 470 -163 484 -167 477 -165 l 460 -160 b 451 -156 457 -159 454 -157 l 431 -149 b 354 -118 405 -140 379 -129 b 281 -79 329 -106 305 -93 b 211 -33 257 -65 234 -50 b 157 10 193 -20 174 -5 b 207 -18 173 0 190 -9 b 369 -68 258 -42 313 -59 b 538 -76 425 -77 482 -79 b 622 -67 566 -74 594 -71 b 705 -49 650 -63 678 -57 b 726 -43 712 -47 719 -45 l 746 -36 b 785 -22 759 -32 772 -27 b 805 -14 792 -19 798 -17 l 825 -6 l 844 2 l 845 2 b 882 3 857 2 870 2 b 1048 34 939 5 995 16 b 1126 68 1075 44 1101 55 b 1197 114 1151 81 1175 96 b 1305 245 1242 148 1280 193 b 1321 285 1311 258 1317 271 b 1333 326 1326 298 1330 312 b 1342 411 1340 354 1343 382 b 1326 496 1342 440 1336 469 b 1307 535 1321 510 1314 523 b 1280 569 1299 547 1290 559 b 1213 622 1261 591 1238 608 b 1133 651 1188 635 1161 645 b 966 639 1078 662 1019 659 b 894 594 940 629 915 613 b 865 563 883 585 873 574 b 842 526 856 551 848 539 b 816 443 829 500 820 472 b 822 356 812 414 814 385 b 863 279 831 328 844 302 b 929 222 882 257 904 237 b 949 212 936 219 942 215 b 960 208 952 211 956 209 b 970 205 963 207 967 206 b 1014 198 984 201 999 199 b 1058 200 1028 197 1043 197 b 1100 213 1072 202 1087 206 b 1138 236 1114 219 1127 227 b 1142 240 1140 237 1141 239 b 1125 215 1137 231 1131 223 b 1002 105 1091 172 1048 136 b 856 26 956 75 907 48 l 848 22 b 724 57 805 27 763 39 b 613 142 682 77 644 106 b 641 141 623 142 632 141 b 725 142 669 141 697 141 b 809 149 753 144 781 146 l 808 155 b 725 147 780 151 752 149 b 641 146 697 146 669 146 b 609 148 630 147 619 147 b 604 154 607 150 605 152 b 565 217 589 173 576 194 b 550 250 559 228 555 239 l 544 268 l 543 272 l 541 277 l 538 285 b 523 357 531 309 526 333 b 522 366 522 360 522 363 l 521 375 b 520 393 520 381 520 387 l 519 402 b 519 411 519 405 519 408 b 520 430 519 418 519 424 b 626 705 523 527 563 623 b 738 814 658 747 696 783 b 883 880 782 844 831 868 b 892 882 886 880 889 881 b 906 872 897 878 902 875 b 948 849 920 863 934 855 b 992 836 962 842 977 838 b 1036 840 1007 834 1022 834 b 1046 846 1040 841 1043 843 b 1053 856 1049 848 1051 852 b 1053 868 1054 860 1055 864 b 1047 879 1052 872 1050 876 b 1028 893 1042 885 1036 890 b 1008 901 1022 896 1015 899 b 965 909 994 904 980 907 b 942 911 958 910 950 911 b 938 924 941 916 939 920 b 937 928 937 926 937 927 b 935 932 936 929 936 931 b 933 940 935 935 934 937 b 930 972 931 950 930 961 b 937 1039 930 995 932 1017 b 954 1108 941 1063 946 1086 b 982 1175 961 1131 971 1153 b 1017 1230 992 1194 1004 1212 b 1053 1218 1029 1226 1041 1222 b 1134 1194 1080 1209 1107 1201 b 1217 1181 1161 1186 1189 1182 b 1259 1184 1231 1181 1245 1182 b 1280 1187 1266 1185 1273 1186 b 1301 1194 1287 1189 1294 1191 b 1334 1222 1314 1201 1325 1210 b 1349 1263 1343 1234 1349 1248 b 1345 1286 1349 1271 1348 1279 b 1333 1306 1342 1293 1338 1300 b 1300 1335 1324 1317 1313 1328 b 1260 1356 1287 1343 1274 1350 b 1239 1364 1253 1359 1246 1361 l 1229 1368 b 1224 1369 1227 1368 1225 1369 l 1218 1371 b 1034 1354 1157 1386 1092 1380 b 954 1302 1005 1340 978 1323 b 916 1263 940 1290 928 1277 b 894 1269 909 1265 901 1267 b 730 1304 840 1283 785 1295 b 688 1311 716 1307 702 1309 b 646 1315 674 1313 660 1314 b 604 1317 632 1316 618 1317 b 583 1316 597 1317 590 1317 b 562 1315 576 1316 569 1316 b 479 1303 534 1313 506 1309 b 398 1280 451 1297 424 1289 b 249 1201 345 1260 295 1234 b 231 1189 243 1197 237 1193 b 215 1176 226 1185 220 1180 b 183 1148 204 1167 193 1157 b 39 938 120 1089 71 1017 b 13 856 29 911 20 884 b -2 772 6 828 1 800 b -5 729 -3 757 -4 743 b -5 686 -6 714 -6 700 b 7 600 -3 657 0 628 b 67 440 19 544 39 490 b 115 369 81 415 97 391 b 173 306 133 347 152 326 b 314 212 215 268 262 236 b 474 159 365 188 418 170 b 494 155 480 158 487 156 b 515 131 500 147 507 139 b 549 99 525 119 537 109 b 627 50 573 79 599 63 b 711 19 654 37 682 26 b 805 4 741 11 773 6 l 799 2 b 779 -6 792 -1 786 -4 b 740 -20 766 -11 753 -16 l 720 -27 b 701 -33 714 -29 707 -31 b 620 -50 674 -40 647 -46 b 537 -59 592 -54 565 -57 b 372 -51 482 -62 427 -60 b 215 -3 317 -43 264 -26 b 83 94 165 21 120 54 b 56 126 73 105 65 115 b 50 134 54 129 52 131 b 44 142 48 137 46 140 l 38 151 l 38 151 l 38 152 b 23 143 39 154 41 156 l 23 143 b 24 142 21 142 22 142 l 24 141 l 27 137 b 77 68 42 113 59 90 b 201 -47 114 25 156 -14 b 272 -93 224 -64 248 -79 b 347 -133 297 -108 322 -121 b 425 -165 373 -145 399 -155 l 445 -172 b 455 -176 448 -173 452 -175 l 465 -179 b 485 -185 472 -181 479 -183 l 506 -191 b 526 -197 512 -193 519 -195 b 546 -202 533 -199 539 -200 b 587 -211 560 -205 574 -209 l 608 -216 l 629 -219 b 671 -226 643 -222 657 -224 b 712 -232 684 -228 698 -230 b 754 -236 726 -233 740 -235 b 796 -239 768 -237 782 -239 b 838 -241 810 -240 824 -241 b 923 -241 867 -242 895 -242 b 1007 -238 951 -240 979 -239 b 1174 -226 1063 -235 1118 -230 b 1509 -204 1286 -217 1397 -207 b 1592 -203 1536 -203 1564 -202 b 1676 -206 1620 -203 1648 -204 b 1758 -218 1703 -208 1731 -212 b 1835 -247 1785 -224 1812 -233 l 1838 -242 b 1760 -211 1814 -227 1787 -218 m 1012 91 b 1138 204 1059 122 1103 159 b 1162 240 1147 216 1155 227 b 1181 279 1170 252 1176 265 b 1193 321 1187 292 1191 306 b 1195 332 1194 324 1194 328 b 1195 343 1195 335 1195 339 l 1195 346 b 1196 352 1195 348 1196 350 l 1196 355 l 1196 355 l 1196 355 l 1196 355 b 1196 360 1196 357 1196 358 b 1179 357 1164 362 1184 358 b 1179 357 1179 359 1179 358 b 1179 357 1179 357 1179 357 b 1178 354 1178 356 1178 355 b 1178 351 1178 353 1178 352 l 1178 349 b 1152 280 1175 325 1166 301 b 1125 251 1145 269 1136 260 b 1092 231 1115 243 1104 236 b 1015 219 1068 221 1041 217 b 976 226 1002 220 989 222 b 967 228 973 227 969 227 b 958 232 964 229 961 231 b 940 241 952 235 946 238 b 879 293 917 255 897 272 b 841 362 862 313 849 337 b 835 441 834 388 832 415 b 857 519 838 468 846 494 b 876 554 862 531 869 543 b 902 586 884 566 892 576 b 933 612 911 596 922 604 b 969 632 945 620 957 626 b 1049 651 995 643 1022 649 b 1132 645 1077 653 1105 651 b 1208 614 1159 638 1184 628 b 1270 560 1232 600 1253 582 b 1293 527 1279 550 1286 539 b 1309 490 1299 515 1305 503 b 1323 411 1318 465 1323 438 b 1314 330 1323 384 1320 357 b 1303 291 1311 317 1307 304 b 1289 252 1299 278 1294 265 b 1190 123 1266 202 1232 158 b 1045 43 1147 88 1098 61 b 883 19 993 26 938 18 b 1012 91 928 40 971 64 m 1004 884 b 1024 881 1011 884 1017 882 b 1040 872 1030 879 1035 876 b 1046 858 1045 869 1048 863 b 1042 851 1045 855 1044 853 b 1034 846 1039 848 1036 847 b 1014 843 1027 843 1021 842 b 995 848 1008 844 1001 845 b 964 872 983 853 973 861 b 953 888 960 877 956 882 b 964 888 956 888 960 888 b 1004 884 977 888 991 887 m 1022 1236 b 1073 1287 1036 1255 1054 1272 b 1137 1321 1092 1302 1114 1313 b 1212 1330 1161 1328 1186 1332 b 1222 1330 1215 1330 1218 1330 b 1232 1329 1225 1329 1228 1329 b 1252 1327 1238 1329 1245 1328 b 1290 1317 1265 1325 1278 1322 b 1323 1296 1302 1312 1313 1305 b 1339 1263 1332 1288 1338 1276 b 1328 1226 1340 1250 1336 1237 b 1298 1200 1320 1215 1310 1206 b 1279 1194 1292 1197 1285 1195 b 1259 1190 1272 1192 1265 1191 b 1217 1187 1245 1188 1231 1187 b 1135 1198 1189 1188 1162 1191 b 1054 1221 1108 1205 1081 1213 b 1019 1233 1043 1225 1031 1229 b 1022 1236 1020 1234 1021 1235 m 502 694 b 477 656 493 682 485 669 b 454 616 469 643 461 630 b 422 528 441 588 430 558 b 407 435 414 498 409 466 b 413 340 406 403 408 371 b 439 250 418 309 427 279 b 449 228 442 242 445 235 b 459 207 452 221 455 214 b 484 167 467 193 475 180 b 487 164 485 166 486 165 b 475 166 483 165 479 166 b 319 223 421 178 369 197 b 249 267 295 236 271 250 b 186 320 227 283 206 301 b 133 383 167 340 149 361 b 90 453 117 405 103 428 b 36 606 65 501 47 553 b 26 687 31 633 27 660 b 26 728 25 701 25 714 b 29 769 26 741 27 755 b 41 849 31 796 35 823 b 65 928 47 876 55 902 b 142 1072 84 979 110 1028 b 563 1310 241 1208 395 1295 b 583 1312 570 1311 577 1311 b 604 1312 590 1312 597 1312 b 646 1311 618 1313 632 1312 b 729 1301 674 1310 702 1306 b 893 1267 784 1293 839 1281 b 915 1261 900 1265 907 1263 b 891 1230 906 1251 898 1241 b 848 1145 873 1203 859 1175 b 828 1051 837 1115 830 1083 b 843 951 826 1017 831 983 b 854 928 846 943 850 935 b 865 910 858 921 861 915 b 709 864 811 903 759 888 b 562 763 655 838 606 804 b 502 694 540 742 520 719 m 1196 355 b 1196 355 1197 355 1197 355 "},"Ë":{"ha":1385,"x_min":0,"x_max":0,"o":"m 1760 -211 b 1838 -242 1787 -218 1814 -227 l 1835 -247 b 1758 -218 1812 -233 1785 -224 b 1676 -206 1731 -212 1703 -208 b 1592 -203 1648 -204 1620 -203 b 1509 -204 1564 -202 1536 -203 b 1174 -226 1397 -207 1286 -217 b 1007 -238 1118 -230 1063 -235 b 923 -241 979 -239 951 -240 b 838 -241 895 -242 867 -242 b 796 -239 824 -241 810 -240 b 754 -236 782 -239 768 -237 b 712 -232 740 -235 726 -233 b 671 -226 698 -230 684 -228 b 629 -219 657 -224 643 -222 l 608 -216 l 587 -211 b 546 -202 574 -209 560 -205 b 526 -197 539 -200 533 -199 b 506 -191 519 -195 512 -193 l 485 -185 b 465 -179 479 -183 472 -181 l 455 -176 b 445 -172 452 -175 448 -173 l 425 -165 b 347 -133 399 -155 373 -145 b 272 -93 322 -121 297 -108 b 201 -47 248 -79 224 -64 b 77 68 156 -14 114 25 b 27 137 59 90 42 113 l 24 141 l 24 142 b 23 143 22 142 21 142 l 23 143 b 38 152 41 156 39 154 l 38 151 l 38 151 l 44 142 b 50 134 46 140 48 137 b 56 126 52 131 54 129 b 83 94 65 115 73 105 b 215 -3 120 54 165 21 b 372 -51 264 -26 317 -43 b 537 -59 427 -60 482 -62 b 620 -50 565 -57 592 -54 b 701 -33 647 -46 674 -40 b 720 -27 707 -31 714 -29 l 740 -20 b 779 -6 753 -16 766 -11 b 799 2 786 -4 792 -1 l 805 4 b 711 19 773 6 741 11 b 627 50 682 26 654 37 b 549 99 599 63 573 79 b 515 131 537 109 525 119 b 494 155 507 139 500 147 b 474 159 487 156 480 158 b 314 212 418 170 365 188 b 173 306 262 236 215 268 b 115 369 152 326 133 347 b 67 440 97 391 81 415 b 7 600 39 490 19 544 b -5 686 0 628 -3 657 b -5 729 -6 700 -6 714 b -2 772 -4 743 -3 757 b 13 856 1 800 6 828 b 39 938 20 884 29 911 b 183 1148 71 1017 120 1089 b 215 1176 193 1157 204 1167 b 231 1189 220 1180 226 1185 b 249 1201 237 1193 243 1197 b 398 1280 295 1234 345 1260 b 479 1303 424 1289 451 1297 b 562 1315 506 1309 534 1313 b 583 1316 569 1316 576 1316 b 604 1317 590 1317 597 1317 b 646 1315 618 1317 632 1316 b 688 1311 660 1314 674 1313 b 730 1304 702 1309 716 1307 b 894 1269 785 1295 840 1283 b 916 1263 901 1267 909 1265 b 954 1302 928 1277 940 1290 b 1034 1354 978 1323 1005 1340 b 1218 1371 1092 1380 1157 1386 l 1224 1369 b 1229 1368 1225 1369 1227 1368 l 1239 1364 b 1260 1356 1246 1361 1253 1359 b 1300 1335 1274 1350 1287 1343 b 1333 1306 1313 1328 1324 1317 b 1345 1286 1338 1300 1342 1293 b 1349 1263 1348 1279 1349 1271 b 1334 1222 1349 1248 1343 1234 b 1301 1194 1325 1210 1314 1201 b 1280 1187 1294 1191 1287 1189 b 1259 1184 1273 1186 1266 1185 b 1217 1181 1245 1182 1231 1181 b 1134 1194 1189 1182 1161 1186 b 1053 1218 1107 1201 1080 1209 b 1017 1230 1041 1222 1029 1226 b 982 1175 1004 1212 992 1194 b 954 1108 971 1153 961 1131 b 937 1039 946 1086 941 1063 b 930 972 932 1017 930 995 b 933 940 930 961 931 950 b 935 932 934 937 935 935 b 937 928 936 931 936 929 b 938 924 937 927 937 926 b 942 911 939 920 941 916 b 965 909 950 911 958 910 b 1008 901 980 907 994 904 b 1028 893 1015 899 1022 896 b 1047 879 1036 890 1042 885 b 1053 868 1050 876 1052 872 b 1053 856 1055 864 1054 860 b 1046 846 1051 852 1049 848 b 1036 840 1043 843 1040 841 b 992 836 1022 834 1007 834 b 948 849 977 838 962 842 b 906 872 934 855 920 863 b 892 882 902 875 897 878 b 883 880 889 881 886 880 b 738 814 831 868 782 844 b 626 705 696 783 658 747 b 520 430 563 623 523 527 b 519 411 519 424 519 418 b 519 402 519 408 519 405 l 520 393 b 521 375 520 387 520 381 l 522 366 b 523 357 522 363 522 360 b 538 285 526 333 531 309 l 541 277 l 543 272 l 544 268 l 550 250 b 565 217 555 239 559 228 b 604 154 576 194 589 173 b 609 148 605 152 607 150 b 641 146 619 147 630 147 b 725 147 669 146 697 146 b 808 155 752 149 780 151 l 809 149 b 725 142 781 146 753 144 b 641 141 697 141 669 141 b 613 142 632 141 623 142 b 724 57 644 106 682 77 b 848 22 763 39 805 27 l 856 26 b 1002 105 907 48 956 75 b 1125 215 1048 136 1091 172 b 1142 240 1131 223 1137 231 b 1138 236 1141 239 1140 237 b 1100 213 1127 227 1114 219 b 1058 200 1087 206 1072 202 b 1014 198 1043 197 1028 197 b 970 205 999 199 984 201 b 960 208 967 206 963 207 b 949 212 956 209 952 211 b 929 222 942 215 936 219 b 863 279 904 237 882 257 b 822 356 844 302 831 328 b 816 443 814 385 812 414 b 842 526 820 472 829 500 b 865 563 848 539 856 551 b 894 594 873 574 883 585 b 966 639 915 613 940 629 b 1133 651 1019 659 1078 662 b 1213 622 1161 645 1188 635 b 1280 569 1238 608 1261 591 b 1307 535 1290 559 1299 547 b 1326 496 1314 523 1321 510 b 1342 411 1336 469 1342 440 b 1333 326 1343 382 1340 354 b 1321 285 1330 312 1326 298 b 1305 245 1317 271 1311 258 b 1197 114 1280 193 1242 148 b 1126 68 1175 96 1151 81 b 1048 34 1101 55 1075 44 b 882 3 995 16 939 5 b 845 2 870 2 857 2 l 844 2 l 825 -6 l 805 -14 b 785 -22 798 -17 792 -19 b 746 -36 772 -27 759 -32 l 726 -43 b 705 -49 719 -45 712 -47 b 622 -67 678 -57 650 -63 b 538 -76 594 -71 566 -74 b 369 -68 482 -79 425 -77 b 207 -18 313 -59 258 -42 b 157 10 190 -9 173 0 b 211 -33 174 -5 193 -20 b 281 -79 234 -50 257 -65 b 354 -118 305 -93 329 -106 b 431 -149 379 -129 405 -140 l 451 -156 b 460 -160 454 -157 457 -159 l 470 -163 b 490 -169 477 -165 484 -167 l 510 -175 b 530 -181 517 -177 524 -179 b 550 -186 537 -182 544 -184 b 591 -195 564 -189 577 -192 l 611 -199 l 632 -203 b 673 -210 646 -206 659 -207 b 714 -215 687 -212 701 -213 b 756 -219 728 -217 742 -218 b 797 -223 770 -220 784 -222 b 839 -224 811 -223 825 -224 b 1006 -221 894 -226 950 -224 b 1173 -211 1062 -219 1117 -215 b 1340 -199 1229 -207 1285 -203 b 1508 -192 1396 -196 1452 -193 b 1676 -198 1564 -190 1620 -192 b 1760 -211 1704 -200 1732 -205 m 1012 91 b 883 19 971 64 928 40 b 1045 43 938 18 993 26 b 1190 123 1098 61 1147 88 b 1289 252 1232 158 1266 202 b 1303 291 1294 265 1299 278 b 1314 330 1307 304 1311 317 b 1323 411 1320 357 1323 384 b 1309 490 1323 438 1318 465 b 1293 527 1305 503 1299 515 b 1270 560 1286 539 1279 550 b 1208 614 1253 582 1232 600 b 1132 645 1184 628 1159 638 b 1049 651 1105 651 1077 653 b 969 632 1022 649 995 643 b 933 612 957 626 945 620 b 902 586 922 604 911 596 b 876 554 892 576 884 566 b 857 519 869 543 862 531 b 835 441 846 494 838 468 b 841 362 832 415 834 388 b 879 293 849 337 862 313 b 940 241 897 272 917 255 b 958 232 946 238 952 235 b 967 228 961 231 964 229 b 976 226 969 227 973 227 b 1015 219 989 222 1002 220 b 1092 231 1041 217 1068 221 b 1125 251 1104 236 1115 243 b 1152 280 1136 260 1145 269 b 1178 349 1166 301 1175 325 l 1178 351 b 1178 354 1178 352 1178 353 b 1179 357 1178 355 1178 356 b 1179 357 1179 357 1179 357 b 1179 357 1179 358 1179 359 b 1196 360 1184 358 1164 362 b 1196 355 1196 358 1196 357 l 1196 355 l 1196 355 l 1196 355 l 1196 352 b 1195 346 1196 350 1195 348 l 1195 343 b 1195 332 1195 339 1195 335 b 1193 321 1194 328 1194 324 b 1181 279 1191 306 1187 292 b 1162 240 1176 265 1170 252 b 1138 204 1155 227 1147 216 b 1012 91 1103 159 1059 122 m 1004 884 b 964 888 991 887 977 888 b 953 888 960 888 956 888 b 964 872 956 882 960 877 b 995 848 973 861 983 853 b 1014 843 1001 845 1008 844 b 1034 846 1021 842 1027 843 b 1042 851 1036 847 1039 848 b 1046 858 1044 853 1045 855 b 1040 872 1048 863 1045 869 b 1024 881 1035 876 1030 879 b 1004 884 1017 882 1011 884 m 1022 1236 b 1019 1233 1021 1235 1020 1234 b 1054 1221 1031 1229 1043 1225 b 1135 1198 1081 1213 1108 1205 b 1217 1187 1162 1191 1189 1188 b 1259 1190 1231 1187 1245 1188 b 1279 1194 1265 1191 1272 1192 b 1298 1200 1285 1195 1292 1197 b 1328 1226 1310 1206 1320 1215 b 1339 1263 1336 1237 1340 1250 b 1323 1296 1338 1276 1332 1288 b 1290 1317 1313 1305 1302 1312 b 1252 1327 1278 1322 1265 1325 b 1232 1329 1245 1328 1238 1329 b 1222 1330 1228 1329 1225 1329 b 1212 1330 1218 1330 1215 1330 b 1137 1321 1186 1332 1161 1328 b 1073 1287 1114 1313 1092 1302 b 1022 1236 1054 1272 1036 1255 m 502 694 b 562 763 520 719 540 742 b 709 864 606 804 655 838 b 865 910 759 888 811 903 b 854 928 861 915 858 921 b 843 951 850 935 846 943 b 828 1051 831 983 826 1017 b 848 1145 830 1083 837 1115 b 891 1230 859 1175 873 1203 b 915 1261 898 1241 906 1251 b 893 1267 907 1263 900 1265 b 729 1301 839 1281 784 1293 b 646 1311 702 1306 674 1310 b 604 1312 632 1312 618 1313 b 583 1312 597 1312 590 1312 b 563 1310 577 1311 570 1311 b 142 1072 395 1295 241 1208 b 65 928 110 1028 84 979 b 41 849 55 902 47 876 b 29 769 35 823 31 796 b 26 728 27 755 26 741 b 26 687 25 714 25 701 b 36 606 27 660 31 633 b 90 453 47 553 65 501 b 133 383 103 428 117 405 b 186 320 149 361 167 340 b 249 267 206 301 227 283 b 319 223 271 250 295 236 b 475 166 369 197 421 178 b 487 164 479 166 483 165 b 484 167 486 165 485 166 b 459 207 475 180 467 193 b 449 228 455 214 452 221 b 439 250 445 235 442 242 b 413 340 427 279 418 309 b 407 435 408 371 406 403 b 422 528 409 466 414 498 b 454 616 430 558 441 588 b 477 656 461 630 469 643 b 502 694 485 669 493 682 m 1196 355 b 1196 355 1197 355 1197 355 "},"F":{"ha":1482,"x_min":0,"x_max":0,"o":"m 1846 -231 b 1847 -235 1847 -231 1848 -233 b 1843 -236 1847 -236 1845 -236 l 1843 -236 b 1771 -205 1820 -224 1795 -214 b 1695 -182 1746 -196 1721 -188 b 1540 -160 1644 -169 1592 -162 b 1382 -166 1487 -158 1435 -160 b 1226 -189 1330 -171 1278 -179 b 913 -245 1122 -208 1019 -230 b 754 -260 860 -253 807 -258 b 594 -254 700 -262 647 -260 b 514 -241 567 -250 540 -246 b 436 -220 488 -235 462 -228 b 289 -154 385 -204 335 -182 b 70 80 196 -97 121 -17 b 13 230 45 127 26 178 b -1 310 7 257 2 283 b -5 391 -4 337 -5 364 b 2 471 -5 418 -2 445 b 21 550 6 498 13 524 b 36 588 25 563 30 576 b 44 606 38 594 42 600 b 54 624 48 612 51 619 b 77 659 61 636 68 648 l 83 667 l 90 675 b 96 682 92 677 94 680 l 100 686 l 101 687 b 103 687 101 687 102 687 b 104 686 103 687 103 687 b 104 686 103 687 103 687 b 104 686 104 686 104 686 b 109 681 106 684 108 683 b 112 680 113 679 112 679 l 111 679 b 115 676 112 678 113 677 b 115 676 115 676 115 676 b 115 676 115 675 115 675 b 115 675 115 676 115 675 b 115 673 115 674 115 674 l 114 672 l 111 669 b 105 661 109 666 107 664 l 99 654 l 95 649 l 93 645 b 77 607 87 633 82 620 b 59 527 68 581 62 554 b 78 365 54 472 60 417 b 159 223 96 313 124 265 b 215 163 176 201 195 181 b 280 112 235 144 257 127 b 427 38 325 80 375 56 b 467 27 440 34 454 30 b 508 18 480 24 494 21 b 549 13 521 16 535 14 b 590 11 562 12 576 11 b 902 104 701 10 810 42 b 919 116 908 108 913 112 b 935 128 924 120 930 124 b 967 154 946 137 957 145 b 1025 212 987 172 1007 192 b 1122 342 1061 253 1093 296 b 1201 483 1151 388 1177 435 b 1237 555 1214 507 1225 531 b 1254 592 1243 567 1249 579 l 1263 609 b 1238 606 1255 608 1246 607 b 1197 604 1225 605 1211 604 b 1115 609 1170 603 1142 605 b 1074 620 1101 611 1087 615 b 1036 640 1061 624 1048 631 b 1009 673 1024 648 1015 660 b 1004 714 1004 686 1002 700 b 1018 678 1006 701 1011 689 b 1046 655 1026 668 1035 661 b 1081 644 1057 650 1069 646 b 1118 639 1093 642 1106 640 b 1195 642 1144 638 1170 639 b 1234 646 1208 643 1221 644 b 1272 652 1246 648 1259 650 b 1285 654 1276 653 1281 654 b 1351 779 1306 696 1327 738 b 1440 923 1378 828 1408 877 b 1492 992 1457 947 1474 970 b 1549 1057 1510 1015 1529 1037 b 1583 1087 1560 1068 1571 1078 b 1601 1100 1588 1092 1594 1096 b 1621 1112 1607 1105 1614 1109 b 1645 1120 1629 1116 1637 1119 b 1659 1120 1650 1121 1654 1121 b 1673 1116 1664 1120 1669 1118 b 1682 1106 1677 1113 1680 1110 b 1688 1095 1685 1103 1686 1099 b 1690 1073 1690 1088 1690 1081 b 1685 1083 1689 1077 1687 1080 b 1680 1091 1684 1086 1682 1089 b 1666 1100 1676 1096 1671 1099 b 1652 1096 1661 1100 1656 1099 b 1639 1086 1647 1093 1643 1090 b 1615 1056 1630 1077 1622 1067 b 1593 1022 1607 1045 1600 1034 b 1554 951 1580 999 1567 975 b 1518 878 1542 927 1530 903 b 1446 729 1493 829 1470 779 b 1421 678 1438 712 1429 695 b 1430 679 1424 678 1427 679 b 1450 679 1437 679 1444 679 b 1471 679 1457 679 1464 679 b 1513 673 1485 678 1499 676 b 1534 664 1521 671 1528 668 b 1544 657 1538 662 1541 660 b 1551 646 1547 654 1550 650 b 1552 633 1553 641 1553 637 b 1547 622 1551 629 1549 625 b 1541 614 1546 619 1543 616 b 1534 607 1539 611 1536 609 b 1540 625 1537 612 1539 619 b 1539 640 1542 631 1541 637 b 1527 647 1535 644 1531 646 b 1509 649 1521 648 1515 649 b 1472 648 1497 650 1484 649 b 1453 645 1466 647 1459 646 b 1434 642 1447 644 1440 643 b 1401 636 1423 640 1412 638 b 1374 580 1392 618 1383 599 l 1356 543 b 1336 505 1349 530 1343 517 b 1292 430 1322 479 1308 454 b 1242 359 1276 406 1259 382 b 1186 293 1224 336 1206 314 b 1059 175 1147 250 1105 211 b 915 83 1014 140 966 109 b 757 21 865 56 812 36 b 590 2 702 7 646 1 b 548 4 576 2 562 3 b 506 9 534 5 520 7 b 465 17 492 11 478 14 b 424 28 451 20 437 24 b 271 99 370 44 319 68 b 254 111 265 103 260 107 b 237 124 248 115 242 119 b 204 151 226 132 215 141 b 174 180 194 160 183 170 b 146 212 164 191 155 201 b 120 246 137 223 128 235 b 98 282 112 258 105 270 b 64 360 84 307 73 333 b 46 443 55 387 49 415 b 47 528 43 472 43 500 b 55 570 49 542 52 556 b 64 598 57 579 60 589 b 63 597 63 598 63 597 b 55 580 60 591 57 586 b 41 543 50 568 45 556 b 17 390 26 494 18 442 b 22 313 17 364 18 338 b 35 236 25 287 29 261 b 91 91 48 186 67 137 b 182 -35 116 45 146 3 b 302 -133 217 -73 258 -106 b 371 -169 324 -146 347 -158 b 444 -196 395 -179 419 -189 b 519 -216 469 -204 494 -210 b 597 -228 545 -221 571 -225 b 753 -235 649 -234 701 -237 b 910 -221 806 -233 858 -228 b 1223 -167 1014 -207 1118 -185 b 1381 -147 1275 -159 1328 -151 b 1541 -144 1434 -142 1487 -141 b 1698 -171 1594 -148 1647 -157 b 1774 -197 1724 -178 1749 -187 b 1846 -231 1799 -207 1823 -218 m 2032 1300 b 2033 1284 2033 1295 2034 1290 b 2029 1268 2033 1279 2031 1274 b 2008 1241 2024 1258 2017 1249 b 1978 1224 1999 1234 1989 1229 b 1947 1214 1968 1220 1957 1217 b 1914 1209 1936 1212 1925 1210 b 1882 1206 1903 1208 1893 1207 b 1818 1207 1860 1206 1839 1206 b 1692 1224 1775 1210 1733 1216 b 1571 1258 1651 1232 1610 1243 b 1542 1268 1561 1261 1551 1264 b 1528 1274 1537 1270 1532 1272 b 1514 1278 1523 1275 1519 1277 b 1500 1283 1509 1280 1505 1282 b 1486 1288 1496 1285 1491 1286 b 1458 1296 1477 1291 1468 1293 b 1344 1320 1421 1306 1383 1314 b 880 1237 1185 1343 1022 1314 b 829 1205 863 1227 846 1217 b 805 1187 821 1200 813 1194 b 793 1178 801 1184 797 1181 b 782 1168 790 1175 786 1171 b 702 1077 752 1141 725 1110 b 645 970 678 1044 659 1008 b 635 940 641 960 638 950 b 692 928 655 938 674 934 b 749 905 712 923 731 915 b 801 872 767 896 784 885 b 846 831 817 860 832 846 b 880 780 860 816 871 799 b 898 722 890 762 895 742 b 893 661 900 702 898 681 b 862 609 887 641 876 623 b 747 590 832 577 785 569 b 695 624 728 599 711 610 b 656 673 680 639 667 655 b 630 729 645 690 636 709 b 613 852 617 768 611 810 b 622 926 614 877 617 901 b 616 927 620 926 618 927 b 601 929 611 928 606 929 b 571 932 591 930 581 932 b 452 918 531 934 491 929 b 347 862 413 907 377 888 b 324 842 339 855 331 849 b 313 832 321 839 317 835 b 303 821 310 828 306 825 b 267 775 290 807 278 791 b 239 724 256 759 247 742 b 220 669 231 706 225 688 b 209 555 211 632 207 593 b 255 391 213 498 228 442 b 463 201 299 305 373 237 b 579 170 500 186 539 176 l 579 170 b 582 167 581 170 582 168 b 579 164 581 166 580 164 b 457 184 538 165 497 171 b 348 239 418 196 381 215 b 262 326 315 263 286 292 b 206 434 238 359 219 395 b 199 675 179 511 176 597 b 253 785 211 715 229 752 b 340 871 277 818 307 847 b 450 924 374 894 411 912 b 571 943 490 935 530 942 b 626 941 590 943 608 943 b 636 973 629 952 632 963 b 691 1084 650 1012 668 1050 b 728 1134 702 1102 715 1118 b 770 1180 741 1150 756 1165 b 782 1191 774 1184 778 1187 b 793 1201 786 1194 789 1198 b 818 1221 801 1208 809 1215 b 869 1256 834 1234 852 1245 b 981 1312 905 1278 942 1296 b 1099 1353 1019 1328 1059 1342 b 1222 1379 1139 1365 1180 1373 b 1349 1388 1264 1386 1307 1388 b 1477 1375 1392 1387 1435 1383 b 1509 1368 1488 1372 1498 1370 b 1524 1364 1514 1366 1519 1365 b 1540 1359 1529 1362 1535 1361 b 1555 1355 1545 1358 1550 1356 b 1570 1350 1560 1353 1566 1351 b 1599 1341 1580 1347 1589 1344 b 1713 1303 1637 1329 1675 1316 b 1827 1268 1751 1290 1788 1277 b 1885 1256 1846 1263 1865 1259 b 1913 1252 1894 1255 1904 1253 b 1942 1250 1923 1251 1933 1251 b 1971 1252 1952 1250 1961 1251 b 1997 1259 1980 1253 1989 1255 b 2020 1274 2006 1262 2014 1267 b 2028 1286 2023 1277 2026 1282 b 2032 1300 2030 1290 2031 1295 m 686 907 b 631 924 668 914 650 920 b 620 851 625 900 622 876 b 620 821 620 841 620 831 b 623 790 621 811 621 800 b 628 760 624 780 626 770 b 636 731 630 750 633 741 b 661 676 642 712 651 693 b 699 629 672 658 685 643 b 749 595 714 615 731 603 l 756 592 b 763 589 758 591 761 590 b 778 586 768 588 773 587 b 792 586 783 586 787 586 b 799 588 795 587 797 587 b 806 590 802 589 804 589 b 829 605 815 593 823 599 b 844 627 835 612 840 619 b 849 638 846 631 848 634 b 851 644 850 640 850 642 b 853 649 852 646 852 648 b 858 672 855 657 857 664 b 862 694 860 679 861 687 b 862 718 863 702 863 710 b 848 765 860 734 855 750 b 782 847 834 795 810 823 b 760 865 775 853 767 859 b 748 873 756 867 752 870 l 736 881 b 686 907 720 891 704 900 "},"G":{"ha":1072,"x_min":0,"x_max":0,"o":"m 1996 -226 b 1996 -229 1997 -227 1997 -228 b 1953 -258 1984 -241 1969 -251 b 1903 -273 1937 -265 1920 -270 b 1851 -279 1885 -276 1868 -278 b 1799 -278 1833 -280 1816 -279 b 1594 -244 1729 -274 1661 -261 b 1395 -184 1527 -227 1461 -207 b 1347 -166 1379 -178 1363 -172 b 1298 -148 1330 -160 1314 -154 b 1200 -119 1266 -137 1233 -127 b 1100 -100 1167 -110 1134 -104 b 999 -100 1066 -96 1032 -95 b 953 -117 983 -103 967 -108 b 936 -132 946 -121 941 -126 b 929 -142 933 -135 931 -138 b 926 -152 928 -145 926 -149 b 924 -160 925 -155 925 -157 b 935 -160 928 -160 932 -160 b 987 -164 953 -160 970 -162 b 1013 -171 996 -166 1005 -168 b 1037 -183 1022 -173 1030 -178 b 1046 -194 1041 -186 1044 -190 b 1051 -208 1049 -198 1050 -203 b 1051 -221 1052 -212 1052 -217 b 1047 -235 1050 -226 1049 -231 b 1028 -254 1043 -243 1036 -250 b 1001 -260 1020 -258 1011 -260 b 975 -257 993 -261 984 -259 b 951 -246 966 -254 958 -251 b 930 -228 943 -241 936 -235 b 918 -204 925 -221 920 -212 b 912 -177 915 -195 913 -186 b 911 -169 911 -174 911 -172 b 884 -170 902 -169 893 -170 b 781 -179 849 -172 815 -175 b 577 -208 713 -187 645 -198 b 543 -213 565 -210 554 -212 l 543 -213 b 496 -236 527 -222 512 -229 b 484 -241 492 -238 488 -239 l 471 -245 b 447 -254 463 -248 455 -251 b 347 -277 415 -265 381 -273 b 244 -277 313 -281 278 -281 b 146 -248 210 -273 177 -263 b 12 -95 83 -217 35 -162 b -3 7 1 -62 -4 -28 b 67 197 -2 76 23 143 b 83 215 72 203 77 209 b 111 290 88 241 97 266 b 145 333 120 306 132 320 b 188 366 158 346 172 357 b 290 395 219 383 254 393 b 394 383 325 398 361 393 b 486 334 428 373 459 356 b 522 296 500 323 512 310 b 554 198 542 267 553 233 b 553 171 555 189 554 180 b 552 159 553 167 552 163 b 551 153 551 157 551 155 b 551 147 551 151 551 149 l 551 146 l 551 146 b 548 142 551 144 550 143 b 544 146 546 142 544 144 l 544 146 b 544 146 544 146 544 146 l 544 146 l 544 146 b 533 194 542 162 539 179 b 510 237 528 210 520 224 b 432 297 489 264 463 284 b 335 317 401 310 369 317 b 286 314 319 318 302 317 b 261 309 278 313 269 311 b 237 302 253 307 245 305 b 214 294 229 300 222 297 b 192 283 206 291 199 287 b 149 257 177 275 163 267 b 115 230 137 249 126 240 b 106 184 111 215 108 199 b 109 84 103 151 104 117 b 166 -51 116 35 136 -11 b 199 -88 176 -64 187 -77 b 279 -146 223 -111 250 -131 b 325 -167 294 -154 309 -161 b 373 -183 341 -174 357 -179 b 473 -199 406 -192 439 -197 b 502 -199 483 -199 492 -199 b 525 -185 510 -195 517 -190 b 600 -122 552 -166 577 -145 b 662 -48 622 -99 643 -74 b 715 35 681 -21 699 6 b 802 212 747 92 776 151 b 877 396 828 273 853 334 b 949 583 901 458 925 521 b 985 677 961 614 973 646 b 996 703 989 686 992 695 b 979 672 990 693 985 682 b 925 585 964 641 945 612 b 892 546 914 572 904 558 b 856 510 881 533 868 521 b 770 451 830 486 801 467 b 669 422 739 435 705 424 b 615 428 651 421 633 423 b 546 473 588 435 564 451 b 542 479 545 475 543 477 l 538 484 b 530 495 535 488 532 492 b 502 542 519 510 510 526 b 468 758 469 609 457 684 b 492 862 474 793 481 828 b 577 1056 512 930 541 995 b 635 1144 595 1086 614 1115 b 703 1225 656 1172 679 1199 l 712 1234 l 721 1244 b 740 1263 727 1250 733 1256 b 779 1298 752 1275 765 1287 b 821 1331 792 1310 807 1321 b 868 1359 836 1341 852 1351 b 919 1380 884 1367 902 1374 b 975 1390 937 1386 956 1389 b 1033 1382 995 1391 1014 1388 b 1083 1353 1051 1376 1068 1366 b 1117 1311 1096 1341 1108 1327 b 1138 1262 1126 1295 1133 1279 b 1149 1159 1148 1228 1150 1193 b 1147 1108 1149 1142 1148 1125 b 1144 1083 1146 1100 1146 1091 b 1138 1057 1143 1074 1141 1066 b 1095 964 1128 1024 1114 993 b 1026 888 1076 935 1053 910 b 939 836 1000 866 970 849 b 937 837 938 835 937 836 b 937 839 936 838 936 839 b 1019 897 967 855 994 874 b 1081 973 1043 919 1064 945 b 1121 1063 1098 1001 1111 1031 b 1134 1110 1125 1078 1130 1094 b 1140 1160 1138 1126 1140 1143 b 1121 1256 1140 1193 1133 1225 b 1063 1328 1108 1285 1088 1312 b 1023 1344 1051 1336 1037 1341 b 980 1342 1009 1346 994 1345 b 939 1328 966 1340 952 1335 b 919 1318 932 1325 925 1322 b 899 1306 912 1314 906 1310 b 828 1245 874 1288 850 1267 b 794 1210 816 1234 805 1222 b 779 1192 789 1204 784 1198 l 771 1183 l 763 1173 b 663 1009 725 1122 692 1066 b 623 921 649 980 636 951 b 590 832 611 892 600 862 b 565 741 580 802 572 771 b 548 649 559 710 553 680 b 545 556 544 619 541 587 b 557 511 547 541 551 526 b 562 500 559 507 561 504 b 569 491 564 497 566 494 b 584 475 573 485 578 480 b 669 447 606 455 637 446 b 761 471 700 448 732 457 b 843 524 790 485 818 503 b 911 596 868 546 891 570 b 965 679 931 622 950 650 l 1014 768 b 1067 864 1031 800 1049 832 b 1115 955 1082 895 1098 925 b 1227 1128 1149 1015 1186 1073 b 1295 1208 1248 1156 1271 1183 b 1318 1230 1302 1216 1310 1223 b 1319 1231 1319 1231 1319 1231 b 1335 1245 1324 1236 1329 1240 b 1378 1273 1348 1256 1362 1265 b 1403 1284 1386 1278 1394 1281 b 1431 1288 1412 1287 1422 1288 b 1460 1282 1441 1289 1451 1286 b 1467 1277 1463 1280 1465 1279 b 1472 1269 1469 1274 1471 1272 b 1474 1262 1473 1267 1474 1265 b 1470 1255 1474 1259 1472 1257 b 1464 1252 1468 1253 1466 1252 b 1459 1251 1462 1251 1461 1251 b 1444 1256 1454 1252 1449 1253 b 1438 1259 1442 1257 1440 1258 b 1433 1261 1437 1260 1435 1260 b 1420 1265 1429 1263 1425 1264 b 1392 1250 1410 1261 1400 1256 b 1325 1182 1366 1232 1344 1208 b 1273 1099 1305 1155 1288 1128 b 1230 1010 1257 1070 1243 1040 b 1192 918 1216 980 1204 949 b 1174 872 1186 903 1180 887 l 1157 825 b 1124 732 1146 794 1135 763 l 1107 684 b 1090 637 1102 669 1096 653 b 1053 542 1078 605 1066 574 b 881 173 1003 417 947 293 b 771 -2 848 113 812 54 b 629 -155 730 -57 684 -111 b 576 -194 612 -169 594 -182 b 780 -168 644 -184 712 -175 b 883 -160 814 -165 849 -162 b 912 -160 893 -160 902 -160 b 913 -149 912 -156 912 -153 b 918 -136 914 -145 916 -140 b 925 -124 920 -132 922 -127 b 946 -105 931 -116 938 -110 b 996 -86 961 -95 978 -89 b 1102 -84 1031 -79 1067 -80 b 1204 -102 1136 -87 1171 -93 b 1304 -132 1238 -110 1272 -120 b 1353 -150 1321 -138 1337 -144 b 1401 -168 1369 -156 1385 -162 b 1597 -230 1466 -191 1531 -212 b 1698 -253 1631 -239 1664 -247 b 1799 -268 1731 -260 1765 -265 b 1850 -270 1816 -269 1833 -270 b 1901 -266 1867 -270 1884 -268 b 1951 -253 1918 -263 1935 -259 b 1993 -226 1966 -247 1981 -238 b 1996 -226 1994 -226 1995 -226 m 1461 1265 b 1460 1265 1461 1265 1461 1265 b 1461 1265 1460 1265 1461 1265 m 134 277 b 122 250 129 268 125 259 b 143 266 129 256 136 261 b 187 292 157 276 172 284 b 235 311 203 299 219 306 b 336 325 267 321 301 325 b 435 304 370 324 404 317 b 516 242 467 291 495 269 b 540 197 526 228 534 213 b 548 168 544 187 546 178 b 549 172 548 169 549 170 b 550 197 550 180 550 189 b 541 247 549 214 546 231 b 483 330 529 280 509 308 b 392 375 456 351 425 367 b 292 381 359 384 325 386 b 199 348 259 377 227 366 b 134 277 172 330 149 306 m 470 -216 b 368 -203 436 -215 402 -211 b 269 -167 334 -195 300 -183 b 181 -107 237 -151 207 -131 b 145 -67 168 -94 156 -81 b 115 -22 134 -53 124 -38 b 81 80 99 10 87 44 b 78 187 75 115 75 151 b 79 191 79 188 79 190 b 77 189 78 191 78 190 b 31 103 57 163 41 134 b 14 7 20 72 14 39 b 77 -174 13 -59 36 -123 b 152 -236 97 -200 123 -221 b 246 -264 181 -252 213 -261 b 344 -259 279 -267 312 -265 b 439 -231 377 -253 408 -243 b 461 -221 446 -227 454 -224 m 935 -169 b 924 -169 931 -169 927 -169 b 924 -176 924 -171 924 -174 b 929 -200 925 -184 926 -192 b 932 -212 930 -204 931 -208 b 938 -222 934 -215 936 -219 b 1001 -255 952 -244 976 -256 b 1025 -249 1009 -254 1018 -252 b 1041 -232 1032 -245 1038 -239 b 1044 -209 1044 -225 1045 -217 b 1032 -189 1042 -201 1038 -194 b 1011 -178 1026 -184 1018 -181 b 986 -173 1003 -176 994 -174 b 935 -169 969 -170 952 -169 "},"H":{"ha":1972,"x_min":0,"x_max":0,"o":"m 2738 -279 b 2736 -283 2738 -281 2737 -282 b 2732 -284 2735 -284 2733 -284 b 2729 -280 2730 -283 2729 -282 b 2729 -280 2729 -280 2729 -280 b 2717 -252 2728 -270 2723 -260 b 2694 -229 2710 -243 2702 -235 b 2636 -196 2676 -215 2656 -204 b 2507 -159 2595 -178 2551 -167 b 2374 -143 2463 -151 2419 -145 b 2239 -143 2329 -141 2284 -140 b 2106 -154 2195 -144 2150 -149 b 1973 -179 2061 -160 2017 -169 b 1843 -213 1930 -189 1886 -201 l 1778 -231 l 1714 -250 b 1583 -286 1670 -262 1627 -275 b 1451 -314 1540 -297 1496 -307 b 1313 -323 1406 -321 1360 -326 b 1244 -311 1290 -322 1267 -318 b 1210 -298 1232 -308 1221 -303 b 1178 -277 1199 -293 1188 -285 b 1165 -260 1173 -272 1169 -266 b 1159 -242 1162 -254 1160 -248 b 938 -267 1086 -257 1012 -265 b 760 -258 878 -269 819 -265 b 750 -261 757 -259 754 -260 b 634 -288 713 -275 674 -284 b 515 -282 594 -291 554 -289 b 402 -246 476 -274 438 -262 b 298 -189 365 -231 331 -211 b 206 -114 265 -167 234 -142 b 129 -22 177 -86 151 -55 b 68 81 105 10 85 45 b 3 312 34 154 13 232 b -1 432 -2 352 -3 392 b 19 550 1 472 8 512 b 40 607 24 570 32 589 b 72 659 49 625 59 643 b 78 667 74 661 76 664 b 109 699 87 679 97 690 b 137 719 117 707 127 713 b 171 728 148 724 159 727 b 174 725 172 728 174 727 b 171 722 174 724 173 722 l 171 722 l 171 722 b 171 722 171 722 171 722 b 122 692 153 715 137 705 b 102 672 115 686 108 679 b 85 649 96 665 90 657 b 41 544 64 618 50 582 b 28 431 33 507 28 469 b 27 406 27 422 27 414 b 30 385 28 399 29 392 b 66 257 36 341 48 298 b 130 141 83 216 104 177 b 215 39 155 105 184 70 b 426 -125 278 -25 350 -78 b 672 -225 501 -171 585 -204 b 757 -241 700 -231 729 -237 b 845 -189 788 -227 818 -209 b 1004 -23 907 -143 959 -85 b 1123 175 1049 40 1088 107 b 1150 227 1132 192 1141 209 b 1175 279 1158 244 1167 261 b 1224 384 1192 314 1208 349 b 1272 490 1240 419 1256 454 l 1319 596 b 1413 810 1350 667 1381 739 b 1523 1022 1446 882 1483 953 b 1586 1124 1543 1056 1564 1090 b 1620 1173 1597 1140 1608 1157 b 1657 1221 1632 1189 1644 1205 b 1683 1250 1665 1231 1674 1241 b 1637 1260 1668 1253 1652 1257 b 1404 1288 1560 1275 1482 1284 b 1170 1278 1326 1292 1248 1289 b 947 1214 1093 1267 1017 1247 b 849 1154 912 1198 879 1178 b 778 1087 823 1134 799 1112 b 792 1084 783 1087 788 1086 b 821 1074 802 1082 812 1078 b 870 1038 839 1065 856 1053 b 907 989 885 1023 897 1007 b 934 935 918 972 927 954 b 944 906 937 925 941 915 b 951 877 946 896 949 886 b 962 817 956 857 959 837 b 967 758 964 797 966 778 b 968 728 968 748 968 738 b 967 698 968 718 968 708 b 965 668 967 688 966 678 b 961 638 964 658 963 648 b 947 579 957 618 953 598 b 922 524 940 560 932 541 b 906 499 918 515 912 507 b 885 476 900 491 893 483 b 833 447 871 462 853 452 b 803 445 823 445 813 444 b 773 449 793 445 783 446 b 745 459 763 451 754 455 b 719 476 736 464 727 470 b 678 521 703 489 689 504 b 651 576 667 538 658 556 b 641 605 647 585 644 595 b 637 620 640 610 638 615 l 636 627 l 634 635 b 628 695 631 654 629 675 b 628 755 627 715 627 735 b 643 874 629 795 634 835 b 681 989 651 914 664 952 b 740 1083 697 1023 716 1054 b 733 1083 737 1083 735 1083 b 704 1080 723 1083 714 1082 b 649 1062 685 1076 667 1070 b 623 1049 640 1058 631 1053 b 599 1033 615 1044 606 1039 b 557 993 583 1021 569 1008 b 525 944 545 978 534 962 b 503 891 517 927 509 910 b 479 778 491 855 483 817 b 475 663 475 740 474 702 b 505 434 477 586 487 509 b 539 323 514 396 525 359 b 587 217 552 286 568 251 b 618 169 596 201 607 185 b 636 146 624 161 629 154 b 655 125 642 139 648 132 b 701 91 669 112 684 100 b 727 80 709 87 718 83 b 755 75 736 77 745 76 l 755 75 b 758 72 757 75 758 74 b 755 69 758 71 756 69 b 725 73 745 69 735 70 b 696 82 715 75 705 78 b 645 114 678 90 661 101 b 623 135 637 121 630 128 b 603 158 616 142 609 150 b 568 207 590 173 579 189 b 514 313 547 241 529 276 b 477 426 499 350 487 388 b 463 485 472 446 467 465 b 453 543 459 504 456 524 b 445 663 448 583 445 623 b 447 722 445 683 446 703 b 450 752 448 732 449 742 b 455 782 452 762 453 772 b 488 897 462 821 472 860 b 515 951 495 916 504 933 b 550 999 525 968 537 984 b 595 1038 564 1013 578 1027 b 620 1054 603 1044 611 1049 b 647 1067 629 1059 638 1063 b 703 1086 665 1075 684 1081 b 745 1090 717 1088 731 1090 b 746 1091 745 1091 746 1091 b 835 1173 772 1122 802 1150 b 939 1231 867 1196 902 1216 b 1169 1290 1012 1263 1090 1280 b 1405 1297 1247 1299 1326 1301 b 1639 1268 1483 1292 1561 1283 b 1691 1258 1656 1265 1673 1262 b 1698 1265 1693 1260 1696 1263 b 1749 1301 1713 1279 1730 1292 b 1779 1309 1758 1305 1769 1308 b 1795 1309 1785 1309 1790 1309 b 1811 1307 1800 1309 1806 1309 b 1837 1289 1821 1303 1830 1297 b 1851 1260 1844 1280 1849 1270 b 1850 1243 1852 1254 1851 1249 b 1841 1228 1849 1237 1845 1232 b 1825 1221 1836 1225 1831 1222 b 1810 1220 1820 1220 1815 1219 b 1780 1226 1799 1221 1789 1223 b 1751 1234 1770 1228 1761 1231 b 1710 1244 1737 1237 1724 1241 b 1681 1203 1699 1231 1690 1217 b 1628 1101 1661 1170 1643 1136 b 1584 993 1612 1065 1597 1029 b 1507 773 1556 920 1532 846 b 1473 679 1496 742 1485 710 b 1506 677 1484 678 1495 678 b 1605 676 1539 675 1572 675 b 1703 685 1638 677 1670 680 b 1752 694 1719 688 1735 690 b 1800 705 1768 697 1784 701 b 1863 724 1821 710 1842 717 b 1879 763 1868 737 1874 750 b 2068 1125 1932 888 1991 1010 b 2132 1206 2087 1154 2108 1181 b 2151 1225 2138 1213 2145 1219 b 2161 1234 2154 1228 2157 1231 b 2170 1242 2164 1237 2167 1240 l 2180 1251 l 2191 1259 l 2196 1263 l 2201 1267 l 2212 1275 l 2233 1290 b 2255 1304 2240 1295 2248 1300 b 2279 1316 2263 1309 2271 1313 b 2307 1321 2288 1320 2298 1321 b 2335 1307 2318 1321 2328 1316 b 2346 1281 2340 1299 2344 1290 b 2348 1255 2347 1272 2348 1263 b 2346 1229 2348 1246 2347 1237 b 2280 1039 2338 1161 2313 1097 b 2154 881 2245 981 2203 927 b 1990 758 2105 833 2050 792 b 1977 724 1986 746 1981 735 l 1940 631 b 1903 538 1928 600 1916 569 b 1819 355 1877 476 1848 416 b 1730 172 1791 293 1763 232 b 1674 83 1714 142 1696 112 b 1670 77 1673 81 1671 79 b 1686 74 1675 76 1681 75 b 1735 57 1703 69 1719 64 b 1781 36 1751 50 1766 43 b 1827 18 1796 29 1811 22 b 1850 17 1834 16 1842 16 b 1870 27 1857 18 1864 22 b 1874 27 1871 29 1873 29 b 1874 23 1875 26 1875 24 b 1852 9 1868 16 1860 11 b 1825 8 1843 7 1834 7 b 1775 22 1807 11 1791 16 b 1681 49 1744 33 1713 44 b 1647 51 1670 51 1658 51 b 1637 42 1643 48 1640 45 b 1586 10 1622 28 1605 17 b 1555 2 1576 6 1565 3 b 1547 2 1552 2 1549 2 b 1543 2 1545 2 1544 2 l 1538 2 b 1528 5 1534 2 1531 3 b 1523 8 1526 6 1525 7 b 1517 15 1521 10 1518 12 b 1513 24 1515 18 1513 21 b 1512 35 1512 28 1512 31 b 1518 48 1513 39 1515 44 b 1524 54 1520 50 1522 52 b 1530 57 1526 55 1528 56 b 1532 58 1530 58 1531 58 b 1534 59 1533 59 1533 59 l 1540 62 b 1553 67 1544 64 1548 65 b 1579 75 1561 70 1570 73 b 1591 78 1583 76 1587 77 b 1596 83 1593 79 1594 81 b 1622 119 1606 94 1614 106 b 1634 140 1626 126 1630 133 b 1645 161 1637 146 1641 154 b 1665 204 1652 175 1659 189 b 1704 295 1679 234 1692 264 b 1739 388 1716 326 1728 356 b 1805 576 1762 450 1782 514 b 1841 670 1817 608 1829 639 b 1851 694 1844 678 1848 686 b 1806 680 1836 689 1821 684 b 1606 646 1741 661 1674 650 b 1504 646 1572 644 1538 644 b 1461 649 1490 647 1476 648 b 1421 552 1449 616 1435 584 b 1372 443 1406 515 1389 479 b 1318 337 1355 407 1337 372 b 1258 233 1299 302 1279 267 b 1226 183 1248 216 1237 199 b 1192 133 1215 166 1204 149 b 1120 37 1169 100 1145 68 b 1041 -54 1095 6 1069 -25 b 857 -208 986 -111 925 -165 b 790 -245 836 -222 813 -234 b 937 -251 839 -250 888 -252 b 1158 -227 1011 -250 1085 -242 b 1160 -216 1158 -223 1159 -220 b 1167 -197 1162 -210 1164 -203 b 1190 -167 1174 -186 1181 -176 b 1216 -143 1198 -159 1207 -151 b 1275 -106 1235 -129 1254 -117 b 1337 -76 1295 -95 1316 -85 b 1368 -64 1347 -72 1358 -68 b 1401 -53 1379 -60 1390 -56 b 1434 -45 1412 -50 1423 -47 b 1469 -40 1446 -42 1457 -41 b 1487 -41 1475 -40 1481 -40 b 1506 -48 1494 -42 1500 -44 b 1513 -57 1509 -51 1511 -54 b 1516 -68 1515 -61 1516 -64 b 1514 -78 1516 -72 1515 -75 b 1513 -83 1514 -80 1514 -82 b 1511 -88 1513 -85 1512 -86 b 1500 -103 1508 -93 1505 -99 b 1487 -115 1496 -107 1492 -111 b 1459 -135 1478 -122 1469 -129 b 1399 -167 1440 -147 1419 -158 b 1336 -193 1378 -177 1357 -185 b 1206 -232 1293 -208 1250 -221 b 1189 -236 1200 -233 1195 -234 b 1200 -255 1191 -243 1194 -250 b 1224 -271 1207 -261 1215 -267 b 1253 -282 1233 -275 1243 -279 b 1316 -294 1273 -288 1294 -292 b 1447 -289 1359 -298 1403 -294 b 1579 -265 1491 -283 1535 -275 b 1709 -234 1622 -256 1666 -245 b 1971 -170 1797 -213 1883 -189 b 2105 -147 2016 -161 2060 -153 b 2239 -136 2149 -142 2194 -138 b 2374 -138 2284 -135 2329 -135 b 2508 -153 2419 -140 2464 -145 b 2574 -168 2530 -157 2552 -162 b 2638 -190 2596 -174 2617 -181 b 2698 -223 2660 -198 2680 -209 b 2723 -247 2707 -230 2716 -238 b 2737 -279 2730 -256 2736 -267 l 2737 -279 m 2134 1085 b 2052 907 2104 1027 2077 967 b 2002 786 2035 867 2018 827 b 2027 801 2010 791 2018 796 b 2068 828 2041 810 2054 819 b 2145 891 2095 847 2121 868 b 2270 1044 2194 935 2236 987 b 2312 1134 2287 1073 2301 1103 b 2325 1182 2317 1150 2322 1166 b 2333 1230 2329 1198 2332 1214 b 2331 1278 2335 1246 2334 1262 b 2323 1298 2330 1285 2327 1292 b 2307 1305 2319 1303 2313 1305 b 2287 1299 2300 1304 2293 1302 b 2267 1286 2280 1295 2273 1291 b 2249 1270 2261 1281 2255 1276 b 2245 1266 2248 1269 2247 1267 b 2241 1261 2244 1264 2242 1263 l 2233 1252 b 2181 1170 2213 1227 2196 1198 b 2134 1085 2165 1142 2150 1113 m 790 1075 b 772 1080 784 1077 778 1079 b 767 1074 770 1078 769 1076 b 735 1027 756 1059 745 1043 b 709 976 725 1011 717 994 b 675 868 694 941 682 905 b 662 754 667 830 663 792 b 661 696 661 734 661 715 b 665 639 662 677 663 658 l 666 632 l 667 625 b 669 611 668 620 668 616 b 675 583 671 602 672 592 b 694 530 679 565 686 547 b 727 484 702 513 713 498 b 775 455 740 471 757 461 b 803 450 784 453 794 451 b 832 453 813 450 822 451 b 880 482 850 458 867 468 b 898 504 887 489 893 496 b 911 530 903 512 907 521 b 929 584 919 547 925 565 b 938 698 937 621 938 660 b 936 756 938 718 937 737 b 931 814 935 775 934 794 b 922 870 929 833 926 852 b 908 926 919 889 914 908 b 888 979 903 944 896 962 b 858 1026 880 996 870 1012 b 815 1063 846 1041 831 1053 b 790 1075 807 1068 799 1072 m 1756 1287 b 1716 1252 1741 1277 1727 1266 b 1754 1243 1729 1249 1741 1246 b 1782 1235 1763 1240 1773 1238 b 1810 1230 1791 1232 1801 1230 b 1834 1236 1819 1229 1828 1231 b 1840 1258 1840 1241 1842 1250 b 1808 1297 1837 1275 1824 1291 b 1795 1298 1804 1298 1799 1299 b 1781 1297 1790 1298 1786 1298 b 1756 1287 1772 1295 1764 1292 m 633 -275 b 728 -253 665 -271 697 -264 b 668 -241 708 -249 688 -245 b 416 -140 580 -220 494 -187 b 305 -63 378 -116 341 -91 b 203 27 269 -35 235 -5 b 116 132 171 59 142 94 b 51 251 90 169 68 209 b 41 277 47 260 44 268 b 98 95 54 214 73 153 b 220 -100 129 25 169 -42 b 305 -179 245 -129 274 -156 b 406 -236 336 -202 370 -221 b 517 -270 442 -252 479 -263 b 633 -275 555 -277 594 -278 m 1194 -211 b 1191 -220 1193 -214 1191 -217 b 1203 -218 1195 -219 1199 -219 b 1331 -180 1246 -207 1289 -195 b 1393 -155 1352 -172 1373 -164 b 1452 -124 1413 -145 1433 -135 b 1478 -105 1461 -118 1470 -111 b 1490 -94 1482 -101 1486 -98 b 1499 -82 1493 -90 1496 -86 b 1500 -79 1499 -81 1499 -80 b 1501 -75 1500 -77 1501 -76 b 1502 -69 1501 -73 1502 -71 b 1497 -60 1502 -65 1500 -62 b 1485 -55 1493 -57 1489 -56 b 1469 -55 1480 -55 1475 -54 b 1437 -59 1459 -55 1448 -57 b 1406 -68 1427 -62 1416 -65 b 1374 -80 1395 -72 1385 -75 b 1344 -93 1364 -84 1354 -88 b 1286 -125 1324 -103 1305 -113 b 1234 -164 1268 -137 1250 -150 b 1211 -187 1226 -171 1218 -179 b 1202 -199 1208 -190 1205 -194 b 1194 -211 1199 -203 1196 -207 "},"I":{"ha":1143,"x_min":0,"x_max":0,"o":"m 1636 -125 b 1639 -136 1640 -127 1641 -132 b 1627 -139 1637 -140 1631 -142 l 1627 -139 b 1589 -128 1616 -133 1603 -130 b 1547 -128 1575 -127 1561 -127 b 1461 -139 1518 -130 1489 -133 b 1375 -156 1432 -144 1404 -150 l 1290 -175 b 944 -240 1175 -200 1061 -224 b 857 -249 915 -244 886 -247 b 769 -250 828 -250 798 -251 b 595 -228 710 -248 652 -241 b 510 -205 566 -222 538 -214 b 489 -198 503 -202 496 -200 b 468 -190 482 -195 475 -193 b 428 -173 455 -185 441 -179 b 275 -85 374 -150 322 -120 b 142 35 226 -51 181 -10 b 46 189 103 82 70 133 l 41 200 l 37 210 b 29 232 34 217 31 225 b 16 276 24 246 20 261 b 5 321 12 291 8 306 b -1 366 3 336 1 351 b -5 412 -3 381 -4 397 b -5 458 -6 427 -6 442 b 20 639 -4 519 5 580 b 49 726 28 669 38 698 b 150 880 73 783 107 835 b 183 912 160 891 171 902 b 219 940 195 921 207 931 b 258 964 232 948 245 956 b 299 984 271 971 285 978 b 309 988 302 985 305 987 b 319 992 312 990 316 991 b 330 996 323 993 326 995 l 341 1000 b 384 1011 355 1004 369 1008 b 472 1016 413 1016 443 1018 b 500 1012 481 1015 491 1014 b 513 1042 504 1023 508 1033 b 572 1134 530 1075 549 1106 b 608 1175 583 1149 595 1162 b 627 1194 614 1182 620 1188 b 647 1212 633 1200 640 1206 b 735 1273 675 1235 704 1255 b 832 1318 766 1291 798 1306 b 857 1326 840 1321 848 1323 b 882 1333 865 1328 874 1331 l 895 1337 b 908 1340 899 1338 903 1339 b 920 1342 912 1340 916 1342 l 933 1345 b 1037 1356 968 1351 1002 1355 l 1050 1356 l 1063 1356 b 1089 1356 1071 1356 1080 1356 l 1095 1356 l 1102 1355 l 1115 1355 b 1140 1353 1123 1354 1132 1353 l 1166 1350 b 1191 1346 1174 1349 1183 1348 b 1217 1342 1200 1345 1208 1344 b 1242 1337 1225 1340 1234 1339 b 1267 1331 1250 1335 1259 1333 l 1292 1325 b 1342 1315 1309 1321 1325 1318 b 1393 1310 1359 1312 1376 1310 b 1418 1309 1401 1309 1410 1309 b 1426 1310 1421 1309 1424 1310 b 1442 1316 1431 1312 1437 1314 b 1449 1317 1444 1316 1446 1317 b 1452 1318 1450 1317 1451 1318 b 1455 1318 1453 1318 1454 1318 b 1457 1317 1456 1318 1456 1317 b 1461 1310 1460 1316 1461 1313 b 1458 1307 1460 1309 1459 1308 b 1457 1306 1458 1307 1457 1306 b 1455 1305 1456 1306 1456 1305 b 1451 1304 1454 1305 1453 1304 b 1445 1302 1449 1303 1447 1303 b 1434 1301 1441 1302 1437 1301 b 1423 1295 1430 1299 1426 1297 b 1402 1280 1416 1291 1409 1286 b 1393 1272 1399 1278 1396 1275 b 1389 1267 1391 1271 1390 1269 b 1384 1263 1387 1266 1386 1265 b 1367 1246 1378 1258 1373 1252 b 1351 1227 1361 1240 1356 1234 b 1321 1187 1341 1214 1331 1201 b 1270 1100 1303 1159 1286 1130 b 1223 1009 1253 1070 1238 1040 b 1180 917 1208 979 1194 948 b 1139 824 1166 886 1152 855 l 1118 777 l 1108 754 l 1103 742 l 1098 730 b 924 358 1041 605 984 481 b 833 173 894 296 864 235 l 794 96 l 787 81 l 775 57 b 730 -3 760 29 741 -3 b 708 15 721 -3 713 4 b 706 20 707 16 706 18 b 702 35 704 25 702 30 b 703 49 702 40 702 45 b 705 55 703 51 704 53 l 707 61 l 724 110 b 741 157 730 125 736 141 b 772 328 754 213 767 270 b 776 415 776 357 777 386 b 760 501 775 444 770 473 b 742 540 756 515 749 528 b 740 542 741 541 741 541 b 728 445 738 509 734 477 b 674 278 717 388 699 332 b 630 203 662 252 647 226 b 604 168 622 191 613 179 b 575 135 595 156 585 145 b 506 80 554 114 531 95 b 465 63 493 73 479 67 b 421 56 451 59 436 56 b 334 80 390 56 360 64 b 268 146 307 97 285 119 b 246 189 259 160 252 174 b 239 212 243 196 241 204 b 233 235 236 220 235 227 b 234 331 228 267 228 300 b 237 343 235 335 236 339 b 240 354 238 347 239 351 b 246 377 242 362 244 370 b 264 421 251 392 257 407 b 287 462 271 435 278 449 b 315 499 296 475 305 487 b 464 604 355 546 406 582 b 507 617 478 610 492 614 b 528 622 514 619 521 620 b 551 624 536 623 543 623 b 595 624 565 625 580 625 b 639 618 610 623 625 621 b 681 603 654 614 668 610 b 719 579 695 597 708 589 b 738 560 726 573 732 567 b 739 620 739 580 739 600 b 732 707 738 649 736 678 b 726 745 730 720 728 732 b 703 721 719 737 711 729 b 661 692 691 710 676 700 b 610 678 645 684 628 679 b 558 691 592 677 574 682 b 536 706 550 696 543 701 b 526 716 532 709 529 713 b 521 721 524 717 522 719 b 516 726 519 722 518 724 b 487 774 504 741 494 757 b 477 801 483 783 480 791 b 470 828 474 810 472 819 b 468 842 469 833 469 837 l 467 849 l 467 856 b 467 884 466 866 466 875 b 475 939 468 903 471 921 b 497 1007 481 962 488 985 b 472 1010 489 1009 480 1010 b 386 1003 443 1013 414 1010 b 305 972 357 997 330 986 b 173 861 253 945 209 906 b 86 711 136 816 107 765 b 58 629 75 684 66 657 b 37 370 36 544 29 457 b 76 201 43 312 56 255 b 160 49 97 146 125 95 b 282 -75 195 2 236 -39 b 431 -167 328 -111 378 -142 b 512 -200 457 -179 484 -190 b 769 -243 595 -228 681 -242 b 856 -240 798 -243 827 -242 b 943 -230 885 -238 914 -234 b 1286 -160 1058 -213 1172 -187 b 1458 -122 1343 -146 1400 -132 b 1546 -110 1487 -116 1516 -112 b 1591 -111 1561 -109 1576 -109 b 1636 -125 1606 -113 1622 -116 m 671 280 b 724 446 696 333 714 389 b 737 547 730 479 735 513 b 714 573 730 557 723 565 b 637 612 692 592 665 605 b 595 618 623 615 609 617 b 573 619 587 619 580 619 b 551 617 566 619 559 618 b 468 594 523 614 495 606 b 336 483 416 569 371 530 b 268 325 302 436 279 382 b 264 239 262 297 261 267 b 272 196 265 224 268 210 b 287 156 276 182 281 168 b 310 119 293 143 301 130 b 341 89 319 108 329 98 b 421 62 364 72 392 63 b 463 68 435 62 450 64 b 503 85 477 72 491 78 b 572 137 528 99 552 117 b 601 170 582 148 592 159 b 628 204 610 181 619 193 b 671 280 644 228 659 253 m 600 1113 b 535 1003 574 1079 552 1042 b 558 994 543 1001 550 998 b 631 945 585 982 609 965 b 685 875 652 924 670 901 b 704 835 692 862 698 849 b 708 825 706 832 707 829 b 712 815 710 822 711 818 b 719 794 715 808 717 801 b 729 757 723 782 726 769 b 759 807 741 772 751 789 b 774 855 766 822 771 838 b 773 905 777 872 776 889 l 773 905 b 774 907 773 906 773 907 b 776 906 775 907 776 907 b 778 854 780 889 780 871 b 763 805 775 837 770 821 b 730 750 755 785 743 767 b 737 708 733 736 735 722 b 743 620 741 679 743 649 b 741 555 743 598 743 577 b 769 504 753 539 763 522 b 787 416 780 476 786 446 b 787 326 789 386 789 356 b 779 261 785 304 783 283 b 832 399 796 307 814 353 b 995 775 882 526 937 651 l 1001 786 l 1001 787 b 1001 786 1001 787 1000 786 l 1002 788 l 1003 791 l 1006 797 l 1018 821 b 1042 867 1026 836 1034 852 b 1096 958 1059 898 1077 928 l 1110 980 l 1117 991 l 1125 1002 b 1155 1046 1134 1017 1144 1031 b 1219 1130 1175 1074 1197 1102 b 1288 1211 1241 1158 1264 1185 b 1369 1282 1313 1236 1339 1262 b 1375 1285 1371 1283 1373 1284 b 1381 1288 1377 1286 1379 1287 b 1393 1295 1385 1290 1389 1292 b 1405 1300 1397 1297 1401 1299 b 1392 1301 1401 1301 1396 1301 b 1341 1308 1375 1303 1358 1305 b 1291 1320 1324 1311 1307 1315 b 1266 1326 1282 1322 1274 1324 b 1241 1332 1258 1328 1249 1330 b 1140 1347 1208 1339 1174 1344 b 1038 1347 1106 1349 1072 1349 b 937 1331 1004 1344 970 1339 b 600 1113 804 1299 685 1219 m 502 880 b 501 830 500 864 500 847 b 509 780 502 813 504 796 b 529 734 513 764 520 748 b 563 699 538 720 549 708 b 610 687 577 691 593 686 b 658 698 626 687 643 691 b 699 726 673 706 687 715 b 724 752 708 734 717 743 b 714 792 722 765 718 779 b 707 813 712 799 710 806 b 703 823 706 817 705 820 b 699 833 702 827 701 830 b 680 872 694 847 687 860 b 627 941 666 898 648 921 b 555 989 606 961 582 977 b 533 998 548 993 541 996 b 511 931 524 976 516 954 b 502 880 507 914 504 897 "},"Ì":{"ha":1143,"x_min":0,"x_max":0,"o":"m 1636 -125 b 1591 -111 1622 -116 1606 -113 b 1546 -110 1576 -109 1561 -109 b 1458 -122 1516 -112 1487 -116 b 1286 -160 1400 -132 1343 -146 b 943 -230 1172 -187 1058 -213 b 856 -240 914 -234 885 -238 b 769 -243 827 -242 798 -243 b 512 -200 681 -242 595 -228 b 431 -167 484 -190 457 -179 b 282 -75 378 -142 328 -111 b 160 49 236 -39 195 2 b 76 201 125 95 97 146 b 37 370 56 255 43 312 b 58 629 29 457 36 544 b 86 711 66 657 75 684 b 173 861 107 765 136 816 b 305 972 209 906 253 945 b 386 1003 330 986 357 997 b 472 1010 414 1010 443 1013 b 497 1007 480 1010 489 1009 b 475 939 488 985 481 962 b 467 884 471 921 468 903 b 467 856 466 875 466 866 l 467 849 l 468 842 b 470 828 469 837 469 833 b 477 801 472 819 474 810 b 487 774 480 791 483 783 b 516 726 494 757 504 741 b 521 721 518 724 519 722 b 526 716 522 719 524 717 b 536 706 529 713 532 709 b 558 691 543 701 550 696 b 610 678 574 682 592 677 b 661 692 628 679 645 684 b 703 721 676 700 691 710 b 726 745 711 729 719 737 b 732 707 728 732 730 720 b 739 620 736 678 738 649 b 738 560 739 600 739 580 b 719 579 732 567 726 573 b 681 603 708 589 695 597 b 639 618 668 610 654 614 b 595 624 625 621 610 623 b 551 624 580 625 565 625 b 528 622 543 623 536 623 b 507 617 521 620 514 619 b 464 604 492 614 478 610 b 315 499 406 582 355 546 b 287 462 305 487 296 475 b 264 421 278 449 271 435 b 246 377 257 407 251 392 b 240 354 244 370 242 362 b 237 343 239 351 238 347 b 234 331 236 339 235 335 b 233 235 228 300 228 267 b 239 212 235 227 236 220 b 246 189 241 204 243 196 b 268 146 252 174 259 160 b 334 80 285 119 307 97 b 421 56 360 64 390 56 b 465 63 436 56 451 59 b 506 80 479 67 493 73 b 575 135 531 95 554 114 b 604 168 585 145 595 156 b 630 203 613 179 622 191 b 674 278 647 226 662 252 b 728 445 699 332 717 388 b 740 542 734 477 738 509 b 742 540 741 541 741 541 b 760 501 749 528 756 515 b 776 415 770 473 775 444 b 772 328 777 386 776 357 b 741 157 767 270 754 213 b 724 110 736 141 730 125 l 707 61 l 705 55 b 703 49 704 53 703 51 b 702 35 702 45 702 40 b 706 20 702 30 704 25 b 708 15 706 18 707 16 b 730 -3 713 4 721 -3 b 775 57 741 -3 760 29 l 787 81 l 794 96 l 833 173 b 924 358 864 235 894 296 b 1098 730 984 481 1041 605 l 1103 742 l 1108 754 l 1118 777 l 1139 824 b 1180 917 1152 855 1166 886 b 1223 1009 1194 948 1208 979 b 1270 1100 1238 1040 1253 1070 b 1321 1187 1286 1130 1303 1159 b 1351 1227 1331 1201 1341 1214 b 1367 1246 1356 1234 1361 1240 b 1384 1263 1373 1252 1378 1258 b 1389 1267 1386 1265 1387 1266 b 1393 1272 1390 1269 1391 1271 b 1402 1280 1396 1275 1399 1278 b 1423 1295 1409 1286 1416 1291 b 1434 1301 1426 1297 1430 1299 b 1445 1302 1437 1301 1441 1302 b 1451 1304 1447 1303 1449 1303 b 1455 1305 1453 1304 1454 1305 b 1457 1306 1456 1305 1456 1306 b 1458 1307 1457 1306 1458 1307 b 1461 1310 1459 1308 1460 1309 b 1457 1317 1461 1313 1460 1316 b 1455 1318 1456 1317 1456 1318 b 1452 1318 1454 1318 1453 1318 b 1449 1317 1451 1318 1450 1317 b 1442 1316 1446 1317 1444 1316 b 1426 1310 1437 1314 1431 1312 b 1418 1309 1424 1310 1421 1309 b 1393 1310 1410 1309 1401 1309 b 1342 1315 1376 1310 1359 1312 b 1292 1325 1325 1318 1309 1321 l 1267 1331 b 1242 1337 1259 1333 1250 1335 b 1217 1342 1234 1339 1225 1340 b 1191 1346 1208 1344 1200 1345 b 1166 1350 1183 1348 1174 1349 l 1140 1353 b 1115 1355 1132 1353 1123 1354 l 1102 1355 l 1095 1356 l 1089 1356 b 1063 1356 1080 1356 1071 1356 l 1050 1356 l 1037 1356 b 933 1345 1002 1355 968 1351 l 920 1342 b 908 1340 916 1342 912 1340 b 895 1337 903 1339 899 1338 l 882 1333 b 857 1326 874 1331 865 1328 b 832 1318 848 1323 840 1321 b 735 1273 798 1306 766 1291 b 647 1212 704 1255 675 1235 b 627 1194 640 1206 633 1200 b 608 1175 620 1188 614 1182 b 572 1134 595 1162 583 1149 b 513 1042 549 1106 530 1075 b 500 1012 508 1033 504 1023 b 472 1016 491 1014 481 1015 b 384 1011 443 1018 413 1016 b 341 1000 369 1008 355 1004 l 330 996 b 319 992 326 995 323 993 b 309 988 316 991 312 990 b 299 984 305 987 302 985 b 258 964 285 978 271 971 b 219 940 245 956 232 948 b 183 912 207 931 195 921 b 150 880 171 902 160 891 b 49 726 107 835 73 783 b 20 639 38 698 28 669 b -5 458 5 580 -4 519 b -5 412 -6 442 -6 427 b -1 366 -4 397 -3 381 b 5 321 1 351 3 336 b 16 276 8 306 12 291 b 29 232 20 261 24 246 b 37 210 31 225 34 217 l 41 200 l 46 189 b 142 35 70 133 103 82 b 275 -85 181 -10 226 -51 b 428 -173 322 -120 374 -150 b 468 -190 441 -179 455 -185 b 489 -198 475 -193 482 -195 b 510 -205 496 -200 503 -202 b 595 -228 538 -214 566 -222 b 769 -250 652 -241 710 -248 b 857 -249 798 -251 828 -250 b 944 -240 886 -247 915 -244 b 1290 -175 1061 -224 1175 -200 l 1375 -156 b 1461 -139 1404 -150 1432 -144 b 1547 -128 1489 -133 1518 -130 b 1589 -128 1561 -127 1575 -127 b 1627 -139 1603 -130 1616 -133 l 1627 -139 b 1639 -136 1631 -142 1637 -140 b 1636 -125 1641 -132 1640 -127 m 671 280 b 628 204 659 253 644 228 b 601 170 619 193 610 181 b 572 137 592 159 582 148 b 503 85 552 117 528 99 b 463 68 491 78 477 72 b 421 62 450 64 435 62 b 341 89 392 63 364 72 b 310 119 329 98 319 108 b 287 156 301 130 293 143 b 272 196 281 168 276 182 b 264 239 268 210 265 224 b 268 325 261 267 262 297 b 336 483 279 382 302 436 b 468 594 371 530 416 569 b 551 617 495 606 523 614 b 573 619 559 618 566 619 b 595 618 580 619 587 619 b 637 612 609 617 623 615 b 714 573 665 605 692 592 b 737 547 723 565 730 557 b 724 446 735 513 730 479 b 671 280 714 389 696 333 m 600 1113 b 937 1331 685 1219 804 1299 b 1038 1347 970 1339 1004 1344 b 1140 1347 1072 1349 1106 1349 b 1241 1332 1174 1344 1208 1339 b 1266 1326 1249 1330 1258 1328 b 1291 1320 1274 1324 1282 1322 b 1341 1308 1307 1315 1324 1311 b 1392 1301 1358 1305 1375 1303 b 1405 1300 1396 1301 1401 1301 b 1393 1295 1401 1299 1397 1297 b 1381 1288 1389 1292 1385 1290 b 1375 1285 1379 1287 1377 1286 b 1369 1282 1373 1284 1371 1283 b 1288 1211 1339 1262 1313 1236 b 1219 1130 1264 1185 1241 1158 b 1155 1046 1197 1102 1175 1074 b 1125 1002 1144 1031 1134 1017 l 1117 991 l 1110 980 l 1096 958 b 1042 867 1077 928 1059 898 b 1018 821 1034 852 1026 836 l 1006 797 l 1003 791 l 1002 788 l 1001 786 b 1001 787 1000 786 1001 787 l 1001 786 l 995 775 b 832 399 937 651 882 526 b 779 261 814 353 796 307 b 787 326 783 283 785 304 b 787 416 789 356 789 386 b 769 504 786 446 780 476 b 741 555 763 522 753 539 b 743 620 743 577 743 598 b 737 708 743 649 741 679 b 730 750 735 722 733 736 b 763 805 743 767 755 785 b 778 854 770 821 775 837 b 776 906 780 871 780 889 b 774 907 776 907 775 907 b 773 905 773 907 773 906 l 773 905 b 774 855 776 889 777 872 b 759 807 771 838 766 822 b 729 757 751 789 741 772 b 719 794 726 769 723 782 b 712 815 717 801 715 808 b 708 825 711 818 710 822 b 704 835 707 829 706 832 b 685 875 698 849 692 862 b 631 945 670 901 652 924 b 558 994 609 965 585 982 b 535 1003 550 998 543 1001 b 600 1113 552 1042 574 1079 m 502 880 b 511 931 504 897 507 914 b 533 998 516 954 524 976 b 555 989 541 996 548 993 b 627 941 582 977 606 961 b 680 872 648 921 666 898 b 699 833 687 860 694 847 b 703 823 701 830 702 827 b 707 813 705 820 706 817 b 714 792 710 806 712 799 b 724 752 718 779 722 765 b 699 726 717 743 708 734 b 658 698 687 715 673 706 b 610 687 643 691 626 687 b 563 699 593 686 577 691 b 529 734 549 708 538 720 b 509 780 520 748 513 764 b 501 830 504 796 502 813 b 502 880 500 847 500 864 "}}}
